<?xml version="1.0" encoding="UTF-8" standalone="no"?>
<!-- Generator: Adobe Illustrator 21.1.0, SVG Export Plug-In . SVG Version: 6.00 Build 0)  -->

<svg
   version="1.1"
   width="237"
   height="237"
   id="svg4741"
   sodipodi:docname="arm.svg"
   inkscape:version="1.2.2 (1:1.2.2+202212051552+b0a8486541)"
   xmlns:inkscape="http://www.inkscape.org/namespaces/inkscape"
   xmlns:sodipodi="http://sodipodi.sourceforge.net/DTD/sodipodi-0.dtd"
   xmlns="http://www.w3.org/2000/svg"
   xmlns:svg="http://www.w3.org/2000/svg">
  <defs
     id="defs4745" />
  <sodipodi:namedview
     id="namedview4743"
     pagecolor="#ffffff"
     bordercolor="#000000"
     borderopacity="0.25"
     inkscape:showpageshadow="2"
     inkscape:pageopacity="0.0"
     inkscape:pagecheckerboard="0"
     inkscape:deskcolor="#d1d1d1"
     showgrid="false"
     inkscape:zoom="3.2328767"
     inkscape:cx="68.669492"
     inkscape:cy="135.63771"
     inkscape:window-width="1846"
     inkscape:window-height="1216"
     inkscape:window-x="74"
     inkscape:window-y="27"
     inkscape:window-maximized="1"
     inkscape:current-layer="svg4741" />
  <path
     fill="#0091bd"
     d="m 53.6,84.35 h 15.9 v 68.1 H 53.6 v -7.1 c -7,8.1 -15.5,9.2 -20.4,9.2 -21,0 -33,-17.5 -33,-36.2 0,-22.2 15.2,-35.8 33.2,-35.8 5,0 13.8,1.3 20.2,9.7 z m -37.1,34.4 c 0,11.7 7.4,21.7 18.9,21.7 10,0 19.3,-7.3 19.3,-21.5 0,-14.9 -9.2,-22 -19.3,-22 -11.5,-0.1 -18.9,9.7 -18.9,21.8 z m 71.9,-34.4 h 15.9 v 6.1 c 1.8,-2.1 4.4,-4.4 6.6,-5.7 3.1,-1.8 6.1,-2.3 9.7,-2.3 3.9,0 8.1,0.6 12.5,3.2 l -6.5,14.4 c -3.6,-2.3 -6.5,-2.4 -8.1,-2.4 -3.4,0 -6.8,0.5 -9.9,3.7 -4.4,4.7 -4.4,11.2 -4.4,15.7 v 35.4 H 88.3 Z m 54.9,0 h 15.9 v 6.3 c 5.3,-6.5 11.6,-8.1 16.8,-8.1 7.1,0 13.8,3.4 17.6,10 5.7,-8.1 14.2,-10 20.2,-10 8.3,0 15.5,3.9 19.4,10.7 1.3,2.3 3.6,7.3 3.6,17.2 v 42.1 h -15.9 v -37.4 c 0,-7.6 -0.8,-10.7 -1.5,-12.1 -1,-2.6 -3.4,-6 -9.1,-6 -3.9,0 -7.3,2.1 -9.4,5 -2.8,3.9 -3.1,9.7 -3.1,15.5 v 35.1 h -15.9 v -37.5 c 0,-7.6 -0.8,-10.7 -1.5,-12.1 -1,-2.6 -3.4,-6 -9.1,-6 -3.9,0 -7.3,2.1 -9.4,5 -2.8,3.9 -3.1,9.7 -3.1,15.5 v 35.1 h -15.5 z"
     id="path4739" />
</svg>
