<?xml version="1.0" encoding="UTF-8" standalone="no"?>
<!-- Svg Vector Icons : http://www.onlinewebfonts.com/icon -->

<svg
   version="1.1"
   x="0px"
   y="0px"
   viewBox="0 0 1000 1000"
   enable-background="new 0 0 1000 1000"
   xml:space="preserve"
   id="svg9"
   sodipodi:docname="bash.svg"
   inkscape:version="1.2.2 (1:1.2.2+202212051552+b0a8486541)"
   xmlns:inkscape="http://www.inkscape.org/namespaces/inkscape"
   xmlns:sodipodi="http://sodipodi.sourceforge.net/DTD/sodipodi-0.dtd"
   xmlns="http://www.w3.org/2000/svg"
   xmlns:svg="http://www.w3.org/2000/svg"><defs
   id="defs13" /><sodipodi:namedview
   id="namedview11"
   pagecolor="#ffffff"
   bordercolor="#000000"
   borderopacity="0.25"
   inkscape:showpageshadow="2"
   inkscape:pageopacity="0.0"
   inkscape:pagecheckerboard="0"
   inkscape:deskcolor="#d1d1d1"
   showgrid="false"
   inkscape:zoom="0.236"
   inkscape:cx="-273.30508"
   inkscape:cy="502.11864"
   inkscape:window-width="1846"
   inkscape:window-height="1216"
   inkscape:window-x="74"
   inkscape:window-y="27"
   inkscape:window-maximized="1"
   inkscape:current-layer="svg9" />
<metadata
   id="metadata2"> Svg Vector Icons : http://www.onlinewebfonts.com/icon </metadata>
<rect
   style="fill:#000000;fill-opacity:1;stroke:#44ffd0;stroke-width:0;paint-order:stroke markers fill"
   id="rect935"
   width="864.4068"
   height="737.28815"
   x="72.033897"
   y="194.91525" /><g
   id="g7"
   style="fill:#000000;fill-opacity:1"><g
     id="_x35_151e0c8492e5103c096af88a51f9b27"
     style="fill:#000000;fill-opacity:1"><path
       d="M157.8,576.8l194.1-76.4v-1.2l-194.1-77v-85.3L454.2,468v62.9L157.8,662.1V576.8z M842.2,668.6V745H491.8v-76.5H842.2z M908.3,10H91.7C46.7,10,10,46.8,10,91.7v816.7c0,44.9,36.7,81.7,81.7,81.7h816.7c44.9,0,81.7-36.8,81.7-81.7V91.7C990,46.8,953.3,10,908.3,10z M908.3,908.3H91.7V214.2h816.7V908.3z"
       id="path4"
       style="fill:#ffffff;fill-opacity:1" /></g></g>
</svg>
