<?xml version="1.0" encoding="UTF-8" standalone="no"?>
<svg
   viewBox="0 0 215.89999 208.00163"
   version="1.1"
   id="svg2234"
   sodipodi:docname="Calico (copy).svg"
   width="215.89999"
   height="208.00163"
   inkscape:version="1.2.1 (1:1.2.1+202210291243+9c6d41e410)"
   xmlns:inkscape="http://www.inkscape.org/namespaces/inkscape"
   xmlns:sodipodi="http://sodipodi.sourceforge.net/DTD/sodipodi-0.dtd"
   xmlns="http://www.w3.org/2000/svg"
   xmlns:svg="http://www.w3.org/2000/svg"
   xmlns:rdf="http://www.w3.org/1999/02/22-rdf-syntax-ns#"
   xmlns:cc="http://creativecommons.org/ns#"
   xmlns:dc="http://purl.org/dc/elements/1.1/">
  <sodipodi:namedview
     id="namedview2236"
     pagecolor="#ffffff"
     bordercolor="#000000"
     borderopacity="0.25"
     inkscape:showpageshadow="2"
     inkscape:pageopacity="0.0"
     inkscape:pagecheckerboard="0"
     inkscape:deskcolor="#d1d1d1"
     showgrid="false"
     inkscape:zoom="1.1346154"
     inkscape:cx="316.40678"
     inkscape:cy="104.44068"
     inkscape:window-width="1846"
     inkscape:window-height="1216"
     inkscape:window-x="74"
     inkscape:window-y="27"
     inkscape:window-maximized="1"
     inkscape:current-layer="svg2234" />
  <defs
     id="defs1910">
    <style
       id="style1903">
   .cls-1{fill:#231f20;}.cls-2{fill:url(#linear-gradient);}.cls-3{fill:#173f74;}.cls-4{fill:#00214c;}.cls-5{fill:#754c29;}.cls-6{fill:#603913;}.cls-7{fill:#f7941d;}.cls-8{fill:#f47729;}.cls-9{fill:#fff;}.cls-10{fill:#3c2415;}.cls-11{fill:none;}.cls-12{fill:#603d19;}.cls-13{fill:#573819;}.cls-14{fill:#533414;}.cls-15{fill:#e6e7e8;}.cls-16{fill:#a7a9ac;}.cls-17{fill:#ef4136;}.cls-18{fill:#fbb040;}.cls-19{fill:#fff;}
  </style>
    <linearGradient
       id="linear-gradient"
       x1="101.02"
       y1="-3.22"
       x2="101.02"
       y2="199.88"
       gradientUnits="userSpaceOnUse"
       gradientTransform="translate(0,0.00164018)">
      <stop
         offset="0"
         stop-color="#fff"
         id="stop1905" />
      <stop
         offset="1"
         stop-color="#00549e"
         id="stop1907" />
    </linearGradient>
  </defs>
  <title
     id="title1912">Calico-logo</title>
  <circle
     class="cls-2"
     cx="101.02"
     cy="106.98164"
     r="98.68"
     id="circle1940"
     style="fill:url(#linear-gradient)" />
  <path
     class="cls-1"
     d="m 101,208.00164 a 101,101 0 1 1 101,-101 101.14,101.14 0 0 1 -101,101 z m 0,-197.36 a 96.34,96.34 0 1 0 96.36,96.36 96.45,96.45 0 0 0 -96.36,-96.36 z"
     id="path1942" />
  <path
     class="cls-3"
     d="m 148.5,170.53164 c -4.32,6.89 -23.78,12.1 -47.15,12.1 -23.37,0 -42.83,-5.21 -47.15,-12.1 -5.6,2.16 -8.86,4.73 -8.86,7.49 0,7.67 25.08,13.89 56,13.89 30.92,0 56,-6.22 56,-13.89 0.03,-2.76 -3.24,-5.33 -8.84,-7.49 z"
     id="path1944" />
  <path
     class="cls-4"
     d="m 101.35,182.63164 c 23.37,0 42.83,-5.21 47.15,-12.1 -10,-3.85 -27.35,-6.4 -47.15,-6.4 -19.8,0 -37.19,2.55 -47.15,6.4 4.32,6.89 23.8,12.1 47.15,12.1 z"
     id="path1946" />
  <path
     class="cls-5"
     d="m 141,135.22164 a 78.64,78.64 0 0 1 10.22,-8.08 c 16.43,-11.08 11.92,-28.5 7.94,-42.61 -2.84,-10.06 10.77,-12.77 16,16.38 5.15,28.68 -26.59,51.19 -35.11,51.19"
     id="path1948" />
  <path
     class="cls-1"
     d="m 140.08,153.56164 a 1.46,1.46 0 0 1 0,-2.92 c 4,0 14.81,-6.17 23.21,-16.2 6.17,-7.39 13,-19.15 10.46,-33.28 -2.61,-14.54 -7.38,-20.94 -10.67,-22 a 1.85,1.85 0 0 0 -2,0.3 c -0.69,0.65 -1.17,2.23 -0.48,4.67 3.84,13.64 9.11,32.31 -8.54,44.22 a 77.36,77.36 0 0 0 -10,7.91 1.46,1.46 0 0 1 -2,-2.08 78.6,78.6 0 0 1 10.43,-8.25 c 15.9,-10.72 11,-28.23 7.36,-41 -0.89,-3.13 -0.41,-6 1.26,-7.57 a 4.78,4.78 0 0 1 4.94,-1 c 5.51,1.78 10.24,10.86 12.65,24.27 2.73,15.23 -4.53,27.8 -11.1,35.66 -8.7,10.34 -20.2,17.27 -25.52,17.27 z"
     id="path1950" />
  <path
     class="cls-6"
     d="m 164.93,79.16164 c 3.45,8.22 11.77,31.09 0.15,45.74 -11.62,14.65 -19.42,13.9 -19.42,13.9 l 1.12,11.1 c 12.26,-6.31 32.62,-25.59 28.41,-49 -2.77,-15.4 -6.48,-20.51 -10.26,-21.74 z"
     id="path1952" />
  <path
     class="cls-1"
     d="m 140.08,153.56164 a 1.46,1.46 0 0 1 0,-2.92 c 4,0 14.81,-6.17 23.21,-16.2 6.17,-7.39 13,-19.15 10.46,-33.28 -2.61,-14.54 -7.38,-20.94 -10.67,-22 a 1.85,1.85 0 0 0 -2,0.3 c -0.69,0.65 -1.17,2.23 -0.48,4.67 3.84,13.64 9.11,32.31 -8.54,44.22 a 77.36,77.36 0 0 0 -10,7.91 1.46,1.46 0 0 1 -2,-2.08 78.6,78.6 0 0 1 10.43,-8.25 c 15.9,-10.72 11,-28.23 7.36,-41 -0.89,-3.13 -0.41,-6 1.26,-7.57 a 4.78,4.78 0 0 1 4.94,-1 c 5.51,1.78 10.24,10.86 12.65,24.27 2.73,15.23 -4.53,27.8 -11.1,35.66 -8.7,10.34 -20.2,17.27 -25.52,17.27 z"
     id="path1954" />
  <path
     class="cls-7"
     d="m 148.84,136.26164 c 0,29.71 -21.55,46.37 -48.13,46.37 -26.58,0 -48.14,-16.63 -48.14,-46.37 0,-29.74 21.55,-76.08 48.14,-76.08 26.59,0 48.13,46.36 48.13,76.08 z"
     id="path1956" />
  <path
     class="cls-1"
     d="m 100.71,184.00164 c -29.62,0 -49.52,-19.19 -49.52,-47.75 0,-30.59 22.18,-77.46 49.52,-77.46 27.34,0 49.52,46.87 49.52,77.46 0,28.57 -19.9,47.75 -49.52,47.75 z m 0,-122.44 c -6.7,0 -19.86,3.4 -32.84,26.19 -8.58,15.09 -13.87,33.67 -13.87,48.51 0,26.9 18.78,45 46.75,45 27.97,0 46.75,-18.08 46.75,-45 0,-14.84 -5.34,-33.42 -13.92,-48.5 -13.01,-22.76 -26.18,-26.19 -32.87,-26.19 z"
     id="path1958" />
  <path
     class="cls-8"
     d="m 100.71,60.18164 c -0.32,0 -0.64,0 -1,0 20.67,1.1 45.42,47.77 45.42,74.89 0.04,27.5 -20.62,42.93 -46.13,42.93 -9.54,0 -18.21,-0.14 -25.4,-2.28 a 53.11,53.11 0 0 0 27.1,6.95 c 26.58,0 48.13,-16.66 48.13,-46.37 0,-29.71 -21.54,-76.12 -48.12,-76.12 z"
     id="path1960" />
  <path
     class="cls-8"
     d="m 137.93,100.74164 -7.57,6.73 c 0,0 8.56,-1.83 8.9,-3.37 0.34,-1.54 -1.33,-3.36 -1.33,-3.36 z"
     id="path1962" />
  <path
     class="cls-8"
     d="m 139.87,106.39164 -8.8,6.73 c 0,0 9.94,-1.83 10.34,-3.37 0.4,-1.54 -1.54,-3.36 -1.54,-3.36 z"
     id="path1964" />
  <path
     class="cls-8"
     d="m 141.91,112.23164 -10.3,7.77 c 0,0 11.64,-2.11 12.11,-3.89 0.47,-1.78 -1.81,-3.88 -1.81,-3.88 z"
     id="path1966" />
  <path
     class="cls-8"
     d="m 141.48,157.87164 -11,-6.69 c 0,0 6.26,10 8.09,9.8 1.83,-0.2 2.91,-3.11 2.91,-3.11 z"
     id="path1968" />
  <path
     class="cls-8"
     d="m 146.31,152.21164 -12.27,-4 c 0,0 8.4,8.33 10.13,7.69 1.73,-0.64 2.14,-3.69 2.14,-3.69 z"
     id="path1970" />
  <path
     class="cls-8"
     d="m 61.47,100.74164 9,6.73 c 0,0 -10.13,-1.83 -10.54,-3.37 -0.41,-1.54 1.54,-3.36 1.54,-3.36 z"
     id="path1972" />
  <path
     class="cls-8"
     d="m 59.18,106.39164 10.42,6.73 c 0,0 -11.78,-1.83 -12.25,-3.37 -0.47,-1.54 1.83,-3.36 1.83,-3.36 z"
     id="path1974" />
  <path
     class="cls-8"
     d="m 56.76,112.23164 12.24,7.77 c 0,0 -13.78,-2.11 -14.34,-3.89 -0.56,-1.78 2.1,-3.88 2.1,-3.88 z"
     id="path1976" />
  <path
     class="cls-9"
     d="m 122.25,128.88164 c 0,14.41 -8.06,27 -22.8,27 -14.74,0 -22.8,-12.56 -22.8,-27 0,-14.44 8.06,-34.88 22.8,-34.88 14.74,0 22.8,20.48 22.8,34.88 z"
     id="path1978" />
  <path
     class="cls-1"
     d="m 99.45,157.20164 c -14.21,0 -24.14,-11.64 -24.14,-28.32 a 50.48,50.48 0 0 1 6,-23.52 c 4.57,-8.23 11,-12.76 18.1,-12.76 7.1,0 13.53,4.53 18.11,12.76 a 50.6,50.6 0 0 1 6,23.52 c 0.08,16.68 -9.85,28.32 -24.07,28.32 z m 0,-61.9 c -13.81,0 -21.45,19.86 -21.45,33.58 0,17.7 10.77,25.62 21.45,25.62 10.68,0 21.46,-7.92 21.46,-25.62 0,-13.72 -7.64,-33.58 -21.46,-33.58 z"
     id="path1980" />
  <path
     class="cls-5"
     d="m 143.09,42.72164 c -0.18,2.41 -4.7,-0.74 -6.23,1 l -31.49,-19.25 a 39.89,39.89 0 0 1 3.15,-6.35 c 6.64,-10.8699998 20.93,-21.9099998 28.07,-13.9499998 4.88,5.43 7.57,24.4999998 6.5,38.5499998 z"
     id="path1982" />
  <path
     class="cls-1"
     d="m 137.14,45.60164 -1,-0.64 -32.58,-19.89 0.45,-1.14 a 41,41 0 0 1 3.27,-6.57 C 112.42,8.9416402 122.3,0.00164018 130.47,0.00164018 a 9.33,9.33 0 0 1 7.21,3.20000002 c 5.37,6 7.93,25.6799998 6.87,39.6299998 a 2.41,2.41 0 0 1 -2.62,2.3 10.08,10.08 0 0 1 -1.92,-0.27 10,10 0 0 0 -1.64,-0.24 0.93,0.93 0 0 0 -0.42,0.06 z m 1.23,-3.9 a 11.42,11.42 0 0 1 2.22,0.3 10.78,10.78 0 0 0 1.08,0.19 c 1,-14.46 -1.95,-32.3499998 -6.16,-36.9999998 a 6.44,6.44 0 0 0 -5,-2.23 c -6.85,0 -15.91,8.1099998 -20.7,15.9999998 a 38.64,38.64 0 0 0 -2.58,5 l 29.6,18.04 a 3.92,3.92 0 0 1 1.54,-0.3 z"
     id="path1984" />
  <path
     class="cls-1"
     d="m 133.11,33.16164 c -0.07,0.8 -13.28,-7 -13.28,-7 a 13.37,13.37 0 0 1 1,-2.11 c 2.2,-3.61 6.85,-9.23 9.36,-6 0.72,0.95 3.27,10.44 2.92,15.11 z"
     id="path1986" />
  <path
     class="cls-1"
     d="m 133,34.68164 c -0.4,0 -1.62,0 -13.91,-7.23 l -1.09,-0.63 0.46,-1.16 a 13.77,13.77 0 0 1 1.16,-2.34 c 1.1,-1.79 5,-7.65 8.77,-7.65 a 3.69,3.69 0 0 1 3,1.56 c 1.06,1.4 3.52,11.35 3.16,16 a 1.54,1.54 0 0 1 -1.55,1.45 z m -11.3,-9.08 c 3.79,2.2 7.76,4.42 10,5.5 a 49.42,49.42 0 0 0 -2.7,-12.16 0.71,0.71 0 0 0 -0.63,-0.35 c -1.38,0 -4.14,2.75 -6.28,6.25 -0.09,0.25 -0.26,0.5 -0.39,0.76 z"
     id="path1988" />
  <path
     class="cls-10"
     d="m 137.14,4.9316402 -7.57,6.7299998 c 0,0 8.56,-1.8299998 8.9,-3.3699998 0.34,-1.54 -1.33,-3.36 -1.33,-3.36 z"
     id="path1990" />
  <path
     class="cls-7"
     d="m 57.55,43.69164 c 0.19,2.41 4.7,-0.74 6.24,1 l 31.49,-19.25 a 41.26,41.26 0 0 0 -3.16,-6.35 C 85.48,8.2216402 71.2,-2.8083598 64.05,5.1416402 59.17,10.58164 56.48,29.65164 57.55,43.69164 Z"
     id="path1992" />
  <path
     class="cls-8"
     d="m 62.52,8.2916402 9,6.7299998 c 0,0 -10.16,-1.82 -10.52,-3.36 -0.36,-1.54 1.52,-3.3699998 1.52,-3.3699998 z"
     id="path1994" />
  <path
     class="cls-8"
     d="m 59.36,14.43164 6.83,4.84 c 0,0 -7.72,-1.32 -8,-2.42 -0.28,-1.1 1.17,-2.42 1.17,-2.42 z"
     id="path1996" />
  <path
     class="cls-1"
     d="m 63.52,46.56164 -0.83,-0.9 a 0.83,0.83 0 0 0 -0.41,-0.06 9,9 0 0 0 -1.64,0.24 10.15,10.15 0 0 1 -1.93,0.26 v 0 a 2.4,2.4 0 0 1 -2.61,-2.3 c -1.1,-13.94 1.5,-33.65 6.9,-39.6299998 a 9.31,9.31 0 0 1 7.17,-3.17 c 8.18,0 18.06,8.9999998 23.2,17.3599998 a 42.43,42.43 0 0 1 3.27,6.58 l 0.45,1.14 z M 70.17,3.8916402 a 6.42,6.42 0 0 0 -5,2.23 C 60.95,10.82164 57.99,28.72164 59.01,43.12164 c 0.31,0 0.7,-0.11 1.08,-0.18 a 7,7 0 0 1 3.75,0 l 29.62,-18.1 a 40.64,40.64 0 0 0 -2.58,-5 C 86.08,12.00164 77,3.8916402 70.17,3.8916402 Z"
     id="path1998" />
  <path
     class="cls-1"
     d="m 67.54,34.13164 c 0.06,0.81 13.28,-7 13.28,-7 a 13.47,13.47 0 0 0 -1,-2.12 c -2.21,-3.61 -6.86,-9.23 -9.36,-6 -0.72,0.99 -3.28,10.45 -2.92,15.12 z"
     id="path2000" />
  <path
     class="cls-1"
     d="m 67.64,35.65164 v 0 a 1.54,1.54 0 0 1 -1.56,-1.41 c -0.35,-4.68 2.1,-14.64 3.17,-16 a 3.67,3.67 0 0 1 3,-1.56 c 3.81,0 7.68,5.85 8.78,7.64 a 15.91,15.91 0 0 1 1.16,2.34 l 0.45,1.16 -1.07,0.63 c -12.27,7.18 -13.52,7.2 -13.93,7.2 z m 4.6,-16.09 c -0.12,0 -0.36,0 -0.67,0.42 a 50.12,50.12 0 0 0 -2.57,12.1 c 2.18,-1.09 6.16,-3.3 10,-5.51 a 6.93,6.93 0 0 0 -0.43,-0.75 c -2.19,-3.51 -4.95,-6.26 -6.33,-6.26 z"
     id="path2002" />
  <path
     class="cls-11"
     d="m 100.71,41.36164 c -0.61,26.19 -9.52,48.55 -22.9,57.33 13.38,-8.78 22.9,-31.13 22.9,-57.33 z"
     id="path2004" />
  <path
     class="cls-12"
     d="m 113.32,101.43164 a 33.09,33.09 0 0 1 3.2,4.85 c 9.48,-2.52 17.13,-7.23 21.42,-13.11 -0.32,-0.68 -0.65,-1.33 -1,-2 a 57.68,57.68 0 0 1 -23.62,10.25 z"
     id="path2006" />
  <path
     class="cls-12"
     d="m 82.62,105.85164 a 32.22,32.22 0 0 1 3.23,-4.75 57.62,57.62 0 0 1 -21.6,-9.51 c -0.38,0.72 -0.72,1.46 -1.08,2.19 4.12,5.29 11.01,9.57 19.45,12.07 z"
     id="path2008" />
  <path
     class="cls-13"
     d="m 100.32,102.67164 a 66.22,66.22 0 0 1 -14.47,-1.57 v 0 a 32.22,32.22 0 0 0 -3.23,4.75 v 0 a 61.41,61.41 0 0 0 17.69,2.52 62.47,62.47 0 0 0 16.2,-2.08 v 0 a 33.09,33.09 0 0 0 -3.2,-4.85 68.08,68.08 0 0 1 -12.99,1.23 z"
     id="path2010" />
  <path
     class="cls-1"
     d="m 99.45,157.20164 c -14.21,0 -24.14,-11.64 -24.14,-28.32 a 50.48,50.48 0 0 1 6,-23.52 c 4.57,-8.23 11,-12.76 18.1,-12.76 7.1,0 13.53,4.53 18.11,12.76 a 50.6,50.6 0 0 1 6,23.52 c 0.08,16.68 -9.85,28.32 -24.07,28.32 z m 0,-61.9 c -13.81,0 -21.45,19.86 -21.45,33.58 0,17.7 10.77,25.62 21.45,25.62 10.68,0 21.46,-7.92 21.46,-25.62 0,-13.72 -7.64,-33.58 -21.46,-33.58 z"
     id="path2012" />
  <path
     class="cls-14"
     d="m 140.71,88.00164 c -1.19,1.1 -2.44,2.14 -3.76,3.14 0.34,0.67 0.67,1.32 1,2 a 19.91,19.91 0 0 0 2.76,-5.14 z"
     id="path2014" />
  <path
     class="cls-1"
     d="m 100.71,184.00164 c -29.62,0 -49.52,-19.19 -49.52,-47.75 0,-30.59 22.18,-77.46 49.52,-77.46 27.34,0 49.52,46.87 49.52,77.46 0,28.57 -19.9,47.75 -49.52,47.75 z m 0,-122.44 c -6.7,0 -19.86,3.4 -32.84,26.19 -8.58,15.09 -13.87,33.67 -13.87,48.51 0,26.9 18.78,45 46.75,45 27.97,0 46.75,-18.08 46.75,-45 0,-14.84 -5.34,-33.42 -13.92,-48.5 -13.01,-22.76 -26.18,-26.19 -32.87,-26.19 z"
     id="path2016" />
  <path
     class="cls-7"
     d="m 136.5,55.83164 a 19.6,19.6 0 0 1 8.37,-15.83 c -9.45,-11 -25.69,-18.25 -44.16,-18.25 -0.62,0 -1.24,0 -1.86,0 a 72.28,72.28 0 0 1 1.86,19.54 c 0,26.2 -9.52,48.55 -22.9,57.33 a 66.35,66.35 0 0 0 22.9,4 c 23.43,0 43.3,-11.69 50.21,-27.86 -8.45,-2.95 -14.42,-10.31 -14.42,-18.93 z"
     id="path2018" />
  <path
     class="cls-1"
     d="m 100.71,104.13164 a 67.55,67.55 0 0 1 -23.41,-4.07 1.46,1.46 0 0 1 -0.94,-1.21 1.44,1.44 0 0 1 0.64,-1.39 c 13.3,-8.72 22.24,-31.27 22.24,-56.1 a 71,71 0 0 0 -1.81,-19.17 1.46,1.46 0 0 1 1.38,-1.83 h 0.27 1.62 c 18.25,0 35.17,7 45.26,18.75 a 1.48,1.48 0 0 1 0.35,1.12 1.45,1.45 0 0 1 -0.59,1 18.15,18.15 0 0 0 -7.72,14.6 c 0,7.79 5.28,14.7 13.45,17.6 a 1.45,1.45 0 0 1 0.84,0.79 1.42,1.42 0 0 1 0,1.16 c -7.38,17.2 -28.1,28.75 -51.58,28.75 z m -19.77,-5.91 a 65.06,65.06 0 0 0 19.77,3 c 21.69,0 40.84,-10.23 48.24,-25.6 -8.5,-3.62 -13.95,-11.23 -13.95,-19.79 a 20.84,20.84 0 0 1 7.7,-16 c -9.65,-10.42 -25.23,-16.6 -42,-16.6 v 0 a 77.46,77.46 0 0 1 1.47,18.15 c 0,24.71 -8.25,46.62 -21.23,56.84 z"
     id="path2020" />
  <path
     class="cls-5"
     d="m 100.71,41.36164 a 102.11,102.11 0 0 0 -1.86,-19.54 c -28.31,0.75 -51,18.55 -51,40.41 0,16.05 12.22,29.92 29.93,36.46 13.41,-8.78 22.32,-31.14 22.93,-57.33 z"
     id="path2022" />
  <path
     class="cls-1"
     d="m 77.81,100.15164 a 1.48,1.48 0 0 1 -0.51,-0.09 c -18.76,-6.92 -30.88,-21.77 -30.88,-37.83 0,-22.7 23,-41.09 52.4,-41.87 a 1.48,1.48 0 0 1 1.47,1.18 104.62,104.62 0 0 1 1.88,19.82 c -0.62,26.64 -9.87,49.56 -23.56,58.55 a 1.53,1.53 0 0 1 -0.8,0.24 z m 19.84,-76.83 c -27.19,1.21 -48.31,18.12 -48.31,38.91 0,14.63 11.07,28.23 28.27,34.82 12.59,-8.76 21,-30.5 21.64,-55.72 a 101.29,101.29 0 0 0 -1.6,-18.01 z"
     id="path2024" />
  <path
     class="cls-10"
     d="m 52.16,47.51164 9,6.73 c 0,0 -10.16,-1.83 -10.57,-3.37 -0.41,-1.54 1.57,-3.36 1.57,-3.36 z"
     id="path2026" />
  <path
     class="cls-10"
     d="m 49.87,53.16164 10.42,6.73 c 0,0 -11.78,-1.83 -12.29,-3.36 -0.51,-1.53 1.87,-3.37 1.87,-3.37 z"
     id="path2028" />
  <path
     class="cls-8"
     d="m 133.18,73.41164 c 0,-5.71 -4.27,-10.34 -9.53,-10.34 a 9.48,9.48 0 0 0 -8.56,5.81 c 8.31,2.28 13.9,6.61 13.9,12.36 a 6.68,6.68 0 0 1 -0.07,0.77 10.55,10.55 0 0 0 4.26,-8.6 z"
     id="path2030" />
  <path
     class="cls-5"
     d="m 98.85,21.82164 a 102.11,102.11 0 0 1 1.86,19.54 72.28,72.28 0 0 0 -1.86,-19.54 z"
     id="path2032" />
  <path
     class="cls-1"
     d="m 100.71,42.82164 v 0 a 1.46,1.46 0 0 1 -1.44,-1.46 101.18,101.18 0 0 0 -1.85,-19.26 1.4615916,1.4615916 0 0 1 2.85,-0.65 73.91,73.91 0 0 1 1.9,20 1.46,1.46 0 0 1 -1.46,1.37 z"
     id="path2034" />
  <path
     class="cls-5"
     d="m 144.87,40.00164 a 19.6,19.6 0 0 0 -8.37,15.79 c 0,8.62 6,16 14.42,19 a 31.92,31.92 0 0 0 2.62,-12.58 33.92,33.92 0 0 0 -8.67,-22.21 z"
     id="path2036" />
  <path
     class="cls-1"
     d="m 151.72,76.64164 -1.29,-0.46 c -9.35,-3.31 -15.43,-11.3 -15.43,-20.35 a 21,21 0 0 1 9,-17 l 1.09,-0.8 0.88,1 a 35.33,35.33 0 0 1 9,23.15 33.23,33.23 0 0 1 -2.74,13.15 z m -7.07,-34.58 a 18,18 0 0 0 -6.65,13.77 c 0,7.37 4.72,14 12.14,17.1 a 30.29,30.29 0 0 0 2,-10.7 32.17,32.17 0 0 0 -7.49,-20.17 z"
     id="path2038" />
  <ellipse
     class="cls-1"
     cx="78.829109"
     cy="59.832283"
     rx="12.3"
     ry="10.6"
     transform="rotate(-7.3)"
     id="ellipse2040" />
  <ellipse
     class="cls-9"
     cx="79.170486"
     cy="61.447491"
     rx="8.9399996"
     ry="7.6999998"
     transform="rotate(-7.3)"
     id="ellipse2042" />
  <ellipse
     class="cls-1"
     cx="79.138298"
     cy="61.805161"
     rx="3.3499999"
     ry="2.96"
     transform="rotate(-7.28)"
     id="ellipse2044" />
  <path
     class="cls-1"
     d="m 76.26,41.54164 a 0.92,0.92 0 0 1 -0.36,-0.07 l -3.39,-1.33 a 1,1 0 1 1 0.71,-1.81 l 3.39,1.33 a 1,1 0 0 1 0.55,1.26 1,1 0 0 1 -0.9,0.62 z"
     id="path2046" />
  <path
     class="cls-1"
     d="m 79,39.24164 a 1,1 0 0 1 -0.56,-0.17 l -4.07,-2.86 a 1,1 0 0 1 -0.24,-1.36 1,1 0 0 1 1.35,-0.23 l 4.08,2.85 a 1,1 0 0 1 0.23,1.36 1,1 0 0 1 -0.79,0.41 z"
     id="path2048" />
  <ellipse
     class="cls-1"
     cx="-33.901592"
     cy="123.58424"
     rx="10.584088"
     ry="12.281536"
     transform="rotate(-82.519114)"
     id="ellipse2050"
     style="stroke-width:0.998499" />
  <ellipse
     class="cls-9"
     cx="-35.567242"
     cy="122.85111"
     rx="7.6999998"
     ry="8.9399996"
     transform="rotate(-82.7)"
     id="ellipse2052" />
  <ellipse
     class="cls-1"
     cx="-35.993797"
     cy="122.88617"
     rx="2.96"
     ry="3.3499999"
     transform="rotate(-82.72)"
     id="ellipse2054" />
  <path
     class="cls-1"
     d="m 127.4,41.54164 a 1,1 0 0 1 -0.36,-1.88 l 3.4,-1.33 a 1,1 0 1 1 0.71,1.81 l -3.4,1.33 a 0.84,0.84 0 0 1 -0.35,0.07 z"
     id="path2056" />
  <path
     class="cls-1"
     d="m 124.7,39.24164 a 1,1 0 0 1 -0.56,-1.77 l 4.07,-2.85 a 1,1 0 1 1 1.12,1.59 l -4.07,2.86 a 1,1 0 0 1 -0.56,0.17 z"
     id="path2058" />
  <path
     class="cls-9"
     d="m 129,81.24164 c 0,8.69 -12.73,15.76 -28.42,15.76 -15.69,0 -28.41,-7 -28.41,-15.73 0,-8.73 12.72,-14.17 28.41,-14.17 15.69,0 28.42,5.45 28.42,14.14 z"
     id="path2060" />
  <path
     class="cls-15"
     d="m 100.74,94.00164 c -10.3,0.06 -19.92,-2.6 -28.57,-12.71 0.69,10.6 13.65,15.27 28.19,15.27 15.69,0 27,-6 28.41,-15.27 -8.1,8.79 -13.47,12.58 -28.03,12.71 z"
     id="path2062" />
  <path
     class="cls-1"
     d="m 101.08,92.33164 c -8.66,0 -16.56,-4.53 -20.18,-11.58 a 1,1 0 0 1 1.73,-0.89 c 3.29,6.41 10.51,10.52 18.45,10.52 h 0.26 c 7.72,-0.09 14.82,-4.15 18.08,-10.34 a 1,1 0 1 1 1.72,0.91 c -3.64,6.92 -11.22,11.28 -19.78,11.38 z"
     id="path2064" />
  <path
     class="cls-1"
     d="m 100.58,98.43164 c -16.75,0 -29.87,-7.55 -29.87,-17.19 0,-9.2 12.28,-15.63 29.87,-15.63 17.59,0 29.87,6.39 29.87,15.63 0,9.64 -13.12,17.19 -29.87,17.19 z m 0,-29.9 c -15.62,0 -26.95,5.35 -26.95,12.71 0,7.74 12.34,14.27 27,14.27 14.66,0 27,-6.53 27,-14.27 -0.09,-7.36 -11.43,-12.71 -27.05,-12.71 z"
     id="path2066" />
  <rect
     class="cls-1"
     x="99.879997"
     y="73.00164"
     width="2.28"
     height="18.84"
     id="rect2068" />
  <path
     class="cls-1"
     d="m 109.35,68.00164 c 0,4.6 -8.33,7.44 -8.33,7.44 0,0 -8.32,-2.83 -8.32,-7.44 0,-4.61 3.73,-4.07 8.32,-4.07 4.59,0 8.33,-0.51 8.33,4.07 z"
     id="path2070" />
  <ellipse
     class="cls-16"
     cx="101.02"
     cy="66.951637"
     rx="5.4099998"
     ry="0.93000001"
     id="ellipse2072" />
  <path
     class="cls-8"
     d="m 129.18,164.13164 c 0,4.08 -1.85,21.49 -12.29,20.21 -5.64,-0.7 -13.66,-9.51 -10.28,-11.8 3.59,-2.43 -3.59,-14.95 1.25,-11.77 4.84,3.18 21.32,-0.72 21.32,3.36 z"
     id="path2074" />
  <path
     class="cls-9"
     d="m 123.58,179.53164 c 0,4.09 -3.86,5.54 -9.91,5.54 -6.05,0 -11,-3.31 -11,-7.4 0,-4.09 2.73,-7.49 7.88,-4.31 5.15,3.18 13.03,2.09 13.03,6.17 z"
     id="path2076" />
  <path
     class="cls-15"
     d="m 113,181.18164 a 27.82,27.82 0 0 1 -9.9,-6.27 5.62,5.62 0 0 0 -0.41,2.07 c 0,4.47 5.31,8.09 11.85,8.09 a 15.16,15.16 0 0 0 8,-2.18 28.1,28.1 0 0 1 -9.54,-1.71 z"
     id="path2078" />
  <path
     class="cls-1"
     d="m 114.56,186.29164 c -7.21,0 -13.07,-4.18 -13.07,-9.31 0,-3.26 2.32,-6.22 6.13,-7.91 a 48.49,48.49 0 0 1 -1,-8.26 1.22,1.22 0 1 1 2.43,-0.08 45.8,45.8 0 0 0 1.15,8.81 l 0.25,1.05 -1,0.37 c -3.41,1.23 -5.52,3.54 -5.52,6 0,3.79 4.77,6.87 10.63,6.87 4.68,0 8.87,-2 10.21,-5 a 77.33,77.33 0 0 0 5.09,-18.52 1.22,1.22 0 0 1 2.41,0.35 79.32,79.32 0 0 1 -5.27,19.18 c -1.76,3.87 -6.75,6.45 -12.44,6.45 z"
     id="path2080" />
  <path
     class="cls-5"
     d="m 71.42,164.13164 c 0,4.08 1.85,21.49 12.29,20.21 5.64,-0.7 13.66,-9.51 10.28,-11.8 -3.59,-2.43 2.2,-14.95 -2.63,-11.77 -4.83,3.18 -19.94,-0.72 -19.94,3.36 z"
     id="path2082" />
  <path
     class="cls-9"
     d="m 77,179.53164 c 0,4.09 3.86,5.54 9.91,5.54 6.05,0 11,-3.31 11,-7.4 0,-4.09 -2.73,-7.49 -7.88,-4.31 -5.15,3.18 -13.03,2.09 -13.03,6.17 z"
     id="path2084" />
  <path
     class="cls-15"
     d="m 88.64,181.55164 a 27.91,27.91 0 0 0 9.57,-6.76 5.77,5.77 0 0 1 0.5,2 c 0.23,4.47 -4.88,8.36 -11.41,8.69 a 15,15 0 0 1 -8.15,-1.77 28.11,28.11 0 0 0 9.49,-2.16 z"
     id="path2086" />
  <path
     class="cls-1"
     d="m 86,186.29164 c -5.69,0 -10.68,-2.58 -12.42,-6.41 a 79.72,79.72 0 0 1 -5.29,-19.17 1.22,1.22 0 0 1 2.41,-0.35 77.27,77.27 0 0 0 5.11,18.56 c 1.32,2.89 5.52,4.93 10.19,4.93 5.86,0 10.63,-3.08 10.63,-6.87 0,-2.48 -2.11,-4.79 -5.51,-6 l -1,-0.37 0.24,-1.05 a 45,45 0 0 0 1.15,-8.81 1.22,1.22 0 1 1 2.43,0.08 48.49,48.49 0 0 1 -1,8.26 c 3.81,1.69 6.13,4.65 6.13,7.91 0.04,5.11 -5.82,9.29 -13.07,9.29 z"
     id="path2088" />
  <circle
     class="cls-15"
     cx="118.06"
     cy="76.011642"
     r="1.41"
     id="circle2090" />
  <circle
     class="cls-15"
     cx="115.28"
     cy="72.531639"
     r="1.41"
     id="circle2092" />
  <circle
     class="cls-15"
     cx="114.36"
     cy="77.521637"
     r="1.41"
     id="circle2094" />
  <circle
     class="cls-15"
     cx="84.32"
     cy="76.131638"
     r="1.41"
     id="circle2096" />
  <circle
     class="cls-15"
     cx="88.050003"
     cy="77.521637"
     r="1.41"
     id="circle2098" />
  <circle
     class="cls-15"
     cx="87.449997"
     cy="73.00164"
     r="1.41"
     id="circle2100" />
  <path
     class="cls-1"
     d="m 139.28,77.22164 v 0 l -20.23,-0.22 a 1,1 0 1 1 0,-2 l 20.22,0.24 a 1,1 0 0 1 0,2 z"
     id="path2102" />
  <path
     class="cls-1"
     d="m 116.28,73.44164 a 1,1 0 0 1 -0.36,-1.88 l 19,-7.48 a 1,1 0 1 1 0.72,1.81 l -19,7.48 a 0.84,0.84 0 0 1 -0.36,0.07 z"
     id="path2104" />
  <path
     class="cls-1"
     d="m 63.41,77.22164 a 1,1 0 0 1 0,-2 l 20.21,-0.22 v 0 a 1,1 0 0 1 0,2 l -20.22,0.24 z"
     id="path2106" />
  <path
     class="cls-1"
     d="m 86.41,73.44164 a 0.92,0.92 0 0 1 -0.36,-0.07 L 67,65.89164 a 1,1 0 1 1 0.72,-1.81 l 19,7.48 a 1,1 0 0 1 -0.36,1.88 z"
     id="path2108" />
  <circle
     class="cls-17"
     cx="182.41"
     cy="172.22163"
     r="29.879999"
     id="circle2110" />
  <path
     class="cls-17"
     d="m 182.41,142.34164 a 29.88,29.88 0 1 1 -29.87,29.88 29.88,29.88 0 0 1 29.87,-29.88 m 0,-1.08 a 31,31 0 1 0 31,31 31,31 0 0 0 -31,-31 z"
     id="path2112" />
  <path
     class="cls-18"
     d="m 155.93,162.55164 a 0.69,0.69 0 0 1 -0.39,-0.14 l 0.4,-0.59 -0.51,-0.5 0.1,-0.1 c 3.46,-3.93 16,-16.83 32.64,-18 a 0.73,0.73 0 0 1 0.77,0.66 0.72,0.72 0 0 1 -0.67,0.77 c -16.47,1.16 -29.27,14.79 -31.67,17.51 a 0.92,0.92 0 0 1 -0.67,0.39 z"
     id="path2114" />
  <path
     class="cls-18"
     d="m 153.93,168.60164 a 0.72,0.72 0 0 1 -0.4,-0.12 0.71,0.71 0 0 1 -0.2,-1 c 0.15,-0.22 15.06,-22.45 39.63,-22.45 a 0.72,0.72 0 1 1 0,1.44 v 0 c -23.79,0 -38.29,21.58 -38.44,21.8 a 0.69,0.69 0 0 1 -0.59,0.33 z"
     id="path2116" />
  <path
     class="cls-18"
     d="m 153.93,172.46164 a 0.71,0.71 0 0 1 -0.62,-1.08 c 0.16,-0.27 16.2,-26.86 43.49,-24.27 a 0.72,0.72 0 0 1 -0.14,1.43 c -26.4,-2.52 -42,23.31 -42.12,23.57 a 0.72,0.72 0 0 1 -0.61,0.35 z"
     id="path2118" />
  <path
     class="cls-18"
     d="m 208.58,185.10164 a 0.71,0.71 0 0 1 -0.72,-0.71 c 0,-27.28 -12.93,-33.66 -13.06,-33.72 a 0.72,0.72 0 1 1 0.6,-1.3 c 0.57,0.26 13.89,6.74 13.89,35 a 0.71,0.71 0 0 1 -0.71,0.73 z"
     id="path2120" />
  <path
     class="cls-18"
     d="m 206.67,187.76164 a 0.72,0.72 0 0 1 -0.72,-0.7 c -0.53,-32 -14.93,-36.81 -15.07,-36.85 a 0.73,0.73 0 0 1 -0.48,-0.9 0.71,0.71 0 0 1 0.89,-0.47 c 0.64,0.19 15.54,5 16.1,38.19 a 0.72,0.72 0 0 1 -0.71,0.73 z"
     id="path2122" />
  <path
     class="cls-18"
     d="m 204.14,191.16164 v 0 a 0.72,0.72 0 0 1 -0.67,-0.76 c 1.88,-29.94 -12.46,-37.83 -14.38,-38.74 h -0.06 c -0.54,-0.21 -0.75,-0.53 -0.63,-0.95 a 0.72,0.72 0 0 1 0.81,-0.51 l 0.21,0.08 v 0 l 0.12,0.05 a 0.42,0.42 0 0 1 0.16,0.09 c 2.89,1.39 17.08,10 15.19,40.09 a 0.72,0.72 0 0 1 -0.75,0.65 z"
     id="path2124" />
  <path
     class="cls-18"
     d="m 201.19,195.18164 h -0.13 a 0.71,0.71 0 0 1 -0.58,-0.83 c 6.13,-33.68 -15.79,-42.61 -16,-42.7 a 0.71,0.71 0 0 1 -0.41,-0.92 0.7,0.7 0 0 1 0.92,-0.41 c 0.24,0.09 23.25,9.46 16.91,44.28 a 0.72,0.72 0 0 1 -0.71,0.58 z"
     id="path2126" />
  <path
     class="cls-18"
     d="m 170.72,198.46164 a 0.73,0.73 0 0 1 -0.72,-0.71 c -0.31,-20.47 13,-45.41 13.13,-45.66 a 0.72,0.72 0 0 1 1.26,0.68 c -0.13,0.25 -13.27,24.86 -12.95,45 a 0.73,0.73 0 0 1 -0.71,0.73 z"
     id="path2128" />
  <path
     class="cls-18"
     d="m 168.2,197.83164 a 0.73,0.73 0 0 1 -0.72,-0.71 c -0.31,-20.47 13.31,-45.63 13.45,-45.88 a 0.72,0.72 0 0 1 1.26,0.69 c -0.14,0.25 -13.59,25.08 -13.28,45.17 a 0.72,0.72 0 0 1 -0.7,0.73 z"
     id="path2130" />
  <path
     class="cls-18"
     d="m 173.14,199.48164 v 0 a 0.71,0.71 0 0 1 -0.68,-0.74 c 0.91,-23.43 12.49,-44.84 12.61,-45.05 a 0.71,0.71 0 0 1 1,-0.29 0.72,0.72 0 0 1 0.28,1 c -0.11,0.21 -11.53,21.34 -12.44,44.42 a 0.71,0.71 0 0 1 -0.77,0.66 z"
     id="path2132" />
  <path
     class="cls-18"
     d="m 178,200.50164 a 0.72,0.72 0 0 1 -0.71,-0.68 c -1.12,-19.89 11.64,-43.68 11.77,-43.92 a 0.71,0.71 0 0 1 1,-0.29 0.73,0.73 0 0 1 0.29,1 c -0.13,0.24 -12.69,23.68 -11.6,43.16 a 0.72,0.72 0 0 1 -0.68,0.76 z"
     id="path2134" />
  <path
     class="cls-18"
     d="m 175.62,200.50164 a 0.71,0.71 0 0 1 -0.71,-0.68 c -1.12,-19.89 11.89,-44.77 12,-45 a 0.72,0.72 0 1 1 1.27,0.67 c -0.13,0.25 -13,24.78 -11.86,44.27 a 0.72,0.72 0 0 1 -0.68,0.76 z"
     id="path2136" />
  <path
     class="cls-18"
     d="m 180.41,201.66164 a 0.72,0.72 0 0 1 -0.71,-0.66 c -1.76,-19.7 10.82,-43.29 11,-43.52 a 0.72,0.72 0 0 1 1.26,0.68 c -0.13,0.23 -12.51,23.44 -10.78,42.72 a 0.72,0.72 0 0 1 -0.65,0.77 z"
     id="path2138" />
  <path
     class="cls-18"
     d="m 195.78,164.43164 h -0.18 c -0.65,-0.17 -2.17,-0.46 -3.17,-0.65 l -0.81,-0.16 a 0.71386273,0.71386273 0 1 1 0.28,-1.4 l 0.8,0.15 c 1.08,0.21 2.56,0.49 3.25,0.67 a 0.72,0.72 0 0 1 -0.17,1.41 z"
     id="path2140" />
  <path
     class="cls-18"
     d="m 198.48,172.46164 a 0.62,0.62 0 0 1 -0.23,0 l -1.1,-0.37 c -2.26,-0.76 -6.45,-2.18 -8.08,-2.59 a 0.71,0.71 0 0 1 -0.51,-0.87 0.72,0.72 0 0 1 0.87,-0.52 c 1.67,0.43 5.74,1.8 8.17,2.62 l 1.11,0.37 a 0.73,0.73 0 0 1 0.45,0.91 0.72,0.72 0 0 1 -0.68,0.45 z"
     id="path2142" />
  <path
     class="cls-18"
     d="m 199.62,175.24164 a 0.85,0.85 0 0 1 -0.23,0 l -1.42,-0.49 a 77,77 0 0 0 -9.75,-2.91 0.71352996,0.71352996 0 1 1 0.22,-1.41 75.81,75.81 0 0 1 10,3 l 1.41,0.48 a 0.72,0.72 0 0 1 -0.23,1.4 z"
     id="path2144" />
  <path
     class="cls-18"
     d="m 200.15,177.74164 a 0.69,0.69 0 0 1 -0.25,0 55,55 0 0 0 -11.76,-3.21 0.72,0.72 0 0 1 -0.63,-0.79 0.73,0.73 0 0 1 0.8,-0.63 56.28,56.28 0 0 1 12.08,3.28 0.73,0.73 0 0 1 0.43,0.92 0.72,0.72 0 0 1 -0.67,0.43 z"
     id="path2146" />
  <path
     class="cls-18"
     d="m 200.15,180.19164 a 0.78,0.78 0 0 1 -0.26,0 69.43,69.43 0 0 0 -13.36,-3.67 0.71,0.71 0 0 1 -0.6,-0.81 0.72,0.72 0 0 1 0.81,-0.61 71.62,71.62 0 0 1 13.66,3.75 0.71,0.71 0 0 1 0.42,0.92 0.72,0.72 0 0 1 -0.67,0.42 z"
     id="path2148" />
  <path
     class="cls-18"
     d="m 200.15,182.67164 a 0.65,0.65 0 0 1 -0.36,-0.1 c -2.89,-1.69 -7.45,-2.53 -11.47,-3.27 -1,-0.18 -1.93,-0.36 -2.8,-0.54 a 0.7,0.7 0 0 1 -0.56,-0.84 0.72,0.72 0 0 1 0.85,-0.56 c 0.86,0.18 1.8,0.35 2.77,0.53 4.13,0.77 8.82,1.63 11.93,3.45 a 0.72,0.72 0 0 1 -0.36,1.33 z"
     id="path2150" />
  <path
     class="cls-18"
     d="m 184.73,182.43164 a 0.72,0.72 0 0 1 -0.32,-1.36 l 2.84,-1.39 a 0.7133197,0.7133197 0 1 1 0.63,1.28 l -2.84,1.4 a 0.7,0.7 0 0 1 -0.31,0.07 z"
     id="path2152" />
  <path
     class="cls-18"
     d="m 183.14,185.37164 a 0.72,0.72 0 1 1 0,-1.43 60.42,60.42 0 0 0 6.63,-3.54 0.71261841,0.71261841 0 1 1 0.72,1.23 c -2.9,1.71 -6.49,3.74 -7.35,3.74 z"
     id="path2154" />
  <path
     class="cls-18"
     d="m 183.26,187.75164 h -0.2 a 0.71431786,0.71431786 0 1 1 0.33,-1.39 c 0.81,0 5.87,-2.72 10.06,-5.23 a 0.72,0.72 0 1 1 0.73,1.23 c -4.18,2.48 -9.36,5.39 -10.92,5.39 z"
     id="path2156" />
  <path
     class="cls-18"
     d="m 183.21,190.11164 h -0.12 a 0.72,0.72 0 0 1 -0.67,-0.77 0.7,0.7 0 0 1 0.76,-0.66 c 1.62,0.12 8.44,-4.25 12.33,-7 a 0.72,0.72 0 0 1 1,0.16 0.71,0.71 0 0 1 -0.17,1 c -1.72,1.21 -10.34,7.27 -13.13,7.27 z"
     id="path2158" />
  <path
     class="cls-18"
     d="m 178.37,154.75164 a 0.85,0.85 0 0 1 -0.23,0 c -0.66,-0.22 -1.28,-1.19 -1.52,-1.59 a 0.72,0.72 0 0 1 0.26,-1 0.7,0.7 0 0 1 1,0.26 3.62,3.62 0 0 0 0.77,1 0.72,0.72 0 0 1 0.44,0.9 0.73,0.73 0 0 1 -0.72,0.43 z"
     id="path2160" />
  <path
     class="cls-18"
     d="m 175.33,160.41164 a 0.7,0.7 0 0 1 -0.31,-0.07 c -1.26,-0.6 -3,-3.47 -3.32,-4 a 0.72,0.72 0 1 1 1.24,-0.72 c 0.73,1.26 2.06,3.17 2.7,3.47 a 0.71,0.71 0 0 1 -0.31,1.36 z"
     id="path2162" />
  <path
     class="cls-18"
     d="m 173.24,165.40164 a 0.67,0.67 0 0 1 -0.24,0 c -1.22,-0.44 -4.17,-4.33 -5.38,-6 a 0.71,0.71 0 0 1 0.15,-1 0.72,0.72 0 0 1 1,0.16 c 1.79,2.44 4.1,5.22 4.71,5.47 a 0.73,0.73 0 0 1 0.42,0.92 0.72,0.72 0 0 1 -0.66,0.45 z"
     id="path2164" />
  <path
     class="cls-18"
     d="m 172.32,167.57164 a 0.69,0.69 0 0 1 -0.47,-0.18 73.94,73.94 0 0 1 -5.65,-6.39 0.72,0.72 0 0 1 0.11,-1 0.7,0.7 0 0 1 1,0.11 77.09,77.09 0 0 0 5.49,6.2 0.72,0.72 0 0 1 -0.48,1.25 z"
     id="path2166" />
  <path
     class="cls-18"
     d="m 170.77,171.11164 h -0.11 c -1.85,-0.3 -7,-5.66 -8.48,-7.29 a 0.72,0.72 0 0 1 0,-1 0.73,0.73 0 0 1 1,0 c 3,3.18 6.72,6.71 7.65,6.86 a 0.7121271,0.7121271 0 0 1 -0.11,1.42 z"
     id="path2168" />
  <path
     class="cls-18"
     d="m 169.08,173.61164 a 0.68,0.68 0 0 1 -0.33,-0.09 c -1.37,-0.71 -6.74,-6.42 -7.8,-7.55 a 0.725,0.725 0 0 1 1.05,-1 c 2.39,2.56 6.52,6.8 7.41,7.27 a 0.71,0.71 0 0 1 -0.33,1.35 z"
     id="path2170" />
  <path
     class="cls-18"
     d="m 156.84,171.59164 h -0.19 a 0.7,0.7 0 0 1 -0.63,-0.79 0.72,0.72 0 0 1 0.79,-0.63 c 0.4,0 3.14,-0.27 5.56,-0.58 a 0.7,0.7 0 0 1 0.8,0.61 0.72,0.72 0 0 1 -0.61,0.81 c -1.13,0.13 -4.68,0.58 -5.72,0.58 z"
     id="path2172" />
  <path
     class="cls-18"
     d="m 154.88,174.00164 h -0.15 a 0.72,0.72 0 0 1 -0.69,-0.74 0.71,0.71 0 0 1 0.75,-0.69 c 1.24,0 7.26,-0.76 9.48,-1.07 a 0.72,0.72 0 0 1 0.2,1.42 c -0.32,0.08 -7.69,1.08 -9.59,1.08 z"
     id="path2174" />
  <path
     class="cls-18"
     d="m 154.76,178.78164 a 0.7,0.7 0 0 1 -0.68,-0.5 0.71,0.71 0 0 1 0.46,-0.9 c 2.06,-0.66 9.3,-1.65 12.79,-2.12 0.88,-0.12 1.47,-0.2 1.59,-0.23 l 0.16,0.7 0.61,0.37 c -0.18,0.3 -0.18,0.3 -2.17,0.58 -3.17,0.43 -10.6,1.44 -12.54,2.06 a 0.6,0.6 0 0 1 -0.22,0.04 z"
     id="path2176" />
  <path
     class="cls-18"
     d="m 155.94,181.00164 a 0.71,0.71 0 0 1 -0.22,-1.39 c 2,-0.65 11.94,-2.22 12.36,-2.28 a 0.71,0.71 0 0 1 0.82,0.59 0.72,0.72 0 0 1 -0.6,0.82 c -0.1,0 -10.24,1.62 -12.14,2.23 a 0.83,0.83 0 0 1 -0.22,0.03 z"
     id="path2178" />
  <path
     class="cls-18"
     d="m 156.73,183.21164 a 0.72,0.72 0 0 1 -0.06,-1.43 c 2.25,-0.19 10.45,-1.46 10.53,-1.47 a 0.72,0.72 0 0 1 0.82,0.6 0.71,0.71 0 0 1 -0.6,0.81 c -0.34,0.06 -8.33,1.3 -10.63,1.49 z"
     id="path2180" />
  <path
     class="cls-18"
     d="m 158.26,185.93164 c -0.65,0 -0.79,-0.14 -0.91,-0.25 a 0.72,0.72 0 0 1 0.81,-1.16 70.58,70.58 0 0 0 9,-1.68 0.71431786,0.71431786 0 0 1 0.33,1.39 c -5.79,1.35 -8.18,1.7 -9.23,1.7 z"
     id="path2182" />
  <path
     class="cls-18"
     d="m 158.72,188.78164 a 0.75,0.75 0 0 1 -0.44,-0.1 0.72,0.72 0 0 1 0.54,-1.31 69.13,69.13 0 0 0 7.71,-2.23 0.72,0.72 0 0 1 0.91,0.46 0.71,0.71 0 0 1 -0.46,0.9 c -5.74,1.9 -7.57,2.28 -8.26,2.28 z"
     id="path2184" />
  <path
     class="cls-18"
     d="m 160.79,191.16164 v 0 a 0.72,0.72 0 0 1 0,-1.43 v 0 a 35.62,35.62 0 0 0 5.69,-2 0.72,0.72 0 0 1 0.52,1.27 c -1.16,0.51 -5.15,2.16 -6.21,2.16 z"
     id="path2186" />
  <path
     class="cls-18"
     d="m 162.46,193.86164 a 0.71,0.71 0 0 1 -0.65,-0.42 0.72,0.72 0 0 1 0.36,-0.95 l 4.3,-1.9 a 0.71,0.71 0 0 1 0.94,0.36 0.73,0.73 0 0 1 -0.36,1 l -4.3,1.9 a 0.72,0.72 0 0 1 -0.29,0.01 z"
     id="path2188" />
  <path
     class="cls-18"
     d="m 153.93,176.45164 a 0.72,0.72 0 0 1 -0.1,-1.43 l 12.83,-1.82 a 0.72,0.72 0 0 1 0.2,1.42 l -12.86,1.82 z"
     id="path2190" />
  <path
     class="cls-18"
     d="m 157.85,157.54164 a 0.69,0.69 0 0 1 -0.46,-0.18 0.7,0.7 0 0 1 -0.08,-1 40.55,40.55 0 0 1 24.07,-13.85 0.71449283,0.71449283 0 1 1 0.16,1.42 39.88,39.88 0 0 0 -23.15,13.36 0.72,0.72 0 0 1 -0.54,0.25 z"
     id="path2192" />
  <path
     class="cls-18"
     d="m 210.39,181.00164 v 0 a 0.71,0.71 0 0 1 -0.72,-0.71 c 0,-20.76 -12.13,-30.13 -12.25,-30.23 a 0.72,0.72 0 0 1 -0.15,-1 0.71,0.71 0 0 1 1,-0.14 c 0.53,0.39 12.85,9.9 12.83,31.37 a 0.71,0.71 0 0 1 -0.71,0.71 z"
     id="path2194" />
  <path
     class="cls-18"
     d="m 173.83,162.54164 a 0.69,0.69 0 0 1 -0.53,-0.24 c -0.73,-0.79 -3.61,-4 -3.61,-4 l 1.07,-0.95 c 0,0 2.87,3.21 3.59,4 a 0.71,0.71 0 0 1 0,1 0.7,0.7 0 0 1 -0.52,0.19 z"
     id="path2196" />
  <path
     class="cls-18"
     d="m 170.72,168.60164 a 0.69,0.69 0 0 1 -0.41,-0.13 72.68,72.68 0 0 1 -5.56,-5.53 0.71,0.71 0 0 1 0,-1 0.72,0.72 0 0 1 1,0 73.8,73.8 0 0 0 5.32,5.32 0.72,0.72 0 0 1 0.19,1 0.73,0.73 0 0 1 -0.54,0.34 z"
     id="path2198" />
  <path
     class="cls-18"
     d="m 176.47,158.53164 a 0.69,0.69 0 0 1 -0.28,-0.05 c -0.16,-0.06 -0.64,-0.25 -3.27,-3.35 a 0.72,0.72 0 0 1 1.09,-0.93 30.67,30.67 0 0 0 2.76,3 0.69,0.69 0 0 1 0.38,0.91 0.72,0.72 0 0 1 -0.68,0.42 z"
     id="path2200" />
  <path
     class="cls-18"
     d="m 177.25,157.00164 a 1,1 0 0 1 -0.25,0 7.39,7.39 0 0 1 -2.26,-2.48 0.72,0.72 0 1 1 1.18,-0.82 11.66,11.66 0 0 0 1.61,2 0.69,0.69 0 0 1 0.41,0.9 0.74,0.74 0 0 1 -0.69,0.4 z"
     id="path2202" />
  <path
     class="cls-18"
     d="m 158.65,169.17164 a 0.7,0.7 0 0 1 -0.7,-0.57 0.71,0.71 0 0 1 0.55,-0.84 l 2.83,-0.58 a 0.71486013,0.71486013 0 1 1 0.29,1.4 l -2.83,0.58 z"
     id="path2204" />
  <path
     class="cls-18"
     d="m 198.42,169.90164 a 0.56,0.56 0 0 1 -0.25,-0.05 c -0.61,-0.23 -5.3,-1.5 -8.3,-2.3 a 0.72,0.72 0 0 1 -0.51,-0.88 0.71,0.71 0 0 1 0.88,-0.5 c 0.77,0.2 7.56,2 8.44,2.35 a 0.71,0.71 0 0 1 -0.26,1.38 z"
     id="path2206" />
  <path
     class="cls-18"
     d="m 196.73,167.07164 a 0.71,0.71 0 0 1 -0.41,-0.13 c -0.33,-0.16 -3.28,-0.92 -5.92,-1.56 a 0.72,0.72 0 1 1 0.34,-1.39 43.46,43.46 0 0 1 6.4,1.78 0.71,0.71 0 0 1 -0.41,1.3 z"
     id="path2208" />
  <ellipse
     class="cls-18"
     cx="193.59"
     cy="161.28163"
     rx="0.60000002"
     ry="0.54000002"
     id="ellipse2210" />
  <ellipse
     class="cls-18"
     cx="179.36"
     cy="152.01163"
     rx="0.79000002"
     ry="0.41999999"
     id="ellipse2212" />
  <path
     class="cls-18"
     d="m 164.37,195.18164 a 0.72,0.72 0 0 1 -0.24,-1.39 l 1.86,-0.68 a 0.72,0.72 0 0 1 0.92,0.43 0.71,0.71 0 0 1 -0.43,0.92 l -1.86,0.68 a 0.73,0.73 0 0 1 -0.25,0.04 z"
     id="path2214" />
  <ellipse
     class="cls-18"
     cx="23.712759"
     cy="257.19757"
     rx="0.90395129"
     ry="0.47206348"
     transform="rotate(-35.272421)"
     id="ellipse2216"
     style="stroke-width:1.00439" />
  <path
     class="cls-18"
     d="m 182.42,192.91164 a 0.72,0.72 0 0 1 -0.3,-1.37 c 3.81,-1.72 14.08,-6.61 15.77,-8.48 a 0.72862885,0.72862885 0 1 1 1.06,1 c -2.2,2.43 -14.81,8.18 -16.24,8.83 a 0.79,0.79 0 0 1 -0.29,0.02 z"
     id="path2218" />
  <path
     class="cls-18"
     d="m 181.86,196.30164 a 0.71,0.71 0 0 1 -0.29,-1.36 c 4.41,-2 16.23,-7.73 18,-10.65 a 0.72,0.72 0 1 1 1.23,0.73 c -2.28,3.84 -16.94,10.48 -18.6,11.22 a 0.8,0.8 0 0 1 -0.34,0.06 z"
     id="path2220" />
  <path
     class="cls-18"
     d="m 181.86,198.78164 a 0.72,0.72 0 0 1 -0.64,-0.4 0.72,0.72 0 0 1 0.33,-1 c 8.37,-4 17.36,-9 17.95,-10.25 a 0.71,0.71 0 0 1 0.94,-0.36 0.73,0.73 0 0 1 0.36,0.95 c -1.09,2.38 -15.71,9.54 -18.63,11 a 0.67,0.67 0 0 1 -0.31,0.06 z"
     id="path2222" />
  <path
     class="cls-18"
     d="m 182.41,200.50164 a 0.72,0.72 0 0 1 -0.26,-1.38 c 6.77,-2.74 16.62,-7.34 17.34,-9 a 0.71431786,0.71431786 0 1 1 1.31,0.57 c -1.21,2.75 -15.3,8.58 -18.12,9.72 a 0.81,0.81 0 0 1 -0.27,0.09 z"
     id="path2224" />
  <path
     class="cls-18"
     d="m 184.73,201.66164 a 0.72,0.72 0 0 1 -0.26,-1.39 c 6.63,-2.58 13.88,-5.73 14.55,-6.53 a 0.69,0.69 0 0 1 1,-0.25 0.73,0.73 0 0 1 0.26,1 c -0.77,1.37 -10.93,5.44 -15.25,7.13 a 0.85,0.85 0 0 1 -0.3,0.04 z"
     id="path2226" />
  <path
     class="cls-18"
     d="m 211.56,174.00164 a 0.72,0.72 0 0 1 -0.71,-0.6 c -2.77,-17.32 -9.39,-22.3 -10,-22.71 a 0.7,0.7 0 0 1 -0.51,-0.66 0.74,0.74 0 0 1 0.65,-0.74 c 1.1,-0.06 8.42,6.07 11.27,23.88 a 0.72,0.72 0 0 1 -0.6,0.82 z"
     id="path2228" />
  <path
     class="cls-1"
     d="m 182.41,142.34164 a 29.88,29.88 0 1 1 -29.87,29.88 29.88,29.88 0 0 1 29.87,-29.88 m 0,-3.61 a 33.49,33.49 0 1 0 33.49,33.49 33.52,33.52 0 0 0 -33.49,-33.49 z"
     id="path2230" />
  <metadata
     id="metadata2611">
    <rdf:RDF>
      <cc:Work
         rdf:about="">
        <dc:title>Calico-logo</dc:title>
      </cc:Work>
    </rdf:RDF>
  </metadata>
</svg>
