<?xml version="1.0" encoding="UTF-8" standalone="no"?>
<svg
   width="42"
   height="42"
   viewBox="0 0 42 42"
   fill="none"
   class="lg:w-auto lg:h-8"
   version="1.1"
   id="svg22"
   sodipodi:docname="ebpf.svg"
   inkscape:version="1.2.2 (1:1.2.2+202212051552+b0a8486541)"
   xmlns:inkscape="http://www.inkscape.org/namespaces/inkscape"
   xmlns:sodipodi="http://sodipodi.sourceforge.net/DTD/sodipodi-0.dtd"
   xmlns="http://www.w3.org/2000/svg"
   xmlns:svg="http://www.w3.org/2000/svg">
  <defs
     id="defs26" />
  <sodipodi:namedview
     id="namedview24"
     pagecolor="#ffffff"
     bordercolor="#000000"
     borderopacity="0.25"
     inkscape:showpageshadow="2"
     inkscape:pageopacity="0.0"
     inkscape:pagecheckerboard="0"
     inkscape:deskcolor="#d1d1d1"
     showgrid="false"
     inkscape:zoom="10.737705"
     inkscape:cx="61"
     inkscape:cy="19.696947"
     inkscape:window-width="1920"
     inkscape:window-height="946"
     inkscape:window-x="0"
     inkscape:window-y="0"
     inkscape:window-maximized="1"
     inkscape:current-layer="svg22" />
  <g
     id="g365"
     transform="translate(0.34380204,-2.0381998e-4)">
    <path
       fill-rule="evenodd"
       clip-rule="evenodd"
       d="m 27.206,0.125 c 0.557,0.285 0.777,0.968 0.492,1.524 -0.563,1.1 -0.867,2.677 -0.984,4.298 -0.115,1.6 -0.038,3.115 0.08,4.006 a 1.1332062,1.1332062 0 1 1 -2.247,0.296 C 24.409,9.201 24.329,7.533 24.454,5.784 24.578,4.057 24.911,2.12 25.681,0.617 a 1.133,1.133 0 0 1 1.525,-0.492 z"
       fill="#1a1a1a"
       id="path2" />
    <path
       d="m 20.633,18.06 c 0.68,-3.231 -6.234,-3.759 -9.776,-3.618 -13.964,0.3 -8.127,8.861 -0.396,9.816 3.181,0.393 9.321,-2.158 10.171,-6.197 z"
       fill="#cfedfc"
       id="path4" />
    <path
       d="m 3.454,16.236 c 0.392,-0.323 0.9,-0.616 1.539,-0.867 l 0.199,0.626 1.013,1.283 1.483,1.345 1.14,-0.17 5.699,-0.59 5.99,0.64 a 5.64,5.64 0 0 1 -0.886,1.69 c -1.773,-0.356 -5.912,-0.46 -8.16,-0.465 -0.601,0.707 -0.819,3.11 -0.866,4.545 A 12.107,12.107 0 0 1 8.615,23.88 C 8.561,22.759 8.948,21.154 9.229,20.263 7.467,20.359 5.603,21.229 4.575,21.836 A 7.77,7.77 0 0 1 3.357,20.63 L 5.642,19.375 C 5.289,19.196 4.175,17.438 3.454,16.236 Z"
       fill="#00ace6"
       id="path6" />
    <path
       d="M 19.448,21.96 21.5,23.35 12.223,37.074 9.994,35.567 8.282,33.042 7.425,28.873 8.96,25.21 l 3.684,1.124 6.803,-4.373 z"
       fill="#ffe100"
       id="path8" />
    <path
       fill-rule="evenodd"
       clip-rule="evenodd"
       d="m 17.581,12.836 c 2.752,-5.934 9.447,-4.479 12.608,-2.341 l -8.688,12.854 -0.997,-0.675 c -1.266,1.469 -3.852,2.58 -4.987,2.952 0.116,1.65 1.5,2.923 2.178,3.353 l -2.854,4.223 C 11.509,30.949 10.536,27.728 10.466,26.398 L 9.229,26.331 c -2.183,4.95 1.24,8.787 3.352,10.214 L 8.894,42 9.535,36.879 C 5.379,33.316 6.123,27.934 7.015,25.688 4.151,25.119 -0.819,20.965 0.115,17.434 1.74,11.286 12.407,11.388 17.581,12.836 Z m 3.055,5.204 c 0.647,-3.214 -6.245,-3.738 -9.78,-3.598 -2.247,0.048 -3.981,0.31 -5.277,0.72 0.576,1.792 1.914,2.683 2.563,2.914 4.099,-0.932 9.42,-0.502 12.494,-0.036 z m -0.259,0.849 c -2.143,-0.279 -5.337,-0.35 -6.994,-0.346 -2.25,1.536 -2.54,4.127 -2.348,5.754 3.048,0.052 7.988,-2.073 9.342,-5.408 z m -10.37,5.304 c -0.411,-2.356 0.913,-4.58 1.725,-5.485 -4.168,0.16 -6.795,1.342 -8.078,2.27 1.373,1.503 3.731,2.788 6.353,3.215 z M 2.924,20.006 C 3.954,19.376 5.8,18.798 6.804,18.538 5.352,17.453 4.718,16.319 4.494,15.585 2.223,16.677 1.965,18.387 2.924,20.006 Z M 40.923,9.401 a 1.133,1.133 0 0 0 -1.598,0.111 c -0.81,0.932 -2.16,1.803 -3.62,2.515 -1.442,0.703 -2.876,1.196 -3.747,1.419 a 1.1330263,1.1330263 0 1 0 0.563,2.195 c 1.024,-0.262 2.601,-0.81 4.176,-1.578 1.557,-0.758 3.23,-1.79 4.338,-3.064 0.41,-0.472 0.36,-1.187 -0.112,-1.598 z"
       fill="#1a1a1a"
       id="path10" />
    <path
       d="m 26.732,22.185 c 2.745,-1.836 5.81,4.385 7,7.725 4.925,13.072 -5.193,10.845 -8.96,4.025 -1.55,-2.806 -1.472,-9.455 1.96,-11.75 z"
       fill="#cfedfc"
       id="path12" />
    <path
       d="m 34.826,37.45 c 0.154,-0.484 0.236,-1.066 0.23,-1.751 l -0.653,0.048 -1.569,-0.462 -1.8,-0.876 -0.268,-1.121 -1.576,-5.51 -2.826,-5.32 a 5.643,5.643 0 0 0 -1.237,1.451 c 0.99,1.513 2.63,5.316 3.472,7.4 -0.432,0.822 -2.58,1.92 -3.895,2.499 l 0.068,0.127 c 0.308,0.557 0.657,1.083 1.038,1.573 1.062,-0.367 2.406,-1.325 3.128,-1.918 0.567,1.671 0.454,3.726 0.275,4.906 0.53,0.298 1.06,0.528 1.572,0.68 l 0.313,-2.587 c 0.298,0.26 2.344,0.64 3.728,0.861 z"
       fill="#00ace6"
       id="path14" />
    <path
       d="m 23.554,24.737 -2.053,-1.388 -9.276,13.724 2.229,1.507 2.98,0.648 4.188,-0.757 2.825,-2.79 -2.416,-3 z"
       fill="#ffe100"
       id="path16" />
    <path
       fill-rule="evenodd"
       clip-rule="evenodd"
       d="m 32.716,23.07 c 4.48,-4.766 0.635,-10.438 -2.526,-12.575 l -8.69,12.854 0.998,0.674 c -0.891,1.722 -0.958,4.537 -0.881,5.728 -1.574,0.508 -3.27,-0.303 -3.922,-0.772 l -2.855,4.223 c 3.332,2.253 6.684,1.956 7.943,1.526 l 0.523,1.122 c -3.779,3.871 -8.614,2.123 -10.725,0.695 L 8.895,42 13.407,39.496 c 4.854,2.53 9.57,-0.165 11.323,-1.83 1.594,2.446 7.3,5.51 10.229,3.328 5.098,-3.8 1.029,-13.661 -2.243,-17.925 z m -5.967,-0.896 c 2.74,-1.798 5.796,4.403 6.984,7.736 0.792,2.103 1.195,3.81 1.298,5.166 -1.878,0.133 -3.203,-0.777 -3.66,-1.293 -0.662,-4.151 -3.044,-8.93 -4.622,-11.61 z m -0.69,0.556 c 1.056,1.886 2.313,4.823 2.927,6.363 -0.587,2.661 -2.883,3.895 -4.464,4.323 -1.184,-2.81 -1.054,-8.186 1.536,-10.686 z M 25,34.33 c 2.34,-0.496 3.91,-2.553 4.446,-3.644 1.405,3.927 1.287,6.806 0.904,8.343 C 28.444,38.315 26.374,36.605 25,34.33 Z m 6.524,5.014 c 0.2,-1.19 0.05,-3.12 -0.084,-4.148 1.549,0.943 2.837,1.109 3.6,1.044 -0.166,2.514 -1.656,3.39 -3.516,3.105 z"
       fill="#1a1a1a"
       id="path18"
       sodipodi:nodetypes="cccccccccccccccccccccccccccccccccccc" />
  </g>
</svg>
