<?xml version="1.0" encoding="UTF-8" standalone="no"?>
<svg
   xml:space="preserve"
   viewBox="0 0 72 72"
   version="1.1"
   id="svg3"
   sodipodi:docname="facebook.svg"
   inkscape:version="1.3 (1:1.3+202307231459+0e150ed6c4)"
   width="72"
   height="72"
   xmlns:inkscape="http://www.inkscape.org/namespaces/inkscape"
   xmlns:sodipodi="http://sodipodi.sourceforge.net/DTD/sodipodi-0.dtd"
   xmlns="http://www.w3.org/2000/svg"
   xmlns:svg="http://www.w3.org/2000/svg"><defs
   id="defs3" /><sodipodi:namedview
   id="namedview3"
   pagecolor="#ffffff"
   bordercolor="#000000"
   borderopacity="0.25"
   inkscape:showpageshadow="2"
   inkscape:pageopacity="0.0"
   inkscape:pagecheckerboard="0"
   inkscape:deskcolor="#d1d1d1"
   inkscape:zoom="17.67767"
   inkscape:cx="15.528065"
   inkscape:cy="25.512412"
   inkscape:window-width="1920"
   inkscape:window-height="946"
   inkscape:window-x="0"
   inkscape:window-y="27"
   inkscape:window-maximized="1"
   inkscape:current-layer="svg3" />&#10;  <linearGradient
   id="a"
   x1="-277.375"
   x2="-277.375"
   y1="406.60181"
   y2="407.5726"
   gradientTransform="matrix(40,0,0,-39.7778,11115.001,16212.334)"
   gradientUnits="userSpaceOnUse">&#10;    <stop
   offset="0"
   stop-color="#0062e0"
   id="stop1" />&#10;    <stop
   offset="1"
   stop-color="#19afff"
   id="stop2" />&#10;  </linearGradient>&#10;  <path
   id="path2"
   style="fill:#f9f9f9;stroke-width:1.8"
   d="m 36,0.17929 c -19.79998,0 -36,16.20002 -36,36 0,17.819982 12.958611,32.581409 30.058594,35.641406 l 0.217968,-0.175788 c -0.01188,-0.0022 -0.02335,-0.0049 -0.03515,-0.007 V 46.25859 h -9 v -10.0793 h 9 v -7.920704 c 0,-8.999991 5.757899,-14.03789 14.03789,-14.03789 2.519998,0 5.400706,0.357188 7.920704,0.717188 v 9.182812 H 47.52071 c -4.319997,0 -5.4,2.157894 -5.4,5.03789 V 36.17929 H 51.6586 L 50.041412,46.258586 H 42.12071 v 25.379298 c -0.112266,0.02041 -0.22524,0.03348 -0.3375,0.05274 l 0.158202,0.130086 C 59.04139,68.760699 72,53.999272 72,36.17929 c 0,-19.79998 -16.20002,-36 -36,-36 z" />&#10;  &#10;</svg>
