<?xml version="1.0" encoding="UTF-8" standalone="no"?>
<svg
   width="72"
   height="72"
   viewBox="0 0 72 72"
   version="1.1"
   id="svg1"
   sodipodi:docname="github.svg"
   inkscape:version="1.3 (1:1.3+202307231459+0e150ed6c4)"
   xmlns:inkscape="http://www.inkscape.org/namespaces/inkscape"
   xmlns:sodipodi="http://sodipodi.sourceforge.net/DTD/sodipodi-0.dtd"
   xmlns="http://www.w3.org/2000/svg"
   xmlns:svg="http://www.w3.org/2000/svg">
  <defs
     id="defs1" />
  <sodipodi:namedview
     id="namedview1"
     pagecolor="#ffffff"
     bordercolor="#000000"
     borderopacity="0.25"
     inkscape:showpageshadow="2"
     inkscape:pageopacity="0.0"
     inkscape:pagecheckerboard="0"
     inkscape:deskcolor="#d1d1d1"
     inkscape:zoom="20.833333"
     inkscape:cx="11.976"
     inkscape:cy="12"
     inkscape:window-width="1920"
     inkscape:window-height="946"
     inkscape:window-x="0"
     inkscape:window-y="27"
     inkscape:window-maximized="1"
     inkscape:current-layer="svg1" />
  <path
     d="m 36,0.88765125 c -19.878,0 -36,16.11899975 -36,35.99999975 0,15.906 10.314,29.4 24.621,34.161 1.797,0.333 2.379,-0.783 2.379,-1.731 v -6.702 c -10.014,2.178 -12.099,-4.248 -12.099,-4.248 -1.638,-4.161 -3.999,-5.268 -3.999,-5.268 -3.267,-2.235 0.249,-2.187 0.249,-2.187 3.615,0.252 5.517,3.711 5.517,3.711 3.21,5.502 8.421,3.912 10.476,2.991 0.321,-2.325 1.254,-3.915 2.286,-4.812 -7.995,-0.915 -16.401,-4.002 -16.401,-17.793 0,-3.933 1.407,-7.143 3.708,-9.663 -0.372,-0.909 -1.605,-4.572 0.351,-9.528 0,0 3.024,-0.966 9.903,3.69 2.871,-0.798 5.949,-1.197 9.009,-1.212 3.06,0.015 6.141,0.414 9.018,1.212 6.873,-4.656 9.891,-3.69 9.891,-3.69 1.959,4.959 0.726,8.622 0.354,9.528 2.31,2.52 3.705,5.733 3.705,9.663 0,13.827 -8.421,16.872 -16.437,17.763 1.29,1.116 2.469,3.306 2.469,6.666 v 9.879 c 0,0.957 0.576,2.082 2.403,1.728 C 61.698,66.278651 72,52.787651 72,36.887651 72,17.006651 55.881,0.88765125 36,0.88765125 Z"
     id="path1"
     style="fill:#ffffff;stroke-width:3" />
</svg>
