<?xml version="1.0" encoding="UTF-8" ?>
<!DOCTYPE svg PUBLIC "-//W3C//DTD SVG 1.1//EN" "http://www.w3.org/Graphics/SVG/1.1/DTD/svg11.dtd">
<svg width="256pt" height="256pt" viewBox="0 0 256 256" version="1.1" xmlns="http://www.w3.org/2000/svg">
<g id="#000000ff">
<path fill="#000000" opacity="1.00" d=" M 91.04 18.53 C 101.23 18.39 111.09 15.41 121.01 13.49 C 129.68 14.65 137.97 17.95 146.72 18.61 C 151.56 19.41 156.29 20.99 160.57 23.40 C 168.19 27.83 177.29 29.86 183.59 36.40 C 192.01 45.30 201.24 53.55 208.34 63.63 C 210.97 67.27 212.36 72.10 216.44 74.50 C 221.93 77.57 227.94 79.57 233.51 82.49 C 237.41 84.37 238.76 88.80 240.72 92.32 C 244.49 99.18 247.36 106.47 250.31 113.71 C 251.49 116.71 253.20 119.63 253.25 122.95 C 253.54 130.97 252.82 138.99 253.27 147.01 C 253.23 150.40 253.80 154.06 252.16 157.19 C 248.48 164.75 242.05 171.24 234.02 174.03 C 229.75 175.80 226.65 179.46 222.52 181.47 C 220.36 182.15 218.06 182.16 215.83 182.43 C 215.69 183.76 215.56 185.09 215.43 186.42 C 209.11 189.60 202.22 191.34 195.64 193.87 C 195.37 199.14 195.68 204.41 195.65 209.67 C 194.55 211.36 192.91 212.60 191.55 214.06 C 193.75 216.23 196.75 217.23 199.07 219.21 C 199.07 220.53 198.89 221.83 198.76 223.14 C 191.99 225.07 185.37 227.50 178.64 229.58 C 176.56 230.47 174.70 228.67 172.82 228.02 C 172.53 225.30 173.23 222.06 171.04 219.96 C 166.60 215.31 162.44 210.01 156.42 207.35 C 157.41 203.73 159.41 200.51 160.84 197.06 C 157.50 197.62 154.16 198.20 150.81 198.72 C 149.68 195.96 148.09 193.12 148.66 190.04 C 149.36 183.92 150.70 177.89 151.86 171.85 C 153.23 167.01 148.91 163.49 146.83 159.63 C 149.38 158.22 152.02 156.99 154.63 155.70 C 152.77 153.71 150.57 152.03 148.97 149.81 C 149.11 147.13 150.21 144.63 150.93 142.08 C 146.51 142.07 142.08 142.10 137.67 141.84 C 137.62 138.59 137.38 135.33 137.73 132.09 C 139.13 131.10 140.75 130.48 142.28 129.73 C 141.78 127.94 141.26 126.15 140.78 124.35 C 142.52 123.57 144.27 122.80 146.03 122.06 C 145.73 120.40 145.35 118.75 145.21 117.07 C 146.22 115.76 147.48 114.69 148.65 113.54 C 148.76 112.15 148.87 110.76 148.98 109.36 C 147.65 109.52 146.33 109.68 145.00 109.83 C 144.52 107.62 144.07 105.41 143.63 103.20 C 139.31 100.87 134.87 98.77 130.51 96.51 C 126.95 94.53 122.76 94.79 118.83 94.41 C 114.96 93.94 112.65 97.86 110.14 100.15 C 111.78 100.58 113.42 100.99 115.06 101.40 C 115.15 101.97 115.34 103.10 115.43 103.67 C 112.67 103.99 109.94 104.49 107.28 105.30 C 114.94 107.60 122.60 109.95 129.84 113.40 C 129.88 113.88 129.96 114.86 130.00 115.35 C 124.37 116.01 118.73 116.69 113.06 116.27 C 112.46 113.72 111.92 111.15 111.40 108.59 C 107.27 108.03 103.48 109.78 100.12 111.99 C 101.09 110.70 102.06 109.40 103.01 108.10 C 100.22 105.47 100.94 101.47 99.75 98.17 C 97.94 96.17 95.61 94.75 93.74 92.81 C 96.38 90.90 99.55 89.96 102.41 88.43 C 107.21 85.64 112.86 87.58 118.07 87.28 C 125.49 86.68 131.74 91.53 138.89 92.51 C 138.74 89.93 138.47 87.36 138.13 84.80 C 139.86 84.03 141.60 83.28 143.36 82.59 C 142.17 84.56 140.84 86.44 139.54 88.33 C 142.11 89.24 144.70 90.13 147.30 90.98 C 144.69 93.26 143.33 96.47 143.66 99.95 C 145.35 98.92 147.21 97.98 148.46 96.38 C 149.00 93.57 148.72 90.68 148.86 87.84 C 150.74 87.45 154.29 88.75 154.24 85.78 C 154.66 82.52 152.76 79.77 149.41 79.42 C 150.22 77.25 150.49 74.78 151.94 72.92 C 154.74 71.48 157.89 70.79 160.52 69.00 C 159.79 67.73 158.93 66.54 158.09 65.34 C 155.52 66.01 152.94 66.89 150.26 66.80 C 147.80 66.28 145.67 64.84 143.47 63.69 C 143.18 59.53 143.51 55.32 142.98 51.17 C 140.77 47.10 135.77 45.44 131.37 45.34 C 133.71 47.16 136.43 48.39 139.11 49.62 C 138.44 51.02 137.76 52.42 137.07 53.81 C 133.48 51.96 129.79 48.91 125.58 51.08 C 124.65 50.08 123.73 49.08 122.79 48.09 C 120.74 49.58 118.64 51.05 116.80 52.82 C 114.45 55.03 113.27 58.50 110.00 59.64 C 110.86 55.71 112.56 52.05 113.57 48.17 C 108.83 47.56 103.56 48.38 99.34 45.66 C 96.69 44.09 95.58 41.05 94.11 38.52 C 95.78 38.52 97.46 38.53 99.13 38.55 C 99.14 36.92 99.15 35.29 99.14 33.66 C 98.20 34.42 97.27 35.19 96.34 35.95 C 96.01 34.20 95.67 32.45 95.29 30.71 C 92.46 33.23 90.54 36.50 89.31 40.05 C 88.36 38.68 87.41 37.31 86.43 35.96 C 83.69 38.42 79.93 39.69 77.86 42.87 C 76.66 44.70 75.63 46.68 75.07 48.80 C 75.92 49.68 76.81 50.51 77.74 51.31 C 77.22 52.68 76.70 54.05 76.18 55.42 C 73.03 53.68 70.21 51.35 66.91 49.91 C 64.10 50.44 63.18 53.68 62.31 56.00 C 63.89 57.84 66.27 58.60 68.34 59.73 C 67.95 62.85 66.68 65.74 65.06 68.42 C 63.78 66.87 62.55 65.30 61.28 63.75 C 60.64 68.12 59.68 72.46 57.83 76.49 C 65.04 80.24 71.40 85.88 75.20 93.13 C 75.55 98.00 75.65 102.96 75.10 107.82 C 72.71 113.82 69.02 119.22 65.82 124.82 C 65.01 119.48 66.86 114.29 67.24 109.01 C 63.98 107.50 60.62 106.24 57.33 104.83 C 57.16 102.85 56.98 100.87 56.80 98.89 C 55.50 98.84 54.19 98.79 52.89 98.75 C 53.36 100.83 53.86 102.91 54.32 105.00 C 50.99 103.75 47.72 102.06 44.08 102.01 C 42.89 106.23 41.36 110.48 41.76 114.95 C 42.26 128.21 42.58 141.47 43.34 154.70 C 44.37 154.77 45.40 154.84 46.43 154.91 C 46.43 160.95 46.53 167.00 46.60 173.04 C 46.45 175.55 48.57 177.28 49.63 179.36 C 51.66 182.32 51.02 186.04 51.60 189.39 C 53.17 190.60 55.10 191.22 56.72 192.36 C 57.63 194.26 57.70 196.41 57.90 198.48 C 53.84 194.41 49.85 190.13 46.86 185.20 C 42.86 175.79 38.90 165.96 39.43 155.52 C 37.75 155.96 36.07 156.43 34.39 156.88 C 31.40 153.31 27.37 150.84 23.04 149.21 C 23.52 148.17 24.01 147.13 24.49 146.09 C 23.16 144.06 21.87 142.01 20.62 139.93 C 22.21 138.71 23.79 137.48 25.34 136.22 C 24.15 135.45 22.96 134.68 21.77 133.91 C 20.50 135.09 19.32 136.39 17.87 137.36 C 14.24 137.15 9.95 136.31 8.63 132.41 C 6.68 131.06 4.80 129.59 2.81 128.30 C 5.03 122.83 6.44 117.04 6.11 111.10 C 7.24 111.24 8.37 111.39 9.50 111.53 C 8.49 107.33 6.26 103.45 5.83 99.13 C 6.74 96.53 8.70 94.48 10.02 92.10 C 12.15 89.00 10.61 84.11 14.65 82.36 C 13.39 77.78 16.49 73.80 18.12 69.76 C 19.61 70.13 21.11 70.50 22.61 70.83 C 24.65 67.67 26.33 64.28 27.46 60.68 C 25.38 61.51 23.34 62.44 21.26 63.27 C 23.02 60.47 25.30 58.06 27.88 56.01 C 26.38 53.52 25.01 50.95 23.77 48.32 C 25.97 49.09 28.11 50.01 30.29 50.84 C 29.95 49.22 29.57 47.60 29.19 45.98 C 31.61 43.37 34.04 40.77 36.38 38.10 C 38.54 38.67 40.70 39.25 42.87 39.77 C 42.95 38.15 43.02 36.52 43.09 34.90 C 46.80 34.17 49.58 31.60 51.82 28.72 C 51.86 29.77 51.93 31.89 51.96 32.95 C 54.65 30.53 55.99 26.96 58.61 24.55 C 64.36 21.90 70.47 19.36 76.93 19.47 C 81.65 19.48 86.32 18.70 91.04 18.53 M 46.29 93.97 C 49.85 93.67 53.41 93.05 56.98 93.35 C 60.03 93.57 62.76 95.06 65.60 96.05 C 65.50 89.10 60.24 81.63 53.15 80.72 C 50.25 84.77 48.50 89.52 46.29 93.97 M 147.24 133.29 C 148.69 134.68 149.88 136.55 151.88 137.19 C 154.60 134.32 156.52 130.68 157.03 126.74 C 153.75 128.89 150.70 131.41 147.24 133.29 M 10.22 131.11 C 11.69 132.18 13.20 133.20 14.71 134.21 C 14.59 132.92 14.46 131.62 14.32 130.33 C 12.95 130.57 11.58 130.83 10.22 131.11 M 154.37 183.47 C 152.93 187.40 157.66 189.11 160.31 190.69 C 160.34 185.50 161.97 179.44 158.91 174.84 C 154.89 175.20 155.03 180.45 154.37 183.47 Z" />
<path fill="#000000" opacity="1.00" d=" M 131.12 66.92 C 135.48 66.18 139.91 66.59 144.29 66.90 C 145.40 71.16 142.66 74.60 140.37 77.84 C 141.99 77.71 143.62 77.56 145.24 77.41 C 144.92 78.43 144.60 79.45 144.28 80.47 C 141.17 81.60 138.00 82.57 134.76 83.29 C 134.42 81.90 134.02 80.52 133.82 79.11 C 136.35 76.68 139.34 74.74 141.59 72.00 C 138.88 72.25 136.20 72.73 133.50 73.04 C 134.68 71.53 135.96 70.09 137.24 68.66 C 135.05 68.64 132.80 68.52 131.12 66.92 Z" />
<path fill="#000000" opacity="1.00" d=" M 118.25 102.78 C 123.69 103.24 128.72 105.82 133.14 108.89 C 134.61 109.71 134.68 111.37 134.77 112.86 C 128.61 110.92 122.40 107.88 118.25 102.78 Z" />
<path fill="#000000" opacity="1.00" d=" M 56.82 139.10 C 58.51 135.40 61.26 132.28 63.98 129.29 C 62.83 134.47 60.98 139.51 60.70 144.86 C 68.37 145.22 76.04 144.54 83.70 144.75 C 83.18 146.44 82.61 148.11 82.02 149.78 C 73.26 149.53 64.83 151.96 56.23 153.14 C 56.70 148.47 56.12 143.74 56.82 139.10 Z" />
<path fill="#000000" opacity="1.00" d=" M 57.65 162.74 C 63.98 163.93 70.61 164.54 76.44 167.49 C 79.51 168.84 82.71 169.88 85.63 171.55 C 77.11 177.32 65.39 176.83 57.10 170.81 C 57.13 168.11 57.30 165.42 57.65 162.74 Z" />
<path fill="#000000" opacity="1.00" d=" M 60.83 201.21 C 65.89 201.47 70.62 203.61 75.57 204.55 C 82.94 207.01 90.80 206.03 98.42 206.40 C 94.43 209.06 89.72 210.27 85.55 212.58 C 83.31 213.73 83.32 216.54 82.68 218.66 C 81.06 223.75 84.60 228.43 85.92 233.15 C 84.71 233.41 82.30 233.91 81.09 234.16 C 82.58 235.55 84.05 237.03 85.90 237.95 C 88.59 236.56 91.10 234.83 93.82 233.49 C 93.42 235.01 93.00 236.52 92.58 238.04 C 93.58 238.39 94.58 238.74 95.58 239.09 C 96.35 236.39 97.21 233.72 98.24 231.11 C 99.91 233.51 101.24 236.15 101.74 239.06 C 97.27 240.68 92.60 241.69 87.93 242.51 C 84.73 243.29 82.26 240.81 79.93 239.05 C 75.09 235.79 75.27 229.18 74.53 224.01 C 75.92 221.30 78.58 219.49 79.93 216.78 C 80.39 214.32 80.26 211.77 79.82 209.32 C 73.67 206.18 66.16 205.97 60.83 201.21 Z" />
<path fill="#000000" opacity="1.00" d=" M 152.00 213.73 C 150.69 211.03 151.36 208.32 152.99 205.92 C 154.71 208.43 156.02 211.18 157.23 213.96 C 155.49 213.90 153.74 213.82 152.00 213.73 Z" />
<path fill="#000000" opacity="1.00" d=" M 144.85 213.45 C 146.60 214.18 151.10 212.86 150.11 215.93 C 148.65 216.64 147.09 217.12 145.55 217.64 C 145.38 216.59 145.02 214.50 144.85 213.45 Z" />
<path fill="#000000" opacity="1.00" d=" M 137.31 222.40 C 137.75 220.39 136.30 216.96 139.09 216.38 C 140.81 217.95 142.08 219.93 143.43 221.81 C 141.43 222.30 139.37 222.46 137.31 222.40 Z" />
<path fill="#000000" opacity="1.00" d=" M 128.37 225.81 C 127.21 223.82 129.82 222.78 130.83 221.45 C 131.66 223.01 132.52 224.57 133.20 226.21 C 131.59 226.41 129.89 226.49 128.37 225.81 Z" />
<path fill="#000000" opacity="1.00" d=" M 111.23 235.13 C 112.05 231.65 113.76 228.45 116.62 226.24 C 116.89 229.27 116.95 232.32 116.99 235.36 C 115.07 235.31 113.14 235.23 111.23 235.13 Z" />
<path fill="#000000" opacity="1.00" d=" M 120.51 228.68 C 121.32 228.54 122.92 228.27 123.72 228.14 C 122.50 229.67 121.11 231.05 119.66 232.37 C 119.90 231.13 120.18 229.90 120.51 228.68 Z" />
<path fill="#000000" opacity="1.00" d=" M 104.16 233.27 C 104.85 233.20 106.24 233.06 106.93 232.98 C 106.87 233.72 106.76 235.20 106.70 235.94 C 106.09 235.91 104.86 235.84 104.25 235.81 C 104.23 235.17 104.18 233.91 104.16 233.27 Z" />
<path fill="#000000" opacity="1.00" d=" M 108.05 235.85 C 109.59 235.23 110.57 237.84 108.88 238.25 C 107.32 238.88 106.37 236.28 108.05 235.85 Z" />
</g>
</svg>
