<?xml version="1.0" encoding="UTF-8" standalone="no"?>
<svg
   width="256pt"
   height="256pt"
   viewBox="0 0 256 256"
   version="1.1"
   id="svg8087"
   sodipodi:docname="ida.svg"
   inkscape:version="1.2.2 (1:1.2.2+202212051552+b0a8486541)"
   xmlns:inkscape="http://www.inkscape.org/namespaces/inkscape"
   xmlns:sodipodi="http://sodipodi.sourceforge.net/DTD/sodipodi-0.dtd"
   xmlns="http://www.w3.org/2000/svg"
   xmlns:svg="http://www.w3.org/2000/svg">
  <defs
     id="defs8091" />
  <sodipodi:namedview
     id="namedview8089"
     pagecolor="#ffffff"
     bordercolor="#000000"
     borderopacity="0.25"
     inkscape:showpageshadow="2"
     inkscape:pageopacity="0.0"
     inkscape:pagecheckerboard="0"
     inkscape:deskcolor="#d1d1d1"
     inkscape:document-units="pt"
     showgrid="false"
     inkscape:zoom="2.3085938"
     inkscape:cx="215.28257"
     inkscape:cy="171.31641"
     inkscape:window-width="1920"
     inkscape:window-height="946"
     inkscape:window-x="0"
     inkscape:window-y="0"
     inkscape:window-maximized="1"
     inkscape:current-layer="svg8087" />
  <g
     id="g8887">
    <path
       style="fill:#ffffff;stroke-width:0.75;paint-order:markers fill stroke"
       d="m 99.51709,26.520996 c -4.53418,0.550293 -9.068359,1.100586 -13.602539,1.650879 -18.596899,17.683096 -37.043914,36.608286 -48.461426,59.882813 -0.157883,14.074782 -1.135671,28.221072 -0.785228,42.251532 3.383239,16.65354 6.279233,33.4269 11.64372,49.59321 1.232913,5.15888 2.692845,10.20089 6.704406,13.92927 3.46318,3.78235 6.132825,9.1922 11.791299,9.66215 5.633236,1.67021 11.266473,3.34041 16.899709,5.01061 -2.696414,9.50055 -4.760283,19.43417 -3.339843,29.32471 5.512594,0.83523 11.122198,4.74877 16.510775,1.64872 11.856337,-4.18782 24.182217,-7.43866 35.744377,-12.21353 10.11677,-7.07313 20.23355,-14.14625 30.35032,-21.21937 -0.0915,-13.17431 0.42408,-26.44912 -0.0431,-39.56126 -2.16516,-7.03418 -5.37582,-14.0254 -6.89016,-21.08634 2.0972,-8.19527 4.19441,-16.39053 6.29161,-24.5858 -2.4336,-6.51024 -6.12675,-12.9446 -7.7998,-19.50066 3.56869,-12.183502 7.04517,-24.392236 10.10254,-36.715645 -5.1946,-6.207017 -9.79798,-13.215698 -15.35111,-18.936574 C 132.69415,39.277473 116.10562,32.899234 99.51709,26.520996 Z"
       id="path8621" />
    <g
       id="#000000ff">
      <path
         fill="#000000"
         opacity="1"
         d="m 91.04,18.53 c 11.85146,0.737811 23.18089,-6.089465 34.81233,-4.193306 12.4704,3.987892 26.3645,3.251809 37.63619,10.625552 10.97892,4.07312 20.79903,10.426307 28.14281,19.666758 10.10979,8.430404 16.32846,20.322825 24.80867,29.870996 10.8894,4.694626 23.02625,8.922398 26.31216,21.720938 4.43323,11.057422 11.80419,21.868292 10.54034,34.247812 -1.41264,10.71906 3.19511,23.06872 -4.39016,32.14953 -5.74964,9.26875 -17.1181,11.14849 -24.87757,18.02754 -6.03957,1.13931 -8.22431,2.55321 -10.98977,6.90354 -9.76056,3.42207 -21.70775,5.0497 -17.41188,18.17392 1.10661,6.0892 -8.30683,9.35183 1.6025,12.15188 6.0587,8.73442 -14.29746,8.55433 -20.10812,11.92796 -6.95102,-3.0706 -5.6118,-14.72105 -14.59684,-18.52037 -8.72441,-2.47397 -4.59522,-8.51043 -1.68066,-14.22275 -20.86091,7.26264 -7.50884,-19.70489 -9.42104,-30.18566 -5.17934,-5.56588 -4.61778,-9.28748 3.21104,-11.17434 -7.62093,-2.46318 -3.40869,-11.48135 -5.35791,-13.62252 -8.07881,1.15385 -14.82356,-0.10455 -11.54209,-9.98748 8.22952,-1.08373 -0.69871,-9.66772 8.3,-10.03 -2.26167,-6.65415 7.43051,-12.494 -1.38469,-13.8875 C 142.336,98.437182 128.21426,95.046052 118.83,94.41 c -4.34764,-0.305851 -12.87848,7.63335 -3.77,6.99 2.12407,4.65163 -13.80487,2.64618 -3.47402,5.20594 5.56609,1.60628 27.19328,8.04329 12.075,9.43593 -6.68088,1.39685 -13.04325,0.91149 -12.26098,-7.45187 -4.33538,-2.23 -15.372788,7.41244 -8.39,-0.49 -3.048739,-5.41875 -2.72373,-12.194886 -9.27,-15.29 11.61056,-8.486997 27.35095,-6.903837 39.92391,-1.615 7.63356,6.530009 3.91506,-13.139397 8.78,-7.142812 -8.91494,7.03033 10.77763,4.136658 1.93359,10.962812 -2.67328,10.75236 8.07374,-1.862125 4.4825,-7.175 9.80296,1.825585 2.91265,-8.44149 1.08313,-10.089531 -0.78675,-6.841342 17.51872,-8.787082 6.21609,-11.887031 -12.77688,5.054406 -13.17702,-7.7031 -14.13213,-16.108379 -3.50009,-5.01289 -16.28027,-5.548248 -4.92803,-1.066778 5.02771,4.987304 -3.46081,5.100423 -6.98004,1.814102 -6.33872,-0.446797 -10.23313,-3.437091 -14.91308,4.155273 -6.50158,9.501062 -4.64711,0.556991 -2.04405,-5.042011 C 109.68078,46.273415 95.404323,48.961543 94.11,38.52 c 6.07338,4.001401 7.00404,-8.673495 2.23,-2.57 C 95.183098,21.029525 89.519894,48.179156 86.43,35.96 77.664966,39.867598 74.895876,47.417431 76.535146,54.484327 73.592448,52.767148 59.794251,46.65286 63.627656,57.200156 72.7396,57.785172 64.999866,74.509052 61.28,63.75 58.614302,72.590375 56.717634,78.522296 66.661843,82.473701 76.302847,89.04451 78.009956,102.29014 73.091719,112.22 70.05677,118.26294 63.380341,130.64585 66.08375,116.8925 72.706156,105.52633 54.472648,109.10702 56.8,98.89 c -8.260478,-2.910124 2.200547,11.05045 -7.48375,4.165 -12.185157,-2.38313 -5.965885,18.89379 -7.036992,26.81092 -0.170281,11.16676 0.625867,22.17519 4.167461,29.57564 -0.554304,12.41339 2.072483,26.69663 10.813437,34.38516 1.895964,10.03001 -11.698508,-8.76609 -12.616604,-13.96539 -5.068665,-6.5414 -2.764585,-21.73809 -7.733552,-23.66508 -3.851609,0.1393 -12.294288,-5.88326 -13.145,-8.54625 0.502908,-4.52338 -6.118863,-8.75724 1.575,-11.43 -4.977663,-5.55047 -10.866073,6.47857 -16.0828711,-2.48619 C -1.1308482,128.94342 7.3150159,120.07523 6.11,111.1 14.413132,112.00663 0.01753473,98.010895 8.9364063,93.836875 15.101543,86.018106 12.457216,69.481586 23.357754,69.634258 26.718768,64.559908 29.472092,57.738576 21.26,63.27 c 5.177046,-5.078498 8.003147,-8.737958 2.51,-14.95 3.970046,1.653182 8.648659,4.294093 5.42,-2.34 3.892528,-4.516183 7.306017,-10.1021 13.68,-6.21 -2.518055,-4.694894 9.680702,-11.356327 9.02375,-8.93875 1.519411,3.703229 6.834388,-10.272534 13.336348,-9.082148 C 73.448147,18.516808 82.437794,19.66991 91.04,18.53 Z M 46.29,93.97 c 7.091074,-4.538065 24.993039,8.01414 17.19623,-5.584766 -4.497181,-10.078225 -14.11821,-8.041956 -15.599824,2.206641 l -0.786074,1.697266 z m 100.95,39.32 c 5.12064,12.36207 15.00178,-13.84012 4.9625,-3.17375 -1.60391,1.13309 -3.23508,2.23533 -4.9625,3.17375 z M 10.22,131.11 c 6.019173,7.28989 6.650257,-3.43832 0,0 z m 144.15,52.36 c -1.22962,5.90934 9.1799,10.11383 6.31705,1.13709 2.36573,-6.84013 -4.86976,-14.22357 -5.89455,-3.70896 z"
         id="path8058" />
      <path
         fill="#000000"
         opacity="1"
         d="m 131.12,66.92 c 8.24373,-2.565083 18.70617,0.760967 10.12145,9.694414 -2.15734,2.82336 6.7372,-1.170652 3.03855,3.855586 -6.04474,4.832337 -15.62845,1.025118 -6.47,-4.79875 11.20969,-7.513593 -10.32783,1.089927 -1.52844,-5.935938 C 139.68131,67.461533 131.40002,69.368426 131.12,66.92 Z"
         id="path8060" />
      <path
         fill="#000000"
         opacity="1"
         d="m 118.25,102.78 c 5.1039,-0.49773 20.75119,7.62211 14.21178,9.29906 -5.35216,-1.945 -10.56605,-4.82079 -14.21178,-9.29906 z"
         id="path8062" />
      <path
         fill="#000000"
         opacity="1"
         d="m 56.82,139.1 c 1.938674,-4.37429 9.978366,-14.72424 5.690645,-4.01783 -7.678732,14.43519 9.748511,8.89743 18.316406,9.62703 7.777723,2.24035 -3.827298,7.07459 -8.549199,5.71293 -7.840311,0.79303 -19.783036,6.86166 -15.828223,-6.07207 0.02521,-1.7546 0.108073,-3.51281 0.370371,-5.25006 z"
         id="path8064" />
      <path
         fill="#000000"
         opacity="1"
         d="m 57.65,162.74 c 8.275104,1.23513 24.860079,4.55201 26.346619,9.81869 C 75.858989,177.66493 52.318623,177.35553 57.65,162.74 Z"
         id="path8066" />
      <path
         fill="#000000"
         opacity="1"
         d="m 60.83,201.21 c 11.072302,1.84556 21.806357,6.34298 33.28325,5.09268 10.68589,1.31333 -14.164845,3.77121 -11.43325,12.35732 -1.412028,6.89717 5.749693,15.63825 -0.47,16.54922 4.098923,7.54426 13.925704,-7.65605 11.010935,3.05511 5.186118,3.80066 3.317227,-13.63207 7.207815,-3.37058 1.94851,10.20996 -24.213867,10.48532 -24.73625,-2.6475 C 69.529609,223.26623 89.325642,211.94104 75.007812,207.3975 70.114603,205.81431 64.778365,204.7581 60.83,201.21 Z"
         id="path8068" />
      <path
         fill="#000000"
         opacity="1"
         d="m 152,213.73 c -2.55753,-6.49197 2.71143,-9.96481 4.29891,-1.84609 3.73277,4.1088 -3.11436,1.09597 -4.29891,1.84609 z"
         id="path8070" />
      <path
         fill="#000000"
         opacity="1"
         d="m 144.85,213.45 c 11.09559,-1.63511 -0.63328,9.20948 0,0 z"
         id="path8072" />
      <path
         fill="#000000"
         opacity="1"
         d="m 137.31,222.4 c -2.86092,-14.40271 13.59709,3.54151 0,0 z"
         id="path8074" />
      <path
         fill="#000000"
         opacity="1"
         d="m 128.37,225.81 c 0.41404,-10.46156 9.53643,4.57139 0,0 z"
         id="path8076" />
      <path
         fill="#000000"
         opacity="1"
         d="m 111.23,235.13 c 1.07118,-6.47774 7.54837,-12.31183 5.72328,-2.05141 1.83438,4.30055 -3.9385,1.39287 -5.72328,2.05141 z"
         id="path8078" />
      <path
         fill="#000000"
         opacity="1"
         d="m 120.51,228.68 c 8.78075,-3.48845 -5.16471,7.95205 0,0 z"
         id="path8080" />
      <path
         fill="#000000"
         opacity="1"
         d="m 104.16,233.27 c 7.1026,-3.00498 -0.45679,9.12475 0,0 z"
         id="path8082" />
      <path
         fill="#000000"
         opacity="1"
         d="m 108.05,235.85 c 5.43971,1.48352 -3.33969,4.023 0,0 z"
         id="path8084" />
    </g>
  </g>
</svg>
