<?xml version="1.0" encoding="UTF-8" standalone="no"?>
<!-- Created with Inkscape (http://www.inkscape.org/) -->

<svg
   width="51.041"
   height="51.041"
   viewBox="0 0 13.504598 13.504597"
   version="1.1"
   id="svg7778"
   inkscape:version="1.2.2 (1:1.2.2+202212051552+b0a8486541)"
   sodipodi:docname="Lattice_Semiconductor.svg"
   xmlns:inkscape="http://www.inkscape.org/namespaces/inkscape"
   xmlns:sodipodi="http://sodipodi.sourceforge.net/DTD/sodipodi-0.dtd"
   xmlns="http://www.w3.org/2000/svg"
   xmlns:svg="http://www.w3.org/2000/svg"
   xmlns:rdf="http://www.w3.org/1999/02/22-rdf-syntax-ns#"
   xmlns:cc="http://creativecommons.org/ns#"
   xmlns:dc="http://purl.org/dc/elements/1.1/">
  <defs
     id="defs7772" />
  <sodipodi:namedview
     id="base"
     pagecolor="#ffffff"
     bordercolor="#666666"
     borderopacity="1.0"
     inkscape:pageopacity="0.0"
     inkscape:pageshadow="2"
     inkscape:zoom="3.7270038"
     inkscape:cx="119.13055"
     inkscape:cy="18.647687"
     inkscape:document-units="mm"
     inkscape:current-layer="layer1"
     showgrid="false"
     fit-margin-top="0"
     fit-margin-left="0"
     fit-margin-right="0"
     fit-margin-bottom="0"
     units="px"
     inkscape:window-width="1846"
     inkscape:window-height="1016"
     inkscape:window-x="74"
     inkscape:window-y="27"
     inkscape:window-maximized="1"
     inkscape:showpageshadow="2"
     inkscape:pagecheckerboard="0"
     inkscape:deskcolor="#d1d1d1" />
  <metadata
     id="metadata7775">
    <rdf:RDF>
      <cc:Work
         rdf:about="">
        <dc:format>image/svg+xml</dc:format>
        <dc:type
           rdf:resource="http://purl.org/dc/dcmitype/StillImage" />
      </cc:Work>
    </rdf:RDF>
  </metadata>
  <g
     inkscape:label="Layer 1"
     inkscape:groupmode="layer"
     id="layer1"
     transform="translate(-13.026357,-174.45138)">
    <g
       id="g7578"
       transform="translate(-1.9045956e-5,1.638234)">
      <path
         inkscape:connector-curvature="0"
         id="path7182"
         style="fill:#ffc221;fill-opacity:1;fill-rule:nonzero;stroke:none;stroke-width:0.352778"
         d="m 15.064176,177.35688 h 2.72627 c 0.10301,0 0.19332,-0.0706 0.21766,-0.17039 l 0.60854,-2.45675 c 0.0169,-0.0674 0.001,-0.13793 -0.0413,-0.19226 -0.042,-0.0547 -0.10725,-0.0861 -0.17639,-0.0861 h -2.72662 c -0.10301,0 -0.19297,0.0706 -0.21767,0.17039 l -0.60889,2.45675 c -0.0162,0.0674 -7.01e-4,0.13829 0.0413,0.19226 0.043,0.0547 0.10795,0.0861 0.17709,0.0861" />
      <path
         inkscape:connector-curvature="0"
         id="path7186"
         style="fill:#ffc221;fill-opacity:1;fill-rule:nonzero;stroke:none;stroke-width:0.352778"
         d="m 17.101466,180.84797 0.60819,-2.45745 c 0.0166,-0.0667 0.001,-0.13723 -0.0413,-0.19191 -0.0423,-0.054 -0.10759,-0.0857 -0.17674,-0.0857 h -2.72591 c -0.10301,0 -0.19297,0.0698 -0.21802,0.17004 l -0.60819,2.45675 c -0.0169,0.0674 -0.002,0.13864 0.0406,0.19191 0.043,0.0547 0.10795,0.0857 0.17674,0.0857 h 2.72698 c 0.10301,0 0.19261,-0.0699 0.21766,-0.16933" />
      <path
         inkscape:connector-curvature="0"
         id="path7190"
         style="fill:#ffc221;fill-opacity:1;fill-rule:nonzero;stroke:none;stroke-width:0.352778"
         d="m 16.585356,181.77366 h -2.72662 c -0.10301,0 -0.19297,0.0699 -0.21731,0.17004 l -0.60854,2.45674 c -0.0166,0.0677 -10e-4,0.13759 0.0406,0.19297 0.043,0.0543 0.1083,0.0861 0.17709,0.0861 h 2.72592 c 0.10371,0 0.19332,-0.0702 0.21837,-0.17039 l 0.60818,-2.4578 c 0.0166,-0.0663 0.001,-0.13688 -0.0413,-0.19121 -0.0423,-0.0547 -0.1076,-0.0864 -0.17639,-0.0864" />
      <path
         inkscape:connector-curvature="0"
         id="path7194"
         style="fill:#000000;fill-opacity:1;fill-rule:nonzero;stroke:none;stroke-width:0.352778"
         d="m 19.017756,177.35688 h 2.72662 c 0.10301,0 0.19262,-0.0706 0.21766,-0.17039 l 0.60819,-2.45675 c 0.0169,-0.0674 0.002,-0.13793 -0.0413,-0.19226 -0.0423,-0.0547 -0.10725,-0.0861 -0.17639,-0.0861 h -2.72627 c -0.10301,0 -0.19297,0.0706 -0.21766,0.17039 l -0.60854,2.45675 c -0.0166,0.0674 -0.001,0.13829 0.0413,0.19226 0.0427,0.0547 0.1076,0.0861 0.17639,0.0861" />
      <path
         inkscape:connector-curvature="0"
         id="path7198"
         style="fill:#000000;fill-opacity:1;fill-rule:nonzero;stroke:none;stroke-width:0.352778"
         d="m 21.055046,180.84797 0.60854,-2.45745 c 0.0166,-0.0667 0.001,-0.13723 -0.0416,-0.19191 -0.042,-0.054 -0.10724,-0.0857 -0.17639,-0.0857 h -2.72626 c -0.10301,0 -0.19297,0.0698 -0.21802,0.17004 l -0.60819,2.45675 c -0.0166,0.0674 -10e-4,0.13864 0.0409,0.19191 0.043,0.0547 0.10795,0.0857 0.177091,0.0857 h 2.726269 c 0.103011,0 0.192971,-0.0699 0.21766,-0.16933" />
      <path
         inkscape:connector-curvature="0"
         id="path7202"
         style="fill:#ffc221;fill-opacity:1;fill-rule:nonzero;stroke:none;stroke-width:0.352778"
         d="m 20.538936,181.77366 h -2.72591 c -0.10337,0 -0.19333,0.0699 -0.21802,0.17004 l -0.60889,2.45674 c -0.0166,0.0677 -10e-4,0.13759 0.0413,0.19297 0.0427,0.0543 0.1076,0.0861 0.17674,0.0861 h 2.72627 c 0.10372,0 0.19297,-0.0702 0.21802,-0.17039 l 0.60818,-2.4578 c 0.0166,-0.0663 10e-4,-0.13688 -0.0413,-0.19121 -0.0427,-0.0547 -0.1076,-0.0864 -0.17639,-0.0864" />
      <path
         inkscape:connector-curvature="0"
         id="path7206"
         style="fill:#000000;fill-opacity:1;fill-rule:nonzero;stroke:none;stroke-width:0.352778"
         d="m 26.483237,174.53748 c -0.043,-0.0547 -0.1076,-0.0861 -0.17674,-0.0861 h -2.72592 c -0.10336,0 -0.19332,0.0706 -0.21766,0.17039 l -0.609251,2.45675 c -0.0162,0.0674 -10e-4,0.13829 0.0416,0.19226 0.0427,0.0547 0.10725,0.0861 0.17604,0.0861 h 2.725911 c 0.10372,0 0.19332,-0.0706 0.21802,-0.17039 l 0.60924,-2.45675 c 0.0166,-0.0674 10e-4,-0.13793 -0.0413,-0.19226" />
      <path
         inkscape:connector-curvature="0"
         id="path7210"
         style="fill:#000000;fill-opacity:1;fill-rule:nonzero;stroke:none;stroke-width:0.352778"
         d="m 25.399507,178.11288 h -2.726271 c -0.10336,0 -0.19297,0.0698 -0.21766,0.17004 l -0.60889,2.45674 c -0.0162,0.0674 -0.002,0.13864 0.0413,0.19191 0.0423,0.0543 0.1076,0.0857 0.176391,0.0857 h 2.72662 c 0.10301,0 0.19297,-0.0699 0.21802,-0.16933 l 0.60818,-2.45745 c 0.0166,-0.0667 0.002,-0.13723 -0.0409,-0.19192 -0.043,-0.0543 -0.1076,-0.0857 -0.17674,-0.0857" />
      <path
         inkscape:connector-curvature="0"
         id="path7214"
         style="fill:#ffc221;fill-opacity:1;fill-rule:nonzero;stroke:none;stroke-width:0.352778"
         d="m 24.492517,181.77366 h -2.725911 c -0.10337,0 -0.19333,0.0699 -0.21767,0.17004 l -0.60889,2.45674 c -0.0162,0.0677 -0.002,0.13759 0.0409,0.19297 0.043,0.0543 0.107601,0.0861 0.17639,0.0861 h 2.726971 c 0.10266,0 0.19262,-0.0702 0.21767,-0.17039 l 0.60818,-2.4578 c 0.0162,-0.0663 0.002,-0.13688 -0.0413,-0.19121 -0.0427,-0.0547 -0.10725,-0.0864 -0.17639,-0.0864" />
    </g>
  </g>
</svg>
