<?xml version="1.0" encoding="UTF-8" standalone="no"?>
<svg
   width="72"
   height="72"
   fill-rule="evenodd"
   clip-rule="evenodd"
   version="1.1"
   id="svg1"
   sodipodi:docname="medium.svg"
   inkscape:version="1.3 (1:1.3+202307231459+0e150ed6c4)"
   xmlns:inkscape="http://www.inkscape.org/namespaces/inkscape"
   xmlns:sodipodi="http://sodipodi.sourceforge.net/DTD/sodipodi-0.dtd"
   xmlns="http://www.w3.org/2000/svg"
   xmlns:svg="http://www.w3.org/2000/svg">
  <defs
     id="defs1" />
  <sodipodi:namedview
     id="namedview1"
     pagecolor="#ffffff"
     bordercolor="#000000"
     borderopacity="0.25"
     inkscape:showpageshadow="2"
     inkscape:pageopacity="0.0"
     inkscape:pagecheckerboard="0"
     inkscape:deskcolor="#d1d1d1"
     inkscape:zoom="20.833333"
     inkscape:cx="11.976"
     inkscape:cy="65.760001"
     inkscape:window-width="1920"
     inkscape:window-height="946"
     inkscape:window-x="0"
     inkscape:window-y="27"
     inkscape:window-maximized="1"
     inkscape:current-layer="svg1" />
  <path
     d="m 8.538,19.0815 c 0.09,-0.885 -0.249,-1.758 -0.909,-2.352 l -6.72,-8.1 V 7.4205 H 21.783 L 37.917,42.8055 52.101,7.4205 H 72 v 1.209 l -5.748,5.511 c -0.495,0.378 -0.741,0.999 -0.639,1.614 v 40.494 c -0.102,0.612 0.144,1.233 0.639,1.611 l 5.613,5.511 v 1.209 H 43.629 v -1.209 l 5.817,-5.646 c 0.57,-0.57 0.57,-0.738 0.57,-1.611 v -32.73 L 33.849,64.4475 H 31.665 L 12.84,23.3835 v 27.522 c -0.156,1.155 0.228,2.322 1.041,3.156 l 7.563,9.174 v 1.212 H 0 v -1.212 l 7.563,-9.174 c 0.81,-0.837 1.17,-2.01 0.975,-3.156 z"
     id="path1"
     style="fill:#f9f9f9;stroke-width:3" />
</svg>
