<?xml version="1.0" encoding="UTF-8" standalone="no"?>
<!-- Created with Inkscape (http://www.inkscape.org/) -->

<svg
   version="1.0"
   width="335.15228"
   height="335.15201"
   id="svg7217"
   sodipodi:docname="Microchip.svg"
   inkscape:version="1.2.2 (1:1.2.2+202212051552+b0a8486541)"
   xmlns:inkscape="http://www.inkscape.org/namespaces/inkscape"
   xmlns:sodipodi="http://sodipodi.sourceforge.net/DTD/sodipodi-0.dtd"
   xmlns="http://www.w3.org/2000/svg"
   xmlns:svg="http://www.w3.org/2000/svg">
  <sodipodi:namedview
     id="namedview3731"
     pagecolor="#ffffff"
     bordercolor="#000000"
     borderopacity="0.25"
     inkscape:showpageshadow="2"
     inkscape:pageopacity="0.0"
     inkscape:pagecheckerboard="0"
     inkscape:deskcolor="#d1d1d1"
     showgrid="false"
     inkscape:zoom="1.7605291"
     inkscape:cx="150.52293"
     inkscape:cy="216.69622"
     inkscape:window-width="1846"
     inkscape:window-height="1016"
     inkscape:window-x="74"
     inkscape:window-y="27"
     inkscape:window-maximized="1"
     inkscape:current-layer="svg7217" />
  <defs
     id="defs7219" />
  <path
     d="m 156.37757,258.97505 c 0,0 13.27735,23.33593 28.2982,0 L 213.77863,216.59486 128.07941,79.529739 c 0,0 -13.27736,-18.37366 -29.102869,0 l -29.90753,41.441441 z m 11.66798,66.52089 c 44.92838,0 85.69923,-16.63021 115.60673,-43.18496 L 181.32291,121.90996 212.97393,78.590959 c 13.27735,-17.43488 27.35937,0 27.35937,0 l 87.44268,138.003901 c 4.1576,-11.66798 6.5716,-24.9453 7.3763,-37.41799 L 236.17574,22.933419 C 215.388,14.618299 192.18619,9.656069 168.04555,9.656069 81.005191,9.656069 1.3574219e-6,76.445119 1.3574219e-6,167.64304 c 0,14.08202 2.4140400425781,28.16405 5.7669000425781,40.6367 l 49.0859296,-67.32553 34.19925,52.43884 c 8.18097,12.47265 0,23.20181 0,23.20181 l -43.31904,59.8151 c 32.72396,32.724 76.579429,49.08598 122.312509,49.08598"
     style="fill:#ec1b24;fill-rule:evenodd;stroke:none"
     id="path197" />
</svg>
