<?xml version="1.0" encoding="UTF-8" standalone="no"?>
<!-- Generator: Adobe Illustrator 22.0.1, SVG Export Plug-In . SVG Version: 6.00 Build 0)  -->

<svg
   version="1.1"
   id="Layer_1"
   x="0px"
   y="0px"
   viewBox="0 0 72.500003 72.500002"
   xml:space="preserve"
   sodipodi:docname="Nordic_Semiconductor.svg"
   width="72.5"
   height="72.5"
   inkscape:version="1.2.2 (1:1.2.2+202212051552+b0a8486541)"
   xmlns:inkscape="http://www.inkscape.org/namespaces/inkscape"
   xmlns:sodipodi="http://sodipodi.sourceforge.net/DTD/sodipodi-0.dtd"
   xmlns="http://www.w3.org/2000/svg"
   xmlns:svg="http://www.w3.org/2000/svg"><defs
   id="defs1686">
	
	

		
		
		
	</defs><sodipodi:namedview
   id="namedview1684"
   pagecolor="#ffffff"
   bordercolor="#000000"
   borderopacity="0.25"
   inkscape:showpageshadow="2"
   inkscape:pageopacity="0.0"
   inkscape:pagecheckerboard="0"
   inkscape:deskcolor="#d1d1d1"
   showgrid="false"
   inkscape:zoom="6.984388"
   inkscape:cx="40.232587"
   inkscape:cy="20.975352"
   inkscape:window-width="1846"
   inkscape:window-height="1016"
   inkscape:window-x="74"
   inkscape:window-y="27"
   inkscape:window-maximized="1"
   inkscape:current-layer="Layer_1" />
<style
   type="text/css"
   id="style1601">
	.st0{fill:none;}
	.st1{opacity:0.6;fill:#00A9CE;}
	.st2{opacity:0.8;fill:#00A9CE;}
	.st3{opacity:0.5;fill:#00A9CE;}
	.st4{fill:#00A9CE;}
</style>
<polygon
   class="st0"
   points=""
   id="polygon1603"
   transform="translate(-30.9)" /><g
   id="g3703"><g
     id="g1615"
     transform="translate(-30.9,4.45)">
			<g
   id="g1613">
				<path
   class="st1"
   d="m 82.9,0.4 c 0,0 -0.1,0 -0.1,0.1 -0.2,0.1 -0.3,0.2 -0.5,0.2 L 66.8,9.6 84.8,20 V 0 c -0.6,0 -1.3,0.2 -1.9,0.4 z"
   id="path1605" />
				<path
   class="st2"
   d="m 51.2,63.1 16.4,-9.5 -18,-10.4 v 20.3 c 0.5,0.1 1,-0.1 1.6,-0.4 z"
   id="path1607" />
				<path
   class="st3"
   d="M 103.2,52.5 66.3,31.2 v 0 l -1.7,-1 -33.3,-19.3 c -0.2,0.6 -0.4,1.2 -0.4,1.9 0,0.1 0,0.3 0,0.4 v 38.2 c 0,1.2 0.7,2.3 1.7,2.9 l 15.2,8.9 c 0.5,0.3 1.1,0.4 1.7,0.4 V 44.1 43.3 L 84,63.2 c 0.1,0.1 0.2,0.1 0.3,0.1 0,0 0.1,0 0.1,0 1,0.4 1.8,0.1 2.7,-0.5 l 5.8,-3.3 9.2,-5.5 c 0.5,-0.3 0.9,-0.9 1.1,-1.5 z"
   id="path1609" />
				<path
   class="st4"
   d="M 103.4,27.3 V 12.8 c 0,-1.9 -1,-3.6 -2.6,-4.5 L 87.4,0.6 C 86.6,0.2 85.7,0 84.8,0 V 20.1 L 54.7,2.6 51.3,0.7 C 49.8,-0.1 48.5,-0.2 47,0.5 c 0,0 -0.1,0 -0.1,0.1 -0.2,0.1 -0.3,0.2 -0.5,0.3 L 41.1,4 33.5,8.4 c 0,0 0,0 0,0 -1,0.6 -1.8,1.5 -2.3,2.6 0,0 33.3,19.2 33.3,19.2 l 1.7,1 v 0 l 36.9,21.3 c 0.2,-0.7 0.2,-1.9 0.2,-1.9 V 27.3 Z"
   id="path1611" />
			</g>
		</g></g>

</svg>
