<?xml version="1.0" encoding="UTF-8" standalone="no"?>
<svg
   width="314.98001"
   height="314.98001"
   viewBox="0 0 83.338543 83.338475"
   fill="#0f0f0f"
   version="1.1"
   id="svg9589"
   sodipodi:docname="openai.svg"
   inkscape:version="1.3 (1:1.3+202307231459+0e150ed6c4)"
   xmlns:inkscape="http://www.inkscape.org/namespaces/inkscape"
   xmlns:sodipodi="http://sodipodi.sourceforge.net/DTD/sodipodi-0.dtd"
   xmlns="http://www.w3.org/2000/svg"
   xmlns:svg="http://www.w3.org/2000/svg">
  <defs
     id="defs9593" />
  <sodipodi:namedview
     id="namedview9591"
     pagecolor="#ffffff"
     bordercolor="#000000"
     borderopacity="0.25"
     inkscape:showpageshadow="2"
     inkscape:pageopacity="0.0"
     inkscape:pagecheckerboard="0"
     inkscape:deskcolor="#d1d1d1"
     showgrid="false"
     inkscape:zoom="2.046875"
     inkscape:cx="168.79389"
     inkscape:cy="136.79389"
     inkscape:window-width="1920"
     inkscape:window-height="946"
     inkscape:window-x="0"
     inkscape:window-y="27"
     inkscape:window-maximized="1"
     inkscape:current-layer="svg9589" />
  <g
     id="g1">
    <path
       id="path7688"
       style="fill:#ffffff;fill-rule:nonzero;stroke-width:0.129262;paint-order:markers fill stroke"
       d="m 36.906295,5.2673816 c -4.310679,-0.012398 -8.48051,2.0178311 -11.320762,5.2260404 -2.063005,2.209294 -3.426568,5.074535 -3.891754,8.05481 -0.323984,4.707602 -0.114113,9.43458 -0.177767,14.15005 0.03599,2.338974 -0.07172,4.709242 0.05323,7.029031 2.266589,1.463961 4.720865,2.750303 7.059004,4.14652 0.801021,-0.106352 0.227002,-1.425626 0.407213,-2.037086 0.07349,-6.997402 0.0013,-14.062901 0.193786,-21.019918 -0.120775,-1.125664 1.019435,-1.63904 1.809708,-2.117701 C 36.449133,15.506832 41.94337,12.450359 47.349596,9.2480197 47.673742,8.6427519 46.620017,8.4089043 46.273172,8.020187 43.555963,6.1148338 40.2089,5.2117556 36.906295,5.2673816 Z m 19.409164,6.5577434 c -2.941732,0.06658 -5.745462,1.277193 -8.213457,2.81585 -4.909344,2.806583 -9.795458,5.654264 -14.691101,8.484759 -0.314214,0.853849 -0.0568,1.889053 -0.15348,2.811716 0.01974,1.900349 -0.103365,3.830443 0.0057,5.712317 0.584978,0.331364 1.262923,-0.593937 1.872756,-0.777214 6.181027,-3.56427 12.327865,-7.195213 18.60456,-10.588508 1.542736,-0.304279 2.770282,0.970715 4.073139,1.568897 4.912011,2.762974 9.705655,5.746068 14.708669,8.341616 0.716672,0.154411 0.515962,-0.88323 0.582912,-1.321367 0.07156,-2.398232 -0.0941,-4.848301 -1.070738,-7.073475 -2.01357,-5.287265 -7.072888,-9.283532 -12.707241,-9.905861 -0.805468,-0.06084 -1.61407,-0.07483 -2.421558,-0.06615 -0.197284,-0.006 -0.39403,-0.007 -0.590145,-0.0026 z m -40.206872,8.488892 c -0.04141,-0.0049 -0.08503,-2.91e-4 -0.128158,0.01499 -4.701303,1.873548 -8.4323798,6.023811 -9.6526463,10.95076 -1.0834571,4.138845 -0.3604489,8.687773 1.9482026,12.291247 1.4842455,2.390988 3.6444357,4.356528 6.1360627,5.660123 5.106961,2.988452 10.204315,5.998602 15.371164,8.881115 1.016279,-0.283562 1.887277,-1.041882 2.842207,-1.512053 1.469925,-0.882026 2.983826,-1.703655 4.410585,-2.651002 0.136335,-0.656687 -0.887749,-0.74941 -1.275374,-1.1281 -6.144018,-3.633277 -12.408372,-7.080159 -18.495524,-10.796766 -0.640452,-0.615487 -0.926198,-1.461813 -0.785999,-2.343008 -0.04041,-6.371549 -0.08094,-12.74306 -0.12144,-19.114608 -0.01955,-0.138985 -0.124848,-0.237912 -0.24908,-0.252698 z m 37.141939,4.967142 c -2.34196,1.222353 -4.613907,2.613033 -6.873484,3.990455 -0.302869,0.614961 0.746305,0.74435 1.079003,1.084689 6.106663,3.627707 12.322068,7.073036 18.402506,10.743021 0.999956,0.638106 1.141799,1.890433 1.034561,2.976048 0.02212,6.210782 0.04399,12.421681 0.06615,18.632463 0.307287,0.569537 1.044967,-0.07562 1.493449,-0.210322 4.146182,-1.930243 7.306478,-5.746357 8.487343,-10.157524 0.690757,-2.395552 0.695887,-4.969841 0.260451,-7.411439 C 76.212017,40.479037 73.35868,36.391002 69.26713,34.283198 64.161679,31.306486 59.090249,28.261241 53.872713,25.484247 53.673865,25.400766 53.473015,25.276676 53.250526,25.281159 Z m 1.288294,14.196556 c -0.06738,0.01923 -0.108042,0.117803 -0.170013,0.152964 -0.08892,7.770438 -0.09265,15.549338 -0.148828,23.323137 -0.865625,1.559047 -2.752079,2.031482 -4.127918,3.002403 -4.666906,2.702437 -9.348253,5.379726 -14.013622,8.084782 -0.401862,0.520846 0.544008,0.812663 0.820106,1.133264 2.939959,2.079293 6.593291,3.135203 10.192666,2.869077 6.748408,-0.257998 12.87909,-5.520502 14.352103,-12.083506 0.613024,-2.810673 0.321151,-5.721044 0.413928,-8.575193 0.0019,-4.542507 7.93e-4,-9.085087 0.0011,-13.6276 -0.584139,-0.697214 -1.617047,-0.980787 -2.371951,-1.52032 -1.628684,-0.897975 -3.212753,-1.936092 -4.869471,-2.746604 -0.03022,-0.01643 -0.05557,-0.01881 -0.07803,-0.01241 z m -4.87929,12.257658 c -0.03285,-0.0056 -0.06711,-0.0053 -0.101287,0.0021 -6.56212,3.669863 -13.012351,7.572178 -19.586928,11.210693 -0.996233,0.317214 -2.037536,0.02185 -2.85616,-0.592212 -5.451571,-3.060644 -10.812499,-6.29882 -16.284802,-9.311582 -0.698002,0.04275 -0.458294,1.059647 -0.580844,1.522387 -0.4846982,6.019483 2.751,12.251213 8.180384,15.014597 2.469853,1.383232 5.307041,2.078843 8.138527,1.888774 2.594691,0.02357 5.108467,-0.810099 7.33754,-2.100132 5.38166,-2.934447 10.652343,-6.067351 15.979914,-9.098158 0.313325,-0.853996 0.04486,-1.890904 0.136424,-2.8143 -0.06261,-1.842758 0.141089,-3.720573 -0.134876,-5.543849 -0.04224,-0.09123 -0.12935,-0.161468 -0.227892,-0.178285 z" />
    <path
       d="m 37.311511,2.9308012e-4 c -9.116,0 -17.215,5.86999991988 -20.038,14.53399991988 -5.860608,1.208072 -10.9186326,4.87819 -13.8849998,10.075 -4.572,7.902 -3.52800003,17.836 2.597,24.609 -1.891,5.673 -1.242,11.881 1.778,17.018 4.5439998,7.93 13.6869998,11.994 22.6339998,10.103 3.962905,4.472529 9.659419,7.02257 15.635,6.999 9.116,0 17.215,-5.87 20.038,-14.534 5.87,-1.214 10.922,-4.883 13.857,-10.075 4.6,-7.902 3.556,-17.836 -2.568,-24.609 v -0.028 c 1.889832,-5.672908 1.241852,-11.885201 -1.778,-17.046 -4.545,-7.902 -13.689,-11.967 -22.607,-10.076 -3.980926,-4.4605564 -9.684412,-6.99859486 -15.663,-6.96999991988 z m 0,5.41899991988 -0.028,0.028 c 3.669,0 7.197,1.27 10.019,3.613 -0.113,0.056 -0.339,0.197 -0.508,0.282 l -16.594,9.567 c -0.847,0.48 -1.355,1.383 -1.355,2.371 v 22.464 l -7.14,-4.12 v -18.57 c -0.0033,-8.625189 6.98082,-15.6227566 15.606,-15.636 z m 19.99,6.54 c 5.597404,-0.01076 10.772679,2.974392 13.566,7.825 1.806,3.161 2.483,6.858 1.862,10.442 -0.113,-0.085 -0.338,-0.197 -0.48,-0.282 l -16.594,-9.596 c -0.849141,-0.480218 -1.887859,-0.480218 -2.737,0 l -19.445,11.232 v -8.241 l 16.058,-9.285 c 2.361018,-1.368826 5.040884,-2.091734 7.77,-2.096 z m -41.043,8.53 v 19.727 c 0,0.988 0.508,1.863 1.355,2.371 l 19.416,11.204 -7.169,4.148 -16.03,-9.257 C 6.3713901,44.359427 3.8210704,34.813178 8.1305112,27.346293 9.9562674,24.181614 12.83172,21.75545 16.258511,20.488293 Z m 37.196,4.882 16.058,9.257 c 7.479,4.318 10.018,13.857 5.7,21.336 l 0.028,0.028 c -1.834,3.161 -4.713,5.588 -8.128,6.83 v -19.728 c 0,-0.988 -0.508,-1.891 -1.355,-2.37 l -19.444,-11.233 z m -11.797,6.802 8.185,4.741 v 9.454 l -8.185,4.741 -8.184,-4.741 v -9.454 z m 12.869,7.451 7.14,4.12 v 18.542 c 0,8.636 -6.999,15.635 -15.606,15.635 v -0.028 c -3.641,0 -7.197,-1.27 -9.991,-3.612 0.113,-0.056 0.367,-0.198 0.508,-0.283 l 16.594,-9.567 c 0.847,-0.48 1.383,-1.383 1.354,-2.371 z m -4.657,12.135 v 8.24 l -16.058,9.257 c -7.479,4.29 -17.018,1.75 -21.336,-5.701 h 0.028 c -1.834,-3.133 -2.484,-6.858 -1.863,-10.442 0.113,0.085 0.339,0.197 0.48,0.282 l 16.594,9.596 c 0.849141,0.480218 1.887859,0.480218 2.737,0 z"
       id="path9587"
       sodipodi:nodetypes="cccccccccccccccccccscccccccccccccccccsccccccccccccsccccccccccccsccccccccccccccccc" />
  </g>
</svg>
