<?xml version="1.0" encoding="UTF-8" standalone="no"?>
<svg
   width="314.98001"
   height="314.98001"
   viewBox="0 0 83.338543 83.338475"
   fill="#0f0f0f"
   version="1.1"
   id="svg9589"
   sodipodi:docname="openai2.svg"
   inkscape:version="1.2.2 (1:1.2.2+202212051552+b0a8486541)"
   xmlns:inkscape="http://www.inkscape.org/namespaces/inkscape"
   xmlns:sodipodi="http://sodipodi.sourceforge.net/DTD/sodipodi-0.dtd"
   xmlns="http://www.w3.org/2000/svg"
   xmlns:svg="http://www.w3.org/2000/svg">
  <defs
     id="defs9593" />
  <sodipodi:namedview
     id="namedview9591"
     pagecolor="#ffffff"
     bordercolor="#000000"
     borderopacity="0.25"
     inkscape:showpageshadow="2"
     inkscape:pageopacity="0.0"
     inkscape:pagecheckerboard="0"
     inkscape:deskcolor="#d1d1d1"
     showgrid="false"
     inkscape:zoom="2.046875"
     inkscape:cx="168.54962"
     inkscape:cy="137.03817"
     inkscape:window-width="1920"
     inkscape:window-height="946"
     inkscape:window-x="0"
     inkscape:window-y="0"
     inkscape:window-maximized="1"
     inkscape:current-layer="svg9589" />
  <g
     id="g7741">
    <g
       id="g7726">
      <g
         id="g7721"
         style="fill:#ffffff">
        <path
           id="path7688"
           style="fill:#ffffff;fill-rule:nonzero;stroke-width:0.48855;paint-order:markers fill stroke"
           d="M 139.48828 19.908203 C 123.19596 19.861348 107.43598 27.534647 96.701174 39.660157 C 88.903995 48.010238 83.750372 58.839491 81.992189 70.103517 C 80.767683 87.896018 81.560896 105.76175 81.320314 123.58399 C 81.456337 132.4242 81.049241 141.38269 81.521486 150.15039 C 90.088115 155.68347 99.364114 160.54523 108.20117 165.82227 C 111.22865 165.42031 109.05913 160.43408 109.74024 158.12305 C 110.01799 131.67619 109.74564 104.97196 110.47266 78.677736 C 110.01619 74.423261 114.32564 72.482943 117.3125 70.673829 C 137.76041 58.608468 158.52602 47.056447 178.95899 34.953126 C 180.18412 32.665501 176.20154 31.781668 174.89063 30.312501 C 164.62087 23.11117 151.97056 19.697963 139.48828 19.908203 z M 212.84571 44.69336 C 201.72736 44.945022 191.13059 49.520544 181.80274 55.335939 C 163.24775 65.94349 144.78056 76.706373 126.27735 87.404299 C 125.08977 90.631443 126.06266 94.544024 125.69727 98.031252 C 125.77187 105.21367 125.3066 112.50851 125.71875 119.6211 C 127.92969 120.8735 130.492 117.3763 132.79688 116.6836 C 156.15823 103.21235 179.39036 89.489108 203.11329 76.664064 C 208.9441 75.514035 213.58364 80.332908 218.50782 82.593752 C 237.07289 93.036482 255.19059 104.31116 274.09961 114.1211 C 276.80829 114.7047 276.0497 110.78291 276.30274 109.12696 C 276.57319 100.06278 275.94709 90.802684 272.25586 82.39258 C 264.64552 62.409228 245.5237 47.305238 224.22852 44.953126 C 221.18423 44.723192 218.1281 44.67031 215.07618 44.703126 C 214.33054 44.680562 213.58693 44.676583 212.84571 44.69336 z M 60.882814 76.777345 C 60.7263 76.758717 60.561435 76.776215 60.398439 76.833986 C 42.629743 83.915109 28.528044 99.601134 23.916016 118.22266 C 19.821062 133.86553 22.55369 151.05832 31.279297 164.67774 C 36.889041 173.71454 45.053534 181.14335 54.470704 186.07032 C 73.77259 197.36525 93.03817 208.74219 112.56641 219.63672 C 116.40746 218.56499 119.69942 215.6989 123.3086 213.92188 C 128.86422 210.58824 134.58605 207.48287 139.97852 203.90235 C 140.4938 201.4204 136.62325 201.06995 135.15821 199.63868 C 111.93674 185.90662 88.260453 172.87904 65.253907 158.83203 C 62.833305 156.50578 61.753317 153.30707 62.283204 149.97657 C 62.130481 125.89514 61.977282 101.81385 61.82422 77.732423 C 61.750337 77.207128 61.352353 76.833228 60.882814 76.777345 z M 201.26172 95.550783 C 192.41022 100.1707 183.82334 105.42681 175.28321 110.63281 C 174.13851 112.95707 178.10389 113.4461 179.36133 114.73242 C 202.44162 128.44343 225.9329 141.46514 248.91407 155.33594 C 252.69343 157.74768 253.22953 162.48088 252.82422 166.58399 C 252.90782 190.0578 252.99048 213.53205 253.07422 237.00586 C 254.23562 239.15844 257.0237 236.72006 258.71875 236.21094 C 274.38935 228.91554 286.33377 214.49244 290.79688 197.82032 C 293.40761 188.76627 293.427 179.03668 291.78126 169.8086 C 288.04526 152.99155 277.261 137.54072 261.79688 129.57422 C 242.5007 118.32366 223.3331 106.81408 203.61329 96.318361 C 202.86174 96.002841 202.10262 95.533842 201.26172 95.550783 z M 206.13086 149.20703 C 205.87618 149.27971 205.72251 149.65227 205.48829 149.78516 C 205.15221 179.15373 205.13813 208.55428 204.92579 237.93555 C 201.65414 243.82801 194.52424 245.61359 189.32422 249.28321 C 171.68553 259.49714 153.99226 269.61602 136.35938 279.83985 C 134.84053 281.8084 138.41547 282.91133 139.45899 284.12305 C 150.57064 291.98179 164.3785 295.97263 177.98243 294.9668 C 203.48821 293.99169 226.65928 274.10192 232.22657 249.29688 C 234.54351 238.67387 233.44037 227.67405 233.79102 216.88672 C 233.79802 199.7182 233.79393 182.5494 233.79493 165.38086 C 231.58716 162.74572 227.68326 161.67395 224.83008 159.63477 C 218.67443 156.24085 212.6874 152.31726 206.42579 149.25391 C 206.31158 149.1918 206.21576 149.18281 206.13086 149.20703 z M 187.68946 195.53516 C 187.56531 195.51397 187.43581 195.51498 187.30664 195.54297 C 162.50494 209.41331 138.12613 224.16221 113.27735 237.91407 C 109.51206 239.11299 105.57643 237.99671 102.48242 235.67579 C 81.878069 224.10801 61.616303 211.86924 40.933595 200.48243 C 38.29548 200.64402 39.201462 204.48739 38.738282 206.23633 C 36.906351 228.98712 49.135753 252.5401 69.656251 262.98438 C 78.991123 268.21234 89.714346 270.84142 100.41602 270.12305 C 110.22272 270.21215 119.7236 267.06126 128.14844 262.18555 C 148.48856 251.09473 168.40924 239.25384 188.54493 227.79883 C 189.72915 224.57113 188.71447 220.65211 189.06055 217.16211 C 188.8239 210.19736 189.5938 203.10011 188.55078 196.20899 C 188.39114 195.86419 188.0619 195.59872 187.68946 195.53516 z "
           transform="scale(0.26458348)" />
        <path
           style="fill:#ffffff;fill-rule:nonzero;stroke-width:0.48855;paint-order:markers fill stroke"
           d="m 156.9771,120.92844 c -10.28055,6.11323 -20.93371,11.81638 -30.98371,18.18357 -0.56493,11.32765 -0.2092,22.93295 -0.42303,34.36669 -0.73684,3.55097 3.94937,3.91308 5.97836,5.72158 8.40278,4.86943 16.78119,9.78085 25.21273,14.60029 3.1246,-0.36122 5.68097,-3.03925 8.5768,-4.27355 7.81677,-4.63073 15.97037,-8.90959 23.53859,-13.82415 0.49835,-11.03541 0.0605,-22.34849 0.20066,-33.49008 1.12838,-3.52727 -2.27751,-4.67522 -4.73547,-6.0369 -8.97956,-5.01972 -17.78384,-10.5653 -26.84814,-15.29567 l -0.33454,-0.0339 z"
           id="path7717"
           transform="scale(0.26458348)" />
      </g>
    </g>
    <path
       d="m 37.311511,2.9308012e-4 c -9.116,0 -17.215,5.86999991988 -20.038,14.53399991988 -5.860608,1.208072 -10.9186326,4.87819 -13.8849998,10.075 -4.572,7.902 -3.52800003,17.836 2.597,24.609 -1.891,5.673 -1.242,11.881 1.778,17.018 4.5439998,7.93 13.6869998,11.994 22.6339998,10.103 3.962905,4.472529 9.659419,7.02257 15.635,6.999 9.116,0 17.215,-5.87 20.038,-14.534 5.87,-1.214 10.922,-4.883 13.857,-10.075 4.6,-7.902 3.556,-17.836 -2.568,-24.609 v -0.028 c 1.889832,-5.672908 1.241852,-11.885201 -1.778,-17.046 -4.545,-7.902 -13.689,-11.967 -22.607,-10.076 -3.980926,-4.4605564 -9.684412,-6.99859486 -15.663,-6.96999991988 z m 0,5.41899991988 -0.028,0.028 c 3.669,0 7.197,1.27 10.019,3.613 -0.113,0.056 -0.339,0.197 -0.508,0.282 l -16.594,9.567 c -0.847,0.48 -1.355,1.383 -1.355,2.371 v 22.464 l -7.14,-4.12 v -18.57 c -0.0033,-8.625189 6.98082,-15.6227566 15.606,-15.636 z m 19.99,6.54 c 5.597404,-0.01076 10.772679,2.974392 13.566,7.825 1.806,3.161 2.483,6.858 1.862,10.442 -0.113,-0.085 -0.338,-0.197 -0.48,-0.282 l -16.594,-9.596 c -0.849141,-0.480218 -1.887859,-0.480218 -2.737,0 l -19.445,11.232 v -8.241 l 16.058,-9.285 c 2.361018,-1.368826 5.040884,-2.091734 7.77,-2.096 z m -41.043,8.53 v 19.727 c 0,0.988 0.508,1.863 1.355,2.371 l 19.416,11.204 -7.169,4.148 -16.03,-9.257 C 6.3713901,44.359427 3.8210704,34.813178 8.1305112,27.346293 9.9562674,24.181614 12.83172,21.75545 16.258511,20.488293 Z m 37.196,4.882 16.058,9.257 c 7.479,4.318 10.018,13.857 5.7,21.336 l 0.028,0.028 c -1.834,3.161 -4.713,5.588 -8.128,6.83 v -19.728 c 0,-0.988 -0.508,-1.891 -1.355,-2.37 l -19.444,-11.233 z m -11.797,6.802 8.185,4.741 v 9.454 l -8.185,4.741 -8.184,-4.741 v -9.454 z m 12.869,7.451 7.14,4.12 v 18.542 c 0,8.636 -6.999,15.635 -15.606,15.635 v -0.028 c -3.641,0 -7.197,-1.27 -9.991,-3.612 0.113,-0.056 0.367,-0.198 0.508,-0.283 l 16.594,-9.567 c 0.847,-0.48 1.383,-1.383 1.354,-2.371 z m -4.657,12.135 v 8.24 l -16.058,9.257 c -7.479,4.29 -17.018,1.75 -21.336,-5.701 h 0.028 c -1.834,-3.133 -2.484,-6.858 -1.863,-10.442 0.113,0.085 0.339,0.197 0.48,0.282 l 16.594,9.596 c 0.849141,0.480218 1.887859,0.480218 2.737,0 z"
       id="path9587"
       sodipodi:nodetypes="cccccccccccccccccccscccccccccccccccccsccccccccccccsccccccccccccsccccccccccccccccc" />
  </g>
</svg>
