<?xml version="1.0" encoding="UTF-8" standalone="no"?>
<svg
   width="240.00052"
   height="196"
   viewBox="0 0 240.00052 196"
   fill="none"
   version="1.1"
   id="svg4"
   sodipodi:docname="rest.svg"
   inkscape:version="1.2.2 (1:1.2.2+202212051552+b0a8486541)"
   xmlns:inkscape="http://www.inkscape.org/namespaces/inkscape"
   xmlns:sodipodi="http://sodipodi.sourceforge.net/DTD/sodipodi-0.dtd"
   xmlns="http://www.w3.org/2000/svg"
   xmlns:svg="http://www.w3.org/2000/svg">
  <defs
     id="defs8" />
  <sodipodi:namedview
     id="namedview6"
     pagecolor="#ffffff"
     bordercolor="#000000"
     borderopacity="0.25"
     inkscape:showpageshadow="2"
     inkscape:pageopacity="0.0"
     inkscape:pagecheckerboard="0"
     inkscape:deskcolor="#d1d1d1"
     showgrid="false"
     inkscape:zoom="2.4259259"
     inkscape:cx="-30.091603"
     inkscape:cy="98.312977"
     inkscape:window-width="1920"
     inkscape:window-height="946"
     inkscape:window-x="0"
     inkscape:window-y="0"
     inkscape:window-maximized="1"
     inkscape:current-layer="svg4" />
  <path
     fill-rule="evenodd"
     clip-rule="evenodd"
     d="m 200.7753,13.8866 5.059,6.6618 c 1.328,1.7582 0.996,4.2783 -0.762,5.6068 l -5.372,4.083 c 0.977,2.5982 1.602,5.3723 1.856,8.205 l 6.114,0.8401 c 2.187,0.293 3.711,2.3247 3.418,4.5127 l -1.133,8.3028 c -0.293,2.188 -2.324,3.7313 -4.512,3.4188 l -6.68,-0.9182 c -1.192,2.5983 -2.715,4.9816 -4.512,7.111 l 3.75,4.9231 c 1.328,1.7582 0.977,4.2783 -0.781,5.6068 l -6.661,5.0598 c -1.758,1.3284 -4.277,0.9768 -5.605,-0.7619 l -4.083,-5.3724 c -2.617,0.9768 -5.371,1.6019 -8.223,1.8559 l -0.84,6.1147 c -0.293,2.188 -2.324,3.7118 -4.512,3.4188 l -8.301,-1.1331 c -2.188,-0.293 -3.711,-2.3247 -3.418,-4.5128 l 0.918,-6.6812 c -2.578,-1.1917 -4.981,-2.7155 -7.11,-4.4933 l -4.922,3.7314 c -1.758,1.3284 -4.278,0.9963 -5.606,-0.7619 l -5.059,-6.6618 c -1.328,-1.7582 -0.996,-4.2783 0.762,-5.6068 l 5.371,-4.0829 c -0.976,-2.6179 -1.601,-5.3724 -1.855,-8.2051 l -6.114,-0.8401 c -2.187,-0.293 -3.731,-2.3247 -3.418,-4.5127 l 1.133,-8.3028 c 0.312,-2.188 2.324,-3.7118 4.512,-3.4188 l 6.68,0.9182 c 1.191,-2.5787 2.715,-4.9816 4.492,-7.111 l -3.73,-4.9231 c -1.329,-1.7387 -0.996,-4.2588 0.761,-5.5872 l 6.661,-5.05981 c 1.758,-1.32844 4.278,-0.99633 5.606,0.76189 l 4.082,5.37232 c 2.598,-0.9767 5.371,-1.60189 8.204,-1.85586 l 0.84,-6.11473 c 0.293,-2.18801 2.324,-3.73134701 4.512,-3.43830891 l 8.301,1.13307891 c 2.187,0.29304 3.73,2.32477 3.418,4.51279 l -0.918,6.68123 c 2.598,1.1917 4.981,2.7155 7.129,4.5128 l 4.922,-3.7313 c 1.758,-1.348 4.278,-1.0159 5.626,0.7423 z M 57.954297,131.121 V 98.8872 h 16.602 c 3.087,0 5.43,0.254 7.052,0.801 1.621,0.5278 2.949,1.5038 3.926,2.9308 0.996,1.445 1.504,3.184 1.504,5.235 0,1.778 -0.391,3.341 -1.153,4.63 -0.762,1.309 -1.816,2.364 -3.144,3.165 -0.84,0.508 -2.012,0.938 -3.497,1.27 1.192,0.41 2.051,0.781 2.578,1.191 0.372,0.274 0.899,0.841 1.583,1.7 0.683,0.86 1.152,1.543 1.386,2.012 l 4.844,9.319 h -11.25 l -5.313,-9.827 c -0.684,-1.269 -1.27,-2.109 -1.797,-2.481 -0.723,-0.488 -1.543,-0.742 -2.442,-0.742 h -0.879 v 13.05 h -10 z m 35.119,56.127 h -18.595 l -2.676,8.752 h -16.758 l 19.981,-53.118 h 17.97 L 112.8993,196 H 95.710297 Z m -3.477,-11.507 -5.801,-19.106 -5.82,19.106 z M 116.7663,142.882 h 27.306 c 5.958,0 10.411,1.407 13.36,4.239 2.95,2.833 4.434,6.877 4.434,12.093 0,5.372 -1.621,9.573 -4.844,12.601 -3.223,3.028 -8.164,4.532 -14.786,4.532 h -9.004 V 196 h -16.466 z m 16.466,22.701 h 4.043 c 3.184,0 5.43,-0.547 6.719,-1.661 1.289,-1.094 1.934,-2.52 1.934,-4.22 0,-1.66 -0.567,-3.086 -1.68,-4.239 -1.113,-1.153 -3.223,-1.739 -6.309,-1.739 h -4.707 z m 35.275,-22.701 h 16.466 V 196 h -16.466 z M 67.954297,111.976 h 4.2 c 0.449,0 1.328,-0.156 2.637,-0.449 0.664,-0.137 1.211,-0.469 1.621,-1.016 0.43,-0.547 0.625,-1.172 0.625,-1.875 0,-1.036 -0.332,-1.856 -0.996,-2.403 -0.664,-0.567 -1.895,-0.84 -3.711,-0.84 h -4.376 z m 23.596,-13.0888 H 118.2113 v 6.8768 h -16.661 v 5.138 h 15.45 v 6.564 h -15.45 v 6.349 h 17.15 v 7.287 H 91.550297 Z m 29.513003,21.5678 9.454,-0.586 c 0.195,1.543 0.625,2.696 1.25,3.497 1.035,1.289 2.5,1.953 4.395,1.953 1.406,0 2.519,-0.332 3.281,-0.996 0.762,-0.664 1.152,-1.446 1.152,-2.325 0,-0.84 -0.371,-1.582 -1.093,-2.246 -0.723,-0.665 -2.422,-1.27 -5.098,-1.876 -4.356,-0.977 -7.462,-2.286 -9.337,-3.907 -1.875,-1.622 -2.812,-3.692 -2.812,-6.213 0,-1.66 0.488,-3.223 1.445,-4.688 0.957,-1.465 2.402,-2.637 4.336,-3.4775 1.934,-0.8401 4.571,-1.2503 7.93,-1.2503 4.122,0 7.247,0.7619 9.415,2.3048 2.148,1.544 3.438,3.966 3.848,7.326 l -9.356,0.567 c -0.254,-1.465 -0.782,-2.54 -1.563,-3.184 -0.801,-0.665 -1.914,-0.997 -3.301,-0.997 -1.152,0 -2.031,0.254 -2.617,0.743 -0.586,0.488 -0.879,1.094 -0.879,1.797 0,0.508 0.254,0.957 0.723,1.387 0.468,0.41 1.562,0.82 3.32,1.192 4.356,0.937 7.481,1.895 9.356,2.852 1.875,0.957 3.262,2.149 4.102,3.575 0.859,1.407 1.289,3.008 1.289,4.767 0,2.07 -0.566,3.965 -1.719,5.704 -1.133,1.739 -2.734,3.067 -4.785,3.966 -2.051,0.899 -4.629,1.348 -7.755,1.348 -5.469,0 -9.277,-1.055 -11.387,-3.165 -2.109,-2.149 -3.301,-4.825 -3.594,-8.068 z m 30.685,-21.5678 h 30.295 v 7.9708 h -10.157 v 24.263 h -9.961 v -24.263 h -10.177 z m -33.517,-76.5025 c -3.575,-0.2735 -7.188,-0.2344 -10.762,0.1173 -10.997003,1.0549 -21.681003,5.0597 -30.510003,11.9168 -10.216,7.9121 -17.97,19.7508 -20.958,35.4381 l -0.938,4.9035 -4.883,0.8596 c -4.785,0.84 -9.063,1.9926 -12.813,3.4578 -3.633,1.4066 -6.876,3.1453 -9.708,5.1966 -2.266,1.641 -4.219,3.4773 -5.879,5.47 -5.137,6.1538 -7.52,13.8706 -7.461,21.6846 0.058,7.932 2.636,15.941 7.402,22.525 1.778,2.442 3.829,4.689 6.173,6.642 2.383,1.973 5.058,3.614 8.066,4.845 1.7,0.703 3.516,1.29 5.411,1.758 v 14.633 c -3.907,-0.704 -7.501,-1.758 -10.86,-3.146 -4.434,-1.836 -8.36,-4.2 -11.817,-7.091 -3.282,-2.735 -6.153,-5.841 -8.594,-9.221 -6.5049999,-8.986 -10.02099986,-19.966 -10.09899986,-30.906 -0.078,-11.057 3.35999996,-22.0557 10.78199986,-30.9641 2.403,-2.8913 5.235,-5.5481 8.477,-7.8925 3.77,-2.735 8.087,-5.0402 12.97,-6.9352 3.359,-1.3089 6.953,-2.4029 10.743,-3.282 4.297,-17.0744 13.457,-30.222 25.235,-39.3452 11.017,-8.5372 24.279,-13.51887 37.932003,-14.82777 7.169,-0.68376 14.435,-0.37118 21.545,0.95726 -0.157,0.64468 -0.293,1.28941 -0.372,1.95361 l -0.019,0.1172 c -0.137,1.1135 -0.195,2.2271 -0.137,3.3602 -1.504,0.586 -2.91,1.387 -4.18,2.3638 l -0.058,0.0391 c -1.895,1.4261 -3.497,3.2625 -4.688,5.3723 z m 103.346,37.5089 c 1.094,0.9963 2.148,2.0317 3.184,3.1453 2.089,2.2466 4.062,4.7863 5.918,7.619 6.25,9.6116 9.454,22.4467 9.317,35.0081 -0.137,12.327 -3.457,24.596 -10.255,33.621 -4.434,5.881 -10.117,10.686 -16.934,14.496 -4.669,2.618 -9.923,4.786 -15.646,6.545 v -15.141 c 3.086,-1.152 5.958,-2.442 8.595,-3.907 5.137,-2.872 9.336,-6.369 12.481,-10.569 4.883,-6.505 7.285,-15.707 7.383,-25.143 0.117,-9.9042 -2.305,-19.848 -7.012,-27.0762 -1.348,-2.0904 -2.832,-3.9658 -4.395,-5.6459 -0.605,-0.6447 -1.211,-1.2503 -1.836,-1.8364 0.098,-0.9768 0.137,-1.9731 0.078,-2.9694 1.504,-0.5861 2.91,-1.3871 4.18,-2.3639 l 0.059,-0.0391 c 2.011,-1.5433 3.691,-3.4969 4.883,-5.7435 z m -49.534,-34.8911 c 9.004,1.2308 15.293,9.5335 14.063,18.5396 -1.231,9.006 -9.532,15.3161 -18.536,14.0853 -9.005,-1.2307 -15.314,-9.5335 -14.064,-18.5395 1.25,-9.006 9.532,-15.3161 18.537,-14.0854 z"
     fill="#01b5e6"
     id="path2" />
</svg>
