<?xml version="1.0" encoding="UTF-8" standalone="no"?>
<svg
   width="256px"
   height="263px"
   viewBox="0 0 256 263"
   version="1.1"
   preserveAspectRatio="xMidYMid"
   id="svg7906"
   sodipodi:docname="unity.svg"
   inkscape:version="1.2.2 (1:1.2.2+202212051552+b0a8486541)"
   xmlns:inkscape="http://www.inkscape.org/namespaces/inkscape"
   xmlns:sodipodi="http://sodipodi.sourceforge.net/DTD/sodipodi-0.dtd"
   xmlns="http://www.w3.org/2000/svg"
   xmlns:svg="http://www.w3.org/2000/svg">
  <defs
     id="defs7910" />
  <sodipodi:namedview
     id="namedview7908"
     pagecolor="#ffffff"
     bordercolor="#000000"
     borderopacity="0.25"
     inkscape:showpageshadow="2"
     inkscape:pageopacity="0.0"
     inkscape:pagecheckerboard="0"
     inkscape:deskcolor="#d1d1d1"
     showgrid="false"
     inkscape:zoom="2.9961977"
     inkscape:cx="128.16244"
     inkscape:cy="131.66688"
     inkscape:window-width="1920"
     inkscape:window-height="946"
     inkscape:window-x="0"
     inkscape:window-y="0"
     inkscape:window-maximized="1"
     inkscape:current-layer="svg7906" />
  <g
     id="g8921">
    <g
       id="g8038">
      <path
         style="fill:#ffffff;stroke-width:0.333756;paint-order:markers fill stroke"
         d="m 52.20223,143.47872 c -0.783065,1.96111 2.15051,3.01551 3.04961,4.49241 18.179878,18.47866 36.329666,36.98984 54.49337,55.48661 9.52707,2.79613 19.29154,5.01027 28.90992,7.58255 16.93557,4.2901 33.82435,8.8325 50.81157,12.87828 1.70857,0.0574 1.63361,-2.01921 0.60077,-2.89088 -14.89001,-25.80396 -29.85371,-51.56587 -44.78503,-77.34624 -1.86859,-1.12295 -4.40615,-0.19687 -6.53889,-0.49867 -28.61047,0 -57.220955,0 -85.831436,0 -0.236628,0.0986 -0.473256,0.19729 -0.709884,0.29594 z"
         id="path8029" />
      <path
         style="fill:#ffffff;stroke-width:0.333756;paint-order:markers fill stroke"
         d="m 212.76902,52.058167 c -1.98277,1.100639 -2.67744,3.669008 -4.024,5.410943 -14.10613,23.93284 -28.08518,47.94645 -41.64903,72.19128 -1.16743,1.27588 -0.64365,2.82761 0.31271,4.05104 14.57833,25.35412 29.10692,50.73971 43.93859,75.94557 0.35753,1.16744 2.11221,1.75407 2.46667,0.25293 7.42736,-26.14957 14.75851,-52.32962 21.8819,-78.56312 -2.89045,-11.5813 -6.33628,-23.06602 -9.45866,-34.604476 -4.11105,-14.696776 -8.14441,-29.417783 -12.35284,-44.085752 -0.19021,-0.41654 -0.66931,-0.658432 -1.11534,-0.598415 z"
         id="path8031" />
      <path
         style="fill:#ffffff;stroke-width:0.333756;paint-order:markers fill stroke"
         d="m 189.6414,38.524087 c -25.26601,6.13299 -50.40853,12.784008 -75.55078,19.409579 -2.16326,0.724684 -4.81303,0.725658 -6.15468,2.876818 -18.533973,18.92122 -37.071148,37.84903 -55.742836,56.637196 -1.00435,2.43488 2.690156,1.56984 4.049398,1.69847 29.448567,-0.0544 58.897128,-0.10888 88.345698,-0.16332 1.90685,-1.05702 2.37737,-3.7141 3.70664,-5.40892 14.15167,-24.561577 28.53242,-48.996137 42.45082,-73.688723 0.20239,-0.704116 -0.36355,-1.472132 -1.10426,-1.3611 z"
         id="path8033" />
    </g>
    <g
       fill="#222c37"
       id="g7904"
       style="fill:#000000">
      <path
         d="m 166.87233,131.23686 45.90879,-79.274513 22.18445,79.274513 -22.18445,79.25638 z m -22.37641,12.87366 45.91626,79.26278 -79.96661,-20.48673 -57.77043,-58.77605 z M 190.40151,39.078026 144.49592,118.35254 H 52.67514 L 110.44557,59.573289 Z M 255.94071,104.25891 227.93262,0.06035193 123.39281,27.985268 107.91819,55.192492 76.516786,54.96748 0,131.24432 76.516786,207.50304 h 0.0032 l 31.387534,-0.23248 15.49702,27.20723 104.52808,27.92065 28.00809,-104.17937 -15.90545,-26.98221 z"
         id="path7902"
         style="fill:#000000" />
    </g>
  </g>
</svg>
