<?xml version="1.0" encoding="UTF-8" standalone="no"?>
<svg
   height="2500"
   viewBox=".3 -.7 749.7 750.7"
   width="2500"
   version="1.1"
   id="svg6"
   sodipodi:docname="usb.svg"
   inkscape:version="1.2.2 (1:1.2.2+202212051552+b0a8486541)"
   xmlns:inkscape="http://www.inkscape.org/namespaces/inkscape"
   xmlns:sodipodi="http://sodipodi.sourceforge.net/DTD/sodipodi-0.dtd"
   xmlns="http://www.w3.org/2000/svg"
   xmlns:svg="http://www.w3.org/2000/svg">
  <defs
     id="defs10" />
  <sodipodi:namedview
     id="namedview8"
     pagecolor="#ffffff"
     bordercolor="#000000"
     borderopacity="0.25"
     inkscape:showpageshadow="2"
     inkscape:pageopacity="0.0"
     inkscape:pagecheckerboard="0"
     inkscape:deskcolor="#d1d1d1"
     showgrid="false"
     inkscape:zoom="0.3152"
     inkscape:cx="2128.8071"
     inkscape:cy="1448.2868"
     inkscape:window-width="1920"
     inkscape:window-height="946"
     inkscape:window-x="0"
     inkscape:window-y="0"
     inkscape:window-maximized="1"
     inkscape:current-layer="svg6" />
  <path
     id="path2-3"
     d="M 374.05093 -0.37626063 C 257.57614 -0.37626063 141.00082 0.14903745 140.60082 1.1990364 C 140.30082 1.9990356 138.30101 2.9989397 136.20102 3.3989393 C 129.20103 4.5989381 116.90111 7.898676 114.10111 9.3986745 C 112.60111 10.098674 110.8007 10.798613 110.1007 10.798613 C 107.40071 10.798613 89.500835 19.998833 80.100854 26.098817 C 59.200895 39.798793 45.60097 53.199061 30.400995 74.899009 C 21.901014 86.898987 8.6006509 116.19862 4.9006546 130.79859 C 0.20066927 149.49856 0.40114648 135.3994 0.40114648 375.79892 C 0.40114648 584.0985 0.50074976 600.89894 2.1007782 608.29892 C 3.7007766 615.79891 4.7010946 619.4988 8.301091 631.59877 C 10.001089 637.09876 15.200968 649.79893 17.800965 654.79892 C 18.900964 656.69892 21.500711 661.59904 23.600709 665.59903 C 34.500678 685.99899 55.800817 709.2989 75.200777 722.19888 C 97.300735 736.79885 108.60111 741.69892 135.40105 748.19891 C 141.90104 749.6989 159.40063 749.79884 374.90016 749.59884 C 624.79971 749.19885 612.80069 749.49878 628.90068 744.09879 C 664.20054 732.19882 694.20066 709.79898 716.20063 678.79904 C 718.80063 675.19905 721.90062 670.29893 723.10062 667.79894 C 724.40062 665.29894 726.5007 661.29874 728.0007 658.79875 C 734.60069 647.29877 744.00109 619.69897 745.80109 606.69899 C 746.30109 602.899 747.20068 599.99873 748.30068 599.29873 C 749.80068 598.19874 749.90061 580.79826 749.90061 374.89867 C 749.90061 183.59905 749.70067 151.79884 748.50067 151.79884 C 747.50068 151.79884 746.70079 149.59886 745.90079 144.49887 C 745.30079 140.59888 744.50057 136.59896 744.20057 135.79896 C 743.90057 134.99896 743.30092 132.69859 742.90092 130.79859 C 739.10093 114.59862 724.00046 82.798961 713.30047 68.798985 C 696.10059 46.199028 678.20102 30.89856 653.80104 17.898593 C 644.80105 13.098597 623.80006 5.4986051 616.10007 4.2986063 C 608.00018 2.8986077 606.90106 2.599035 606.90106 1.1990364 C 606.90106 0.14903745 490.52571 -0.37626062 374.05093 -0.37626063 z " />
  <path
     d="m 325.2357,182.01256 53.67296,-94.691978 55.04297,94.008598 -39.77323,0.25177 -0.56894,229.47439 c 3.23051,-1.80491 6.62778,-3.56403 10.12315,-5.3722 22.66591,-11.72533 51.25004,-26.51768 52.30949,-91.71651 h -27.90081 v -80.33451 h 80.33128 v 80.33451 H 483.5865 c -1.09211,81.90399 -38.01743,101.00914 -67.26535,116.13827 -10.56783,5.46703 -19.65774,10.1722 -22.80652,18.57219 l -0.29427,119.94427 a 47.421196,47.421196 0 0 1 34.92093,45.84191 47.411386,47.411386 0 0 1 -47.51928,47.51602 47.411386,47.411386 0 0 1 -47.51929,-47.51602 47.424466,47.424466 0 0 1 30.91222,-44.56017 l 0.18638,-74.55359 c -9.39399,-5.2741 -18.376,-8.8414 -26.6125,-12.11442 -36.43157,-14.485 -61.16069,-24.33022 -61.65769,-109.20968 a 47.022287,47.022287 0 0 1 -34.10351,-45.34817 c 0,-25.98144 21.19453,-47.17596 47.17597,-47.17596 25.98144,0 47.17597,21.19452 47.17597,47.17596 0,21.21414 -13.76566,38.87407 -32.71059,44.92637 0.37929,66.68984 18.11442,73.75577 44.23319,84.13723 5.26429,2.09591 10.79998,4.28992 16.57437,6.91226 l 0.69973,-282.88904 z"
     id="path823"
     style="fill:#ffffff;stroke-width:3.26975" />
</svg>
