<?xml version="1.0" encoding="UTF-8" standalone="no"?>
<svg
   viewBox="0 0 73.6 72"
   width="2500"
   height="2446"
   version="1.1"
   id="svg8217"
   sodipodi:docname="vault.svg"
   inkscape:version="1.2.2 (1:1.2.2+202212051552+b0a8486541)"
   xmlns:inkscape="http://www.inkscape.org/namespaces/inkscape"
   xmlns:sodipodi="http://sodipodi.sourceforge.net/DTD/sodipodi-0.dtd"
   xmlns:xlink="http://www.w3.org/1999/xlink"
   xmlns="http://www.w3.org/2000/svg"
   xmlns:svg="http://www.w3.org/2000/svg">
  <sodipodi:namedview
     id="namedview8219"
     pagecolor="#ffffff"
     bordercolor="#000000"
     borderopacity="0.25"
     inkscape:showpageshadow="2"
     inkscape:pageopacity="0.0"
     inkscape:pagecheckerboard="0"
     inkscape:deskcolor="#d1d1d1"
     showgrid="false"
     inkscape:zoom="0.32215863"
     inkscape:cx="1250.9365"
     inkscape:cy="1227.6561"
     inkscape:window-width="1920"
     inkscape:window-height="946"
     inkscape:window-x="0"
     inkscape:window-y="0"
     inkscape:window-maximized="1"
     inkscape:current-layer="svg8217" />
  <defs
     id="defs8213">
    <path
       id="a"
       d="M37.6 36.8c1.2 0 2.1-1 2.1-2.1s-.9-2.1-2.1-2.1-2.1 1-2.1 2.1.9 2.1 2.1 2.1zM31.3 31c1.2 0 2.1-1 2.1-2.1 0-1.2-.9-2.1-2.1-2.1-1.2 0-2.1 1-2.1 2.1 0 1.2.9 2.1 2.1 2.1zm6.3 0c1.2 0 2.1-1 2.1-2.1 0-1.2-.9-2.1-2.1-2.1s-2.1 1-2.1 2.1c0 1.2.9 2.1 2.1 2.1zm6.3 0c1.2 0 2.1-1 2.1-2.1 0-1.2-.9-2.1-2.1-2.1-1.2 0-2.1 1-2.1 2.1 0 1.2 1 2.1 2.1 2.1zm-12.6-5.7c1.2 0 2.1-1 2.1-2.1 0-1.2-.9-2.1-2.1-2.1-1.2 0-2.1 1-2.1 2.1 0 1.2.9 2.1 2.1 2.1zm6.3 0c1.2 0 2.1-1 2.1-2.1 0-1.2-.9-2.1-2.1-2.1s-2.1 1-2.1 2.1c0 1.2.9 2.1 2.1 2.1zm6.3 0c1.2 0 2.1-1 2.1-2.1 0-1.2-.9-2.1-2.1-2.1-1.2 0-2.1 1-2.1 2.1 0 1.2 1 2.1 2.1 2.1zm-6.3-5.7c1.2 0 2.1-1 2.1-2.1 0-1.2-.9-2.1-2.1-2.1s-2.1 1-2.1 2.1.9 2.1 2.1 2.1zm6.3 0c1.2 0 2.1-1 2.1-2.1 0-1.2-.9-2.1-2.1-2.1-1.2 0-2.1 1-2.1 2.1s1 2.1 2.1 2.1zm-12.6 0c1.2 0 2.1-1 2.1-2.1 0-1.2-.9-2.1-2.1-2.1-1.2 0-2.1 1-2.1 2.1s.9 2.1 2.1 2.1zM36.8 72L0 0h73.6L36.8 72z" />
  </defs>
  <g
     id="g8377">
    <path
       id="path8340"
       style="fill:#ffffff;stroke-width:3.10406;paint-order:markers fill stroke"
       d="M 1064.459 522.88672 C 1063.3594 522.87955 1062.2591 522.89857 1061.1582 522.94336 C 1010.5894 522.71418 973.44609 585.52213 1000.332 629.23828 C 1020.0114 666.92123 1074.5609 678.79932 1107.0527 650.51953 C 1142.5241 624.85505 1144.0514 567.07402 1109.6113 539.86328 C 1097.1813 528.91948 1080.9523 522.99424 1064.459 522.88672 z M 1276.6523 522.95898 C 1275.617 522.98077 1274.5838 523.02285 1273.5508 523.08789 C 1224.0835 523.68102 1188.8876 583.55122 1213.5176 626.75977 C 1231.6238 664.20698 1283.8134 679.10692 1317.4492 653.0957 C 1357.8133 628.03316 1358.6154 563.81812 1320.2559 536.66211 C 1307.8558 527.17373 1292.1819 522.63227 1276.6523 522.95898 z M 1491.9844 523.03516 C 1490.8878 523.02723 1489.7898 523.0437 1488.6934 523.08789 C 1443.1892 523.07989 1407.0086 573.17926 1423.4355 616.18555 C 1436.3727 658.67653 1492.2076 681.65778 1529.375 654.67773 C 1568.9323 630.88996 1574.7727 568.02382 1537.5234 539.48242 C 1524.7799 529.09013 1508.433 523.15399 1491.9844 523.03516 z M 1493.4883 717.08008 C 1492.1533 717.05323 1490.817 717.06364 1489.4824 717.11133 C 1449.1497 715.83942 1415.0433 754.3166 1420.5078 794.1543 C 1421.6131 837.11772 1467.15 868.65077 1507.9609 857.49023 C 1558.3881 848.31802 1580.3702 779.19972 1546.252 741.71289 C 1533.345 726.21814 1513.5123 717.48276 1493.4883 717.08008 z M 1063.5137 717.08203 C 1062.4516 717.07547 1061.3893 717.08894 1060.3281 717.12305 C 1007.1472 714.99109 973.33253 783.05016 1001.5625 826.12891 C 1026.5193 871.01987 1099.9585 870.06196 1124.1738 824.85547 C 1148.6104 787.90637 1128.7855 731.8121 1085.4941 720.36133 C 1078.3817 718.17951 1070.9482 717.12796 1063.5137 717.08203 z M 1270.6934 717.11133 C 1224.4295 718.84531 1191.5958 773.32298 1210.6621 815.62891 C 1227.1238 862.95103 1295.8239 874.35662 1328.6719 837.73828 C 1360.6593 806.37005 1353.5232 746.23902 1312.7578 725.8418 C 1301.3277 719.60196 1288.1943 716.75472 1275.2109 717.11133 C 1273.6919 717.05532 1272.1857 717.05539 1270.6934 717.11133 z M 1495.7637 910.51953 C 1494.0965 910.46467 1492.4175 910.46464 1490.7285 910.52148 C 1488.9269 910.58211 1487.1135 910.7071 1485.293 910.89648 C 1436.4319 913.09619 1402.6174 973.7267 1428.293 1015.9551 C 1443.8722 1042.033 1474.7927 1060.7668 1505.5664 1051.1484 C 1551.0879 1044.7939 1577.8086 987.09089 1554.2793 948.06055 C 1543.0526 924.65212 1520.7712 911.3425 1495.7637 910.51953 z M 1065.6426 910.57422 C 1064.3641 910.55873 1063.0842 910.57611 1061.8066 910.62891 C 1015.8327 909.84105 979.20182 960.00028 994.73633 1003.4609 C 1006.1081 1046.5308 1062.1689 1069.2552 1099.1895 1043.0312 C 1137.0599 1021.4974 1147.7511 964.90187 1116.7891 933.06055 C 1103.9003 918.6817 1084.8201 910.80659 1065.6426 910.57422 z M 1275.7949 910.75977 C 1274.2309 910.76904 1272.6696 910.81541 1271.1133 910.89648 C 1225.9176 913.21258 1192.1399 964.90045 1210.1875 1007.0742 C 1223.571 1052.1342 1286.4795 1069.638 1320.9668 1037.502 C 1351.3237 1015.3159 1357.8371 970.19764 1335.4863 940.09375 C 1323.181 918.72652 1299.2555 910.62064 1275.7949 910.75977 z M 1279.9512 1107.9473 C 1278.2466 1107.9098 1276.5388 1107.9331 1274.8301 1108.0215 C 1229.5488 1107.1031 1193.5116 1156.5092 1209.0078 1199.252 C 1218.5259 1231.7875 1252.0999 1256.9665 1286.6387 1248.9199 C 1333.8986 1245.5838 1363.9864 1187.7953 1341.2207 1146.5566 C 1330.1966 1123.0518 1305.5186 1108.5086 1279.9512 1107.9473 z "
       transform="matrix(0.02944,0,0,0.02944,0,-0.00512)" />
    <use
       xlink:href="#a"
       overflow="visible"
       fill-rule="evenodd"
       clip-rule="evenodd"
       id="use8215" />
  </g>
</svg>
