<?xml version="1.0" encoding="UTF-8" standalone="no"?>
<svg
   version="1.0"
   width="72pt"
   height="72pt"
   viewBox="0 0 72 72"
   preserveAspectRatio="xMidYMid"
   id="svg1"
   sodipodi:docname="web.svg"
   inkscape:version="1.3 (1:1.3+202307231459+0e150ed6c4)"
   xmlns:inkscape="http://www.inkscape.org/namespaces/inkscape"
   xmlns:sodipodi="http://sodipodi.sourceforge.net/DTD/sodipodi-0.dtd"
   xmlns="http://www.w3.org/2000/svg"
   xmlns:svg="http://www.w3.org/2000/svg">
  <defs
     id="defs1" />
  <sodipodi:namedview
     id="namedview1"
     pagecolor="#ffffff"
     bordercolor="#000000"
     borderopacity="0.25"
     inkscape:showpageshadow="2"
     inkscape:pageopacity="0.0"
     inkscape:pagecheckerboard="0"
     inkscape:deskcolor="#d1d1d1"
     inkscape:document-units="pt"
     inkscape:zoom="0.29296875"
     inkscape:cx="855.04"
     inkscape:cy="853.33333"
     inkscape:window-width="1452"
     inkscape:window-height="700"
     inkscape:window-x="100"
     inkscape:window-y="108"
     inkscape:window-maximized="0"
     inkscape:current-layer="svg1" />
  <metadata
     id="metadata1">&#10;Created by potrace 1.15, written by Peter Selinger 2001-2017&#10;</metadata>
  <g
     transform="matrix(0.00563028,0,0,-0.00563028,-0.033792,72.0352)"
     fill="#000000"
     stroke="none"
     id="g1"
     style="fill:#f9f9f9">
    <path
       d="M 6095,12794 C 5143,12738 4330,12523 3520,12115 1756,11225 502,9574 121,7640 36,7210 6,6883 6,6400 6,5998 17,5830 66,5490 289,3928 1078,2513 2294,1493 3244,696 4411,191 5640,46 5921,13 6056,5 6400,5 c 359,0 485,7 795,46 2119,261 3975,1576 4933,3494 306,613 508,1261 606,1945 49,339 60,508 60,905 0,398 -12,583 -60,915 -401,2808 -2618,5025 -5424,5425 -298,42 -488,56 -830,59 -179,2 -352,2 -385,0 z m 723,-711 c 322,-339 466,-501 659,-739 427,-530 802,-1108 1075,-1664 82,-166 208,-443 203,-448 -9,-9 -259,-81 -445,-127 -293,-74 -513,-117 -840,-165 -150,-22 -358,-42 -677,-65 l -83,-5 v 1650 c 0,1304 3,1650 12,1650 7,0 50,-39 96,-87 z M 6090,10500 V 8869 l -72,6 c -40,3 -138,10 -218,15 -300,22 -624,67 -945,131 -264,53 -745,179 -745,195 0,3 34,82 76,177 356,802 850,1568 1473,2284 145,166 412,453 423,453 4,0 8,-734 8,-1630 z m -956,1528 c -5,-7 -42,-53 -84,-103 -594,-702 -1114,-1533 -1455,-2326 -40,-94 -76,-173 -79,-176 -14,-14 -585,249 -828,382 -279,153 -638,375 -638,395 0,20 496,508 625,614 640,530 1305,890 2069,1121 69,20 378,103 394,105 2,0 0,-6 -4,-12 z m 2726,-39 c 907,-241 1699,-668 2394,-1288 133,-120 468,-458 487,-492 8,-16 -5,-28 -105,-93 -246,-160 -559,-336 -831,-467 -183,-88 -432,-199 -449,-199 -6,0 -40,66 -76,148 -329,752 -800,1509 -1374,2206 -72,87 -141,172 -154,187 -13,16 -20,29 -15,29 4,0 60,-14 123,-31 z M 2067,9441 c 333,-200 660,-366 1024,-521 107,-46 198,-86 202,-90 4,-4 -3,-42 -17,-86 -103,-332 -201,-741 -255,-1074 -43,-260 -91,-705 -91,-838 0,-33 -3,-74 -6,-91 l -7,-31 -1141,2 -1141,3 3,60 c 23,482 138,1045 319,1560 154,437 422,967 659,1302 l 44,62 130,-84 c 71,-47 196,-125 277,-174 z m 9156,136 c 329,-501 570,-1027 737,-1609 93,-326 173,-772 195,-1088 3,-47 8,-104 11,-127 l 5,-43 H 11067 9963 l -7,128 c -33,588 -150,1239 -327,1817 -28,94 -52,178 -53,188 -1,14 40,35 183,97 389,169 799,387 1162,618 96,61 183,117 194,125 11,9 23,13 27,11 5,-3 41,-55 81,-117 z M 9001,8575 c 164,-517 265,-1015 313,-1540 8,-88 16,-196 18,-240 l 3,-80 -1312,-3 -1313,-2 v 768 768 l 198,12 c 635,38 1347,165 1917,341 72,22 136,39 144,38 7,-1 22,-29 32,-62 z m -4949,1 c 591,-172 1225,-281 1841,-318 l 197,-12 V 7478 6710 H 4820 3550 v 44 c 0,73 29,400 51,566 41,313 109,656 190,956 47,176 98,344 104,344 2,0 73,-20 157,-44 z M 2924,6068 c 3,-13 6,-50 6,-83 0,-84 26,-369 50,-560 62,-480 180,-1003 330,-1458 27,-83 46,-155 42,-158 -4,-4 -63,-30 -132,-57 -411,-164 -877,-403 -1303,-670 -93,-57 -172,-101 -176,-96 -22,24 -157,222 -219,321 -400,633 -668,1317 -801,2043 -33,176 -66,430 -76,570 -3,47 -8,104 -11,128 l -5,42 h 1144 1145 z m 3166,-837 v -859 l -97,-6 c -602,-39 -995,-94 -1506,-211 -141,-33 -514,-132 -528,-141 -7,-4 -84,228 -138,416 -141,494 -235,1037 -267,1553 l -7,107 h 1272 1271 z m 3245,787 c -22,-289 -29,-365 -51,-538 -44,-338 -115,-687 -205,-1010 -52,-182 -148,-480 -155,-480 -2,0 -55,15 -117,34 -354,107 -792,204 -1177,260 -280,41 -455,58 -822,82 l -98,6 v 859 859 h 1315 1316 z m 2831,35 c -3,-21 -8,-78 -11,-128 -54,-790 -324,-1664 -737,-2385 -103,-178 -313,-503 -359,-554 -4,-5 -83,38 -176,96 -411,257 -916,518 -1275,659 -49,19 -88,39 -88,46 0,7 9,35 20,64 35,89 150,477 196,664 116,469 188,930 216,1383 l 12,192 h 1104 1104 z M 6090,2208 6089,675 5978,790 c -701,727 -1313,1605 -1708,2449 -44,96 -79,179 -77,185 9,21 450,132 757,190 360,68 788,118 1058,124 l 82,2 z m 1055,1506 c 481,-47 1005,-146 1420,-270 50,-14 98,-29 108,-31 9,-3 17,-10 17,-17 0,-23 -273,-559 -378,-741 C 7994,2101 7631,1600 7172,1082 6966,849 6751,630 6729,630 c -19,0 -19,38 -19,1556 v 1557 l 143,-7 c 78,-4 210,-14 292,-22 z M 3755,2875 c 336,-693 751,-1331 1275,-1960 71,-85 127,-155 124,-155 -16,0 -237,56 -352,89 -958,278 -1800,779 -2516,1500 l -139,139 84,55 c 327,212 860,485 1269,650 l 85,34 24,-51 c 14,-28 79,-163 146,-301 z m 5712,248 c 315,-134 828,-403 1102,-580 l 84,-55 -144,-145 C 9873,1703 9125,1231 8286,941 8089,873 7750,775 7750,787 c 0,2 53,68 118,146 537,643 997,1359 1322,2056 52,111 100,201 106,201 7,0 84,-30 171,-67 z"
       id="path1"
       style="fill:#f9f9f9" />
  </g>
</svg>
