<?xml version="1.0" encoding="UTF-8" standalone="no"?>
<!-- Created with Inkscape (http://www.inkscape.org/) -->

<svg
   version="1.0"
   width="645.65625"
   height="447.3125"
   id="svg3215"
   sodipodi:docname="wifi.svg"
   inkscape:version="1.2.2 (1:1.2.2+202212051552+b0a8486541)"
   xmlns:inkscape="http://www.inkscape.org/namespaces/inkscape"
   xmlns:sodipodi="http://sodipodi.sourceforge.net/DTD/sodipodi-0.dtd"
   xmlns="http://www.w3.org/2000/svg"
   xmlns:svg="http://www.w3.org/2000/svg">
  <sodipodi:namedview
     id="namedview479"
     pagecolor="#ffffff"
     bordercolor="#000000"
     borderopacity="0.25"
     inkscape:showpageshadow="2"
     inkscape:pageopacity="0.0"
     inkscape:pagecheckerboard="0"
     inkscape:deskcolor="#d1d1d1"
     showgrid="false"
     inkscape:zoom="1.6074396"
     inkscape:cx="337.18219"
     inkscape:cy="224.2697"
     inkscape:window-width="1920"
     inkscape:window-height="946"
     inkscape:window-x="0"
     inkscape:window-y="0"
     inkscape:window-maximized="1"
     inkscape:current-layer="svg3215" />
  <defs
     id="defs3217" />
  <g
     transform="translate(-121.45389,-405.14296)"
     id="layer1">
    <g
       transform="translate(70.578889,17.64296)"
       id="g3250">
      <path
         d="m 374.53125,387.5 c -71.52815,0 -135.2381,33.63575 -176.1875,85.9375 H 160 C 99.833783,473.43749 50.875,522.3649 50.875,582.53125 v 65.78125 c 0,60.16638 48.958784,109.125 109.125,109.125 h 45.375 c 41.02005,47.3875 101.60655,77.37502 169.15625,77.375 67.54969,0 128.1362,-29.98751 169.15625,-77.375 h 43.6875 c 60.18955,-2e-5 109.15625,-48.95864 109.15625,-109.125 V 582.53125 C 696.53126,522.36493 647.56455,473.4375 587.375,473.4375 H 550.71875 C 509.76935,421.13575 446.0594,387.5 374.53125,387.5 Z"
         style="fill:#000000;fill-rule:evenodd;stroke:none"
         id="path112" />
      <path
         d="M 388.59773,648.30636 V 582.5455 c 0,-48.5806 39.53579,-88.11653 88.1164,-88.11653 h 110.65849 c 48.58061,0 88.13973,39.53593 88.13973,88.11653 v 65.76086 c 0,48.58067 -39.55912,88.11654 -88.13973,88.11654 0,0 -162.57254,0 -243.64906,0 27.18095,-19.86118 44.87417,-51.96078 44.87417,-88.11654 z"
         style="fill:#ffffff;fill-rule:nonzero;stroke:none;stroke-width:4.968;stroke-linecap:butt;stroke-linejoin:miter;stroke-miterlimit:3.864;stroke-dasharray:none"
         id="path118" />
      <path
         d="m 244.76732,682.43408 h -36.31885 l -6.50379,-30.84072 c -4.63898,-21.8893 -8.9049,-48.4875 -9.7208,-58.81423 -0.83923,10.32673 -5.08182,36.92493 -9.7208,58.81423 l -6.52713,30.84072 H 140.07668 L 106.20545,540.3987 h 40.56152 l 3.84634,23.75419 c 3.26359,20.09433 7.13326,44.85076 8.53191,61.68157 1.63179,-16.64431 6.08421,-41.21432 10.55995,-61.51841 l 4.84881,-23.91735 h 36.13236 l 4.87199,23.91735 c 4.45256,20.30409 8.90498,44.8741 10.56003,61.51841 1.39865,-16.83081 5.26846,-41.58724 8.50866,-61.68157 l 3.84634,-23.75419 h 40.1886 z"
         style="fill:#ffffff;fill-rule:nonzero;stroke:none;stroke-width:4.968;stroke-linecap:butt;stroke-linejoin:miter;stroke-miterlimit:3.864;stroke-dasharray:none"
         id="path120" />
      <path
         d="m 314.25823,568.20905 c -11.98207,0 -20.91023,-6.92351 -20.91023,-18.04303 0,-10.37346 8.92816,-17.66982 20.91023,-17.66982 12.56475,0 21.28316,7.29636 21.28316,17.66982 0,11.11952 -8.71841,18.04303 -21.28316,18.04303 z M 295.98219,682.43408 V 579.25851 h 36.52868 v 103.17557 z"
         style="fill:#ffffff;fill-rule:nonzero;stroke:none;stroke-width:4.968;stroke-linecap:butt;stroke-linejoin:miter;stroke-miterlimit:3.864;stroke-dasharray:none"
         id="path122" />
      <path
         d="m 477.34353,573.87361 v 31.74994 h 75.57505 v 33.31174 h -75.57505 v 43.49879 h -39.1628 V 540.3987 h 122.78026 v 33.47491 z"
         style="fill:#000000;fill-rule:nonzero;stroke:none;stroke-width:4.968;stroke-linecap:butt;stroke-linejoin:miter;stroke-miterlimit:3.864;stroke-dasharray:none"
         id="path124" />
      <path
         d="m 601.96542,568.20905 c -11.95868,0 -20.91024,-6.92351 -20.91024,-18.04303 0,-10.37346 8.95156,-17.66982 20.91024,-17.66982 12.56482,0 21.28315,7.29636 21.28315,17.66982 0,11.11952 -8.71833,18.04303 -21.28315,18.04303 z M 583.71278,682.43408 V 579.25851 h 36.50535 v 103.17557 z"
         style="fill:#000000;fill-rule:nonzero;stroke:none;stroke-width:4.968;stroke-linecap:butt;stroke-linejoin:miter;stroke-miterlimit:3.864;stroke-dasharray:none"
         id="path126" />
    </g>
  </g>
</svg>
