<?xml version="1.0" encoding="UTF-8" standalone="no"?>
<!-- Generator: Adobe Illustrator 27.5.0, SVG Export Plug-In . SVG Version: 6.00 Build 0)  -->

<svg
   version="1.1"
   id="svg5"
   x="0px"
   y="0px"
   viewBox="0 0 71.999997 72.000003"
   xml:space="preserve"
   sodipodi:docname="twitter.svg"
   width="72"
   height="72"
   inkscape:version="1.3 (1:1.3+202307231459+0e150ed6c4)"
   xmlns:inkscape="http://www.inkscape.org/namespaces/inkscape"
   xmlns:sodipodi="http://sodipodi.sourceforge.net/DTD/sodipodi-0.dtd"
   xmlns="http://www.w3.org/2000/svg"
   xmlns:svg="http://www.w3.org/2000/svg"><defs
   id="defs1">&#10;	&#10;	&#10;</defs><sodipodi:namedview
   id="namedview1"
   pagecolor="#ffffff"
   bordercolor="#000000"
   borderopacity="0.25"
   inkscape:showpageshadow="2"
   inkscape:pageopacity="0.0"
   inkscape:pagecheckerboard="0"
   inkscape:deskcolor="#d1d1d1"
   inkscape:zoom="0.40943672"
   inkscape:cx="479.92764"
   inkscape:cy="481.14883"
   inkscape:window-width="1452"
   inkscape:window-height="700"
   inkscape:window-x="50"
   inkscape:window-y="108"
   inkscape:window-maximized="0"
   inkscape:current-layer="svg5" />&#10;<style
   type="text/css"
   id="style1">&#10;	.st0{stroke:#FFFFFF;stroke-miterlimit:10;}&#10;	.st1{fill:#FFFFFF;}&#10;</style>&#10;<g
   id="g4"
   transform="matrix(0.07471514,0,0,0.07471514,-26.333295,-9.6210359)"
   style="fill:#ffffff"><g
     id="circle1"
     class="st0"
     style="fill:#ffffff" /><g
     id="layer1"
     transform="translate(52.390088,-25.058597)"
     style="fill:#ffffff">&#10;		<path
   id="path2"
   style="fill:#ffffff"
   class="st1"
   d="M 485.39,356.79 715.46,664.41 483.94,914.52 h 52.11 l 202.7,-218.98 163.77,218.98 h 177.32 L 836.82,589.6 1052.32,356.79 h -52.11 L 813.54,558.46 662.71,356.79 Z m 76.63,38.38 h 81.46 L 1003.2,876.14 H 921.74 Z M 781.88921,153.82813 c -127.78894,0 -250.34466,50.76458 -340.70508,141.125 -90.36043,90.36043 -141.125,212.91614 -141.125,340.70508 -10e-6,127.78894 50.76457,250.34465 141.125,340.70508 90.36042,90.36041 212.91613,141.12501 340.70508,141.12501 127.78894,0 250.34469,-50.7646 340.70509,-141.12501 90.3604,-90.36043 141.125,-212.91614 141.125,-340.70508 0,-127.78894 -50.7646,-250.34465 -141.125,-340.70508 -90.3604,-90.36042 -212.91616,-141.12499 -340.70509,-141.125 z m 0,1 c 127.5241,1e-5 249.82489,50.65887 339.99799,140.83203 90.1732,90.17316 140.8321,212.47395 140.8321,339.99805 0,127.52411 -50.6589,249.82488 -140.8321,339.99805 -90.1731,90.17314 -212.47388,140.83204 -339.99799,140.83204 -127.52412,0 -249.82489,-50.6589 -339.99805,-140.83204 C 351.718,885.48309 301.05912,763.18232 301.05913,635.65821 301.05913,508.1341 351.718,385.83332 441.89116,295.66016 532.06432,205.487 654.3651,154.82813 781.88921,154.82813 Z M 1263.2199,635.65858 A 481.32999,481.32999 0 0 1 781.88994,1116.9886 481.32999,481.32999 0 0 1 300.55995,635.65858 481.32999,481.32999 0 0 1 781.88994,154.32859 481.32999,481.32999 0 0 1 1263.2199,635.65858 Z" />&#10;	</g></g>&#10;</svg>
