<?xml version="1.0" encoding="UTF-8" standalone="no"?>
<svg
   viewBox="0 0 18 18"
   version="1.1"
   id="svg10807"
   sodipodi:docname="x86.svg"
   width="18"
   height="18"
   inkscape:version="1.2.2 (1:1.2.2+202212051552+b0a8486541)"
   xmlns:inkscape="http://www.inkscape.org/namespaces/inkscape"
   xmlns:sodipodi="http://sodipodi.sourceforge.net/DTD/sodipodi-0.dtd"
   xmlns="http://www.w3.org/2000/svg"
   xmlns:svg="http://www.w3.org/2000/svg">
  <defs
     id="defs10811" />
  <sodipodi:namedview
     id="namedview10809"
     pagecolor="#ffffff"
     bordercolor="#000000"
     borderopacity="0.25"
     inkscape:showpageshadow="2"
     inkscape:pageopacity="0.0"
     inkscape:pagecheckerboard="0"
     inkscape:deskcolor="#d1d1d1"
     showgrid="false"
     inkscape:zoom="35.416667"
     inkscape:cx="8.6964705"
     inkscape:cy="9.0494117"
     inkscape:window-width="1920"
     inkscape:window-height="946"
     inkscape:window-x="0"
     inkscape:window-y="0"
     inkscape:window-maximized="1"
     inkscape:current-layer="svg10807" />
  <path
     id="path10805"
     d="M 2 0 C 0.8950011 0 0 0.8950011 0 2 L 0 16 C 0 17.104999 0.8950011 18 2 18 L 16 18 C 17.104999 18 18 17.104999 18 16 L 18 2 C 18 0.8950011 17.104999 0 16 0 L 2 0 z " />
  <g
     id="g7551"
     transform="translate(-0.23944254,-0.41645379)"
     style="fill:#ffffff">
    <path
       style="fill:#ffffff;stroke-width:0.0282353;paint-order:markers fill stroke"
       d="M 2.8471875,8.5058823 C 3.1925543,9.0894699 3.5801838,9.6522022 3.8934926,10.252334 3.4792297,11.012612 2.9979227,11.735347 2.5559007,12.48 c 0.3557721,0 0.7115441,0 1.0673162,0 0.2928273,-0.488071 0.5635741,-0.996921 0.8785478,-1.467298 0.3083536,0.472079 0.5780847,0.968634 0.8664155,1.45318 0.3474889,-0.01004 0.7067223,0.04164 1.0476838,-0.01313 C 5.9935019,11.711193 5.5142625,10.99316 5.0972977,10.247757 5.5091364,9.5227234 5.979214,8.8234026 6.3863051,8.1008271 6.0443486,8.0502762 5.6884271,8.0982434 5.3414337,8.0894117 5.0622954,8.5635117 4.7967435,9.059784 4.5050735,9.5179962 4.1918146,9.0553359 3.9352669,8.5563713 3.6514522,8.075294 c -0.3559191,0 -0.7118383,0 -1.0677574,0 0.087831,0.1435295 0.1756618,0.2870589 0.2634927,0.4305883 z"
       id="path7542" />
    <path
       style="fill:#ffffff;stroke-width:0.0282353;paint-order:markers fill stroke"
       d="M 8.9517462,6.3598345 C 8.3665518,6.3593311 7.6909329,6.5682006 7.4238334,7.1365941 7.1108106,7.7085778 7.1091306,8.5109129 7.6163602,8.9744668 7.742158,9.0962294 7.8913475,9.1891112 8.0374632,9.2839521 7.5597012,9.4762525 7.1840689,9.9058929 7.1026802,10.419925 c -0.1484183,0.743498 0.279853,1.574875 1.0177241,1.810369 0.5192423,0.190519 1.0949145,0.148771 1.6259008,0.03568 0.6007639,-0.155389 1.1005619,-0.67811 1.1539469,-1.307592 0.09226,-0.665565 -0.276797,-1.3686832 -0.891943,-1.6487866 -0.078298,-0.062567 0.125432,-0.1148137 0.15761,-0.1622425 0.85812,-0.5772006 0.775417,-2.035492 -0.11432,-2.5437133 C 9.7239558,6.3959865 9.3312904,6.3543143 8.9517462,6.3598345 Z m 0.08057,0.765 C 9.4910163,7.0889288 9.8487274,7.555576 9.7974593,7.9897046 9.8428689,8.344991 9.6576666,8.7530266 9.2852757,8.8389154 8.856122,8.9996065 8.2995172,8.7603765 8.2145955,8.287169 8.1423354,7.9279812 8.1858685,7.49206 8.515147,7.2702021 8.6576655,7.1473508 8.8506392,7.1219697 9.0323162,7.1248345 Z m -0.051618,2.562408 c 0.4096048,-0.028684 0.8508393,0.2252185 0.9268567,0.6503495 0.1023991,0.407747 0.01478,0.918639 -0.3840993,1.13636 -0.2993437,0.156123 -0.6867887,0.17147 -0.9965073,0.03518 C 7.9036128,11.191353 7.8756118,10.198446 8.4521139,9.8179411 8.6045196,9.7075987 8.7974203,9.683564 8.9806982,9.6872425 Z"
       id="path7544" />
    <path
       style="fill:#ffffff;stroke-width:0.0282353;paint-order:markers fill stroke"
       d="m 14.85943,6.353272 c -0.872729,0.013208 -1.781663,0.3880632 -2.265496,1.1428676 -0.438398,0.6010599 -0.519666,1.3704954 -0.57557,2.0900736 -0.01245,0.5683878 0.01611,1.1550788 0.277114,1.6729408 0.328185,0.794228 1.243732,1.258588 2.080478,1.106305 0.646994,-0.08424 1.201538,-0.562379 1.409448,-1.175735 0.220955,-0.659692 0.180673,-1.4243881 -0.156452,-2.0382903 -0.261558,-0.4727614 -0.789382,-0.7882527 -1.334724,-0.74823 -0.416592,-0.040173 -0.835525,0.096202 -1.147721,0.3749947 -0.194899,0.2287271 -0.08993,-0.1042505 -0.07522,-0.2336029 0.139539,-0.7665469 0.850046,-1.3508035 1.621209,-1.3839716 0.127123,-0.045143 0.415655,0.065543 0.371033,-0.1385284 0,-0.2230515 0,-0.4461029 0,-0.6691544 -0.06803,1.435e-4 -0.136068,-3.341e-4 -0.204099,3.309e-4 z M 14.042592,9.19125 c 0.52688,-0.00892 0.903716,0.5113409 0.925864,1.002518 0.06255,0.513799 -0.111415,1.155918 -0.64682,1.346305 -0.299871,0.111946 -0.654043,0.06839 -0.882336,-0.168219 -0.421395,-0.406985 -0.49825,-1.055375 -0.403473,-1.6072954 0.184721,-0.3357603 0.552581,-0.6218944 0.954761,-0.5736305 l 0.02823,1.748e-4 z"
       id="path7546" />
  </g>
</svg>
