<?xml version="1.0" encoding="UTF-8" standalone="no"?>
<svg
   viewBox="0 0 18 18"
   version="1.1"
   id="svg10807"
   sodipodi:docname="X86.svg"
   width="18"
   height="18"
   inkscape:version="1.2.2 (1:1.2.2+202212051552+b0a8486541)"
   xmlns:inkscape="http://www.inkscape.org/namespaces/inkscape"
   xmlns:sodipodi="http://sodipodi.sourceforge.net/DTD/sodipodi-0.dtd"
   xmlns="http://www.w3.org/2000/svg"
   xmlns:svg="http://www.w3.org/2000/svg">
  <defs
     id="defs10811" />
  <sodipodi:namedview
     id="namedview10809"
     pagecolor="#ffffff"
     bordercolor="#000000"
     borderopacity="0.25"
     inkscape:showpageshadow="2"
     inkscape:pageopacity="0.0"
     inkscape:pagecheckerboard="0"
     inkscape:deskcolor="#d1d1d1"
     showgrid="false"
     inkscape:zoom="35.416667"
     inkscape:cx="9.0070588"
     inkscape:cy="9.0211765"
     inkscape:window-width="1846"
     inkscape:window-height="1016"
     inkscape:window-x="74"
     inkscape:window-y="27"
     inkscape:window-maximized="1"
     inkscape:current-layer="svg10807" />
  <path
     d="M 2,0 C 0.895,0 0,0.895 0,2 v 14 c 0,1.105 0.895,2 2,2 h 14 c 1.105,0 2,-0.895 2,-2 V 2 C 18,0.895 17.105,0 16,0 Z m 7,6.34375 c 0.262,0 0.49775,0.02275 0.71875,0.09375 0.221,0.072 0.4035,0.1735 0.5625,0.3125 0.159,0.139 0.287,0.32825 0.375,0.53125 0.09,0.204 0.125,0.4255 0.125,0.6875 0,0.289 -0.07175,0.55625 -0.21875,0.78125 -0.149,0.226 -0.33775,0.40125 -0.59375,0.53125 0.146,0.067 0.28625,0.154 0.40625,0.25 0.118,0.096 0.19725,0.1915 0.28125,0.3125 0.084,0.121 0.1425,0.26225 0.1875,0.40625 0.044,0.144 0.09375,0.2755 0.09375,0.4375 0.002,0.275 -0.05925,0.541 -0.15625,0.75 -0.097,0.21 -0.23325,0.38825 -0.40625,0.53125 -0.173,0.143 -0.391,0.2385 -0.625,0.3125 C 9.514,12.35425 9.275,12.375 9,12.375 8.725,12.375 8.45475,12.35425 8.21875,12.28125 7.98475,12.20725 7.799,12.11175 7.625,11.96875 7.451,11.82575 7.31775,11.6475 7.21875,11.4375 7.12075,11.2285 7.0625,10.9625 7.0625,10.6875 7.0625,10.5255 7.08,10.394 7.125,10.25 7.17,10.106 7.2295,9.96575 7.3125,9.84375 7.3945,9.72275 7.507,9.597 7.625,9.5 7.744,9.403 7.88525,9.34625 8.03125,9.28125 7.77725,9.15125 7.55325,8.976 7.40625,8.75 7.25925,8.525 7.1875,8.25775 7.1875,7.96875 c 0,-0.262 0.06725,-0.4835 0.15625,-0.6875 C 7.43275,7.07725 7.5285,6.889 7.6875,6.75 7.8465,6.611 8.06225,6.5095 8.28125,6.4375 8.50125,6.3665 8.739,6.34375 9,6.34375 Z m 5.96875,0 h 0.09375 v 0.8125 H 15 c -0.325,0 -0.60875,0.034 -0.84375,0.125 -0.236,0.089 -0.43375,0.22 -0.59375,0.375 -0.159,0.156 -0.287,0.32325 -0.375,0.53125 -0.087,0.209 -0.12825,0.4535 -0.15625,0.6875 0.153,-0.16 0.32425,-0.29 0.53125,-0.375 0.207,-0.084 0.4385,-0.125 0.6875,-0.125 0.288,0 0.535,0.04625 0.75,0.15625 0.213,0.111 0.39325,0.2535 0.53125,0.4375 0.14,0.186 0.2445,0.41825 0.3125,0.65625 0.068,0.241 0.09375,0.494 0.09375,0.75 0.002,0.286 -0.039,0.53525 -0.125,0.78125 -0.085,0.247 -0.21,0.47325 -0.375,0.65625 -0.164,0.182 -0.35475,0.3325 -0.59375,0.4375 -0.24,0.104 -0.5075,0.15625 -0.8125,0.15625 -0.324,0 -0.627,-0.09275 -0.875,-0.21875 -0.248,-0.127 -0.455,-0.285 -0.625,-0.5 -0.17,-0.215 -0.288,-0.469 -0.375,-0.75 C 12.06925,10.6565 12,10.3725 12,10.0625 V 9.65625 c 0,-0.294 0.04975,-0.56475 0.09375,-0.84375 0.045,-0.28 0.0895,-0.53425 0.1875,-0.78125 0.098,-0.246 0.25125,-0.4805 0.40625,-0.6875 0.155,-0.207 0.3435,-0.38025 0.5625,-0.53125 0.217,-0.149 0.465,-0.26075 0.75,-0.34375 0.284,-0.084 0.60975,-0.125 0.96875,-0.125 z M 9,7.125 C 8.75,7.125 8.55225,7.217 8.40625,7.375 8.26025,7.532 8.1875,7.728 8.1875,8 c 0,0.132 0.0245,0.266 0.0625,0.375 0.038,0.11 0.08625,0.20325 0.15625,0.28125 0.07,0.076 0.149,0.11425 0.25,0.15625 C 8.75725,8.8545 8.873,8.875 9,8.875 c 0.127,0 0.24275,-0.0205 0.34375,-0.0625 0.102,-0.042 0.18,-0.08025 0.25,-0.15625 C 9.66375,8.57925 9.712,8.485 9.75,8.375 9.788,8.266 9.8125,8.132 9.8125,8 9.8125,7.87 9.788,7.76425 9.75,7.65625 9.71,7.54825 9.66475,7.453 9.59375,7.375 9.52375,7.297 9.44675,7.2305 9.34375,7.1875 9.24075,7.1445 9.124,7.125 9,7.125 Z M 2.5625,8.0625 H 3.65625 L 4.5,9.53125 5.34375,8.0625 H 6.4375 L 5.09375,10.25 6.46875,12.5 H 5.375 L 4.5,11 3.625,12.5 H 2.53125 l 1.375,-2.25 z M 14,9.1875 c -0.114,0 -0.2065,-0.0038 -0.3125,0.03125 -0.104,0.036 -0.2265,0.09625 -0.3125,0.15625 -0.085,0.06 -0.15575,0.13775 -0.21875,0.21875 -0.064,0.082 -0.11825,0.158 -0.15625,0.25 v 0.3125 c 0,0.236 0.03975,0.444 0.09375,0.625 0.053,0.182 0.12875,0.3175 0.21875,0.4375 0.09,0.12 0.1925,0.22025 0.3125,0.28125 0.12,0.061 0.238,0.09375 0.375,0.09375 0.149,0 0.28725,-0.03475 0.40625,-0.09375 0.118,-0.058 0.2295,-0.144 0.3125,-0.25 0.083,-0.106 0.1435,-0.228 0.1875,-0.375 0.044,-0.147 0.0625,-0.323 0.0625,-0.5 0,-0.166 -0.0225,-0.32175 -0.0625,-0.46875 -0.04,-0.147 -0.1065,-0.265 -0.1875,-0.375 -0.08,-0.11 -0.1925,-0.185 -0.3125,-0.25 C 14.28625,9.21625 14.157,9.1875 14,9.1875 Z m -5,0.5 C 8.854,9.6875 8.70875,9.703 8.59375,9.75 8.47675,9.797 8.3935,9.8525 8.3125,9.9375 8.2315,10.0225 8.169,10.13 8.125,10.25 8.08,10.371 8.03125,10.51025 8.03125,10.65625 c 0,0.148 0.04875,0.28925 0.09375,0.40625 0.044,0.117 0.1055,0.19825 0.1875,0.28125 0.083,0.082 0.16525,0.1445 0.28125,0.1875 0.118,0.043 0.26025,0.0625 0.40625,0.0625 0.297,0 0.5215,-0.083 0.6875,-0.25 0.166,-0.167 0.25,-0.3875 0.25,-0.6875 C 9.9375,10.51025 9.921,10.371 9.875,10.25 9.83,10.13 9.7705,10.0225 9.6875,9.9375 9.6055,9.8525 9.493,9.797 9.375,9.75 9.258,9.703 9.143,9.6875 9,9.6875 Z"
     id="path10805" />
</svg>
